M48
; DRILL file {KiCad 7.0.2} date Wed Jun 14 20:26:48 2023
; FORMAT={-:-/ absolute / metric / decimal}
; #@! TF.CreationDate,2023-06-14T20:26:48+10:00
; #@! TF.GenerationSoftware,Kicad,Pcbnew,7.0.2
; #@! TF.FileFunction,MixedPlating,1,4
FMAT,2
METRIC
; #@! TA.AperFunction,Plated,PTH,ViaDrill
T1C0.400
; #@! TA.AperFunction,Plated,PTH,ComponentDrill
T2C0.600
; #@! TA.AperFunction,Plated,PTH,ComponentDrill
T3C0.800
; #@! TA.AperFunction,NonPlated,NPTH,ComponentDrill
T4C0.650
; #@! TA.AperFunction,NonPlated,NPTH,ComponentDrill
T5C0.900
; #@! TA.AperFunction,NonPlated,NPTH,ComponentDrill
T6C1.000
%
G90
G05
T1
X187.4Y-88.2
X188.0Y-113.0
X189.0Y-110.749
X189.35Y-80.0
X189.4Y-71.0
X189.4Y-83.2
X189.8Y-93.8
X190.2Y-88.251
X190.549Y-75.4
X191.192Y-101.817
X191.2Y-98.0
X191.225Y-104.818
X191.4Y-94.6
X192.025Y-106.218
X192.5Y-81.3
X192.934Y-98.066
X193.7Y-81.3
X193.846Y-98.644
X194.2Y-70.0
X194.2Y-72.6
X194.2Y-74.0
X194.2Y-85.4
X194.4Y-68.2
X194.467Y-75.732
X194.6Y-83.249
X194.63Y-102.63
X195.0Y-81.2
X195.467Y-75.732
X195.615Y-100.691
X195.629Y-102.599
X196.4Y-80.2
X196.411Y-75.223
X196.8Y-102.6
X197.355Y-95.207
X197.396Y-75.053
X197.9Y-113.4
X198.059Y-106.753
X198.2Y-77.4
X198.4Y-98.8
X198.6Y-94.2
X198.75Y-102.25
X198.9Y-104.3
X199.057Y-106.803
X199.149Y-98.093
X199.6Y-97.2
X199.75Y-102.25
X200.1Y-108.7
X200.45Y-76.6
X200.761Y-104.4
X200.764Y-107.918
X200.777Y-102.177
X200.81Y-103.205
X201.125Y-105.331
X201.278Y-97.754
X201.76Y-104.396
X202.0Y-99.75
X202.4Y-75.2
X202.4Y-89.7
X203.0Y-94.0
X203.2Y-84.6
X203.251Y-103.969
X203.268Y-83.602
X203.4Y-90.2
X203.6Y-74.95
X203.707Y-94.707
X204.111Y-111.299
X204.183Y-104.329
X204.2Y-77.0
X204.4Y-95.543
X205.25Y-96.293
X205.6Y-69.0
X205.824Y-107.164
X206.0Y-97.0
X206.2Y-81.4
X206.4Y-85.2
X206.95Y-98.0
X208.033Y-99.033
X208.349Y-101.83
X209.8Y-69.8
X209.8Y-103.8
X209.8Y-108.0
X210.2Y-113.849
X210.6Y-74.6
X210.8Y-105.0
X211.2Y-90.8
X211.6Y-87.0
X211.8Y-84.1
X213.6Y-77.6
T3
X185.0Y-88.0
X185.0Y-90.0
X185.0Y-92.0
X185.0Y-94.0
X185.0Y-96.0
X185.0Y-98.0
X185.0Y-100.0
X185.0Y-102.0
X185.0Y-104.0
X185.0Y-106.0
X185.0Y-108.0
X185.0Y-110.0
X185.0Y-112.0
X185.0Y-114.0
X187.0Y-118.0
X189.0Y-118.0
X191.0Y-118.0
X193.0Y-118.0
X195.0Y-118.0
X197.0Y-118.0
X199.0Y-118.0
X201.0Y-118.0
X203.0Y-118.0
X205.0Y-118.0
X207.0Y-118.0
X209.0Y-118.0
X211.0Y-118.0
X213.0Y-118.0
X215.0Y-88.0
X215.0Y-90.0
X215.0Y-92.0
X215.0Y-94.0
X215.0Y-96.0
X215.0Y-98.0
X215.0Y-100.0
X215.0Y-102.0
X215.0Y-104.0
X215.0Y-106.0
X215.0Y-108.0
X215.0Y-110.0
X215.0Y-111.999
X215.0Y-114.0
T4
X197.11Y-72.605
X202.89Y-72.605
T5
X186.94Y-74.8
X186.94Y-77.8
T6
X191.0Y-77.299
X191.0Y-79.331
X196.08Y-78.316
T2
G00X195.68Y-69.325
M15
G01X195.68Y-68.525
M16
G05
G00X195.68Y-73.675
M15
G01X195.68Y-72.575
M16
G05
G00X204.32Y-69.325
M15
G01X204.32Y-68.525
M16
G05
G00X204.32Y-73.675
M15
G01X204.32Y-72.575
M16
G05
T0
M30
