%TF.GenerationSoftware,KiCad,Pcbnew,7.0.2*%
%TF.CreationDate,2023-06-14T20:26:51+10:00*%
%TF.ProjectId,STM32_Simple_Rev1.0,53544d33-325f-4536-996d-706c655f5265,rev?*%
%TF.SameCoordinates,Original*%
%TF.FileFunction,Paste,Top*%
%TF.FilePolarity,Positive*%
%FSLAX46Y46*%
G04 Gerber Fmt 4.6, Leading zero omitted, Abs format (unit mm)*
G04 Created by KiCad (PCBNEW 7.0.2) date 2023-06-14 20:26:51*
%MOMM*%
%LPD*%
G01*
G04 APERTURE LIST*
G04 Aperture macros list*
%AMRoundRect*
0 Rectangle with rounded corners*
0 $1 Rounding radius*
0 $2 $3 $4 $5 $6 $7 $8 $9 X,Y pos of 4 corners*
0 Add a 4 corners polygon primitive as box body*
4,1,4,$2,$3,$4,$5,$6,$7,$8,$9,$2,$3,0*
0 Add four circle primitives for the rounded corners*
1,1,$1+$1,$2,$3*
1,1,$1+$1,$4,$5*
1,1,$1+$1,$6,$7*
1,1,$1+$1,$8,$9*
0 Add four rect primitives between the rounded corners*
20,1,$1+$1,$2,$3,$4,$5,0*
20,1,$1+$1,$4,$5,$6,$7,0*
20,1,$1+$1,$6,$7,$8,$9,0*
20,1,$1+$1,$8,$9,$2,$3,0*%
%AMRotRect*
0 Rectangle, with rotation*
0 The origin of the aperture is its center*
0 $1 length*
0 $2 width*
0 $3 Rotation angle, in degrees counterclockwise*
0 Add horizontal line*
21,1,$1,$2,0,0,$3*%
G04 Aperture macros list end*
%ADD10RoundRect,0.075000X-0.548008X0.441942X0.441942X-0.548008X0.548008X-0.441942X-0.441942X0.548008X0*%
%ADD11RoundRect,0.075000X-0.548008X-0.441942X-0.441942X-0.548008X0.548008X0.441942X0.441942X0.548008X0*%
%ADD12RoundRect,0.140000X0.219203X0.021213X0.021213X0.219203X-0.219203X-0.021213X-0.021213X-0.219203X0*%
%ADD13R,0.900000X1.700000*%
%ADD14RoundRect,0.135000X-0.135000X-0.185000X0.135000X-0.185000X0.135000X0.185000X-0.135000X0.185000X0*%
%ADD15RoundRect,0.200000X-0.200000X-0.275000X0.200000X-0.275000X0.200000X0.275000X-0.200000X0.275000X0*%
%ADD16R,0.600000X1.240000*%
%ADD17R,0.300000X1.240000*%
%ADD18RoundRect,0.225000X-0.225000X-0.250000X0.225000X-0.250000X0.225000X0.250000X-0.225000X0.250000X0*%
%ADD19RoundRect,0.225000X-0.335876X-0.017678X-0.017678X-0.335876X0.335876X0.017678X0.017678X0.335876X0*%
%ADD20RoundRect,0.140000X-0.219203X-0.021213X-0.021213X-0.219203X0.219203X0.021213X0.021213X0.219203X0*%
%ADD21RoundRect,0.218750X-0.218750X-0.256250X0.218750X-0.256250X0.218750X0.256250X-0.218750X0.256250X0*%
%ADD22RoundRect,0.150000X0.468458X-0.256326X-0.256326X0.468458X-0.468458X0.256326X0.256326X-0.468458X0*%
%ADD23RoundRect,0.250000X-0.650000X0.325000X-0.650000X-0.325000X0.650000X-0.325000X0.650000X0.325000X0*%
%ADD24RoundRect,0.200000X0.275000X-0.200000X0.275000X0.200000X-0.275000X0.200000X-0.275000X-0.200000X0*%
%ADD25RoundRect,0.147500X-0.226274X-0.017678X-0.017678X-0.226274X0.226274X0.017678X0.017678X0.226274X0*%
%ADD26R,0.800000X1.000000*%
%ADD27R,1.500000X0.700000*%
%ADD28RoundRect,0.200000X0.200000X0.275000X-0.200000X0.275000X-0.200000X-0.275000X0.200000X-0.275000X0*%
%ADD29RoundRect,0.250000X0.325000X0.650000X-0.325000X0.650000X-0.325000X-0.650000X0.325000X-0.650000X0*%
%ADD30RoundRect,0.140000X0.021213X-0.219203X0.219203X-0.021213X-0.021213X0.219203X-0.219203X0.021213X0*%
%ADD31RoundRect,0.225000X0.225000X0.375000X-0.225000X0.375000X-0.225000X-0.375000X0.225000X-0.375000X0*%
%ADD32RoundRect,0.150000X-0.587500X-0.150000X0.587500X-0.150000X0.587500X0.150000X-0.587500X0.150000X0*%
%ADD33RoundRect,0.218750X-0.218750X-0.381250X0.218750X-0.381250X0.218750X0.381250X-0.218750X0.381250X0*%
%ADD34R,2.500000X1.900000*%
%ADD35RoundRect,0.150000X-0.512500X-0.150000X0.512500X-0.150000X0.512500X0.150000X-0.512500X0.150000X0*%
%ADD36RoundRect,0.135000X0.185000X-0.135000X0.185000X0.135000X-0.185000X0.135000X-0.185000X-0.135000X0*%
%ADD37RoundRect,0.135000X0.035355X-0.226274X0.226274X-0.035355X-0.035355X0.226274X-0.226274X0.035355X0*%
%ADD38RoundRect,0.250000X-0.375000X-0.625000X0.375000X-0.625000X0.375000X0.625000X-0.375000X0.625000X0*%
%ADD39RoundRect,0.218750X0.218750X0.256250X-0.218750X0.256250X-0.218750X-0.256250X0.218750X-0.256250X0*%
%ADD40RotRect,1.400000X1.200000X225.000000*%
G04 APERTURE END LIST*
D10*
%TO.C,U1*%
X198638819Y-95935519D03*
X198285266Y-96289072D03*
X197931713Y-96642625D03*
X197578159Y-96996179D03*
X197224606Y-97349732D03*
X196871052Y-97703286D03*
X196517499Y-98056839D03*
X196163946Y-98410392D03*
X195810392Y-98763946D03*
X195456839Y-99117499D03*
X195103286Y-99471052D03*
X194749732Y-99824606D03*
X194396179Y-100178159D03*
X194042625Y-100531713D03*
X193689072Y-100885266D03*
X193335519Y-101238819D03*
D11*
X193335519Y-103961181D03*
X193689072Y-104314734D03*
X194042625Y-104668287D03*
X194396179Y-105021841D03*
X194749732Y-105375394D03*
X195103286Y-105728948D03*
X195456839Y-106082501D03*
X195810392Y-106436054D03*
X196163946Y-106789608D03*
X196517499Y-107143161D03*
X196871052Y-107496714D03*
X197224606Y-107850268D03*
X197578159Y-108203821D03*
X197931713Y-108557375D03*
X198285266Y-108910928D03*
X198638819Y-109264481D03*
D10*
X201361181Y-109264481D03*
X201714734Y-108910928D03*
X202068287Y-108557375D03*
X202421841Y-108203821D03*
X202775394Y-107850268D03*
X203128948Y-107496714D03*
X203482501Y-107143161D03*
X203836054Y-106789608D03*
X204189608Y-106436054D03*
X204543161Y-106082501D03*
X204896714Y-105728948D03*
X205250268Y-105375394D03*
X205603821Y-105021841D03*
X205957375Y-104668287D03*
X206310928Y-104314734D03*
X206664481Y-103961181D03*
D11*
X206664481Y-101238819D03*
X206310928Y-100885266D03*
X205957375Y-100531713D03*
X205603821Y-100178159D03*
X205250268Y-99824606D03*
X204896714Y-99471052D03*
X204543161Y-99117499D03*
X204189608Y-98763946D03*
X203836054Y-98410392D03*
X203482501Y-98056839D03*
X203128948Y-97703286D03*
X202775394Y-97349732D03*
X202421841Y-96996179D03*
X202068287Y-96642625D03*
X201714734Y-96289072D03*
X201361181Y-95935519D03*
%TD*%
D12*
%TO.C,C9*%
X192914790Y-99333167D03*
X192235968Y-98654345D03*
%TD*%
D13*
%TO.C,SW2*%
X186300000Y-69000000D03*
X189700000Y-69000000D03*
%TD*%
D14*
%TO.C,R12*%
X190190000Y-82000000D03*
X191210000Y-82000000D03*
%TD*%
D15*
%TO.C,R11*%
X191675000Y-72500000D03*
X193325000Y-72500000D03*
%TD*%
D16*
%TO.C,J8*%
X203200000Y-73725000D03*
X202400000Y-73725000D03*
D17*
X201250000Y-73725000D03*
X200250000Y-73725000D03*
X199750000Y-73725000D03*
X198750000Y-73725000D03*
D16*
X197600000Y-73725000D03*
X196800000Y-73725000D03*
X196800000Y-73725000D03*
X197600000Y-73725000D03*
D17*
X198250000Y-73725000D03*
X199250000Y-73725000D03*
X200750000Y-73725000D03*
X201750000Y-73725000D03*
D16*
X202400000Y-73725000D03*
X203200000Y-73725000D03*
%TD*%
D18*
%TO.C,C12*%
X206525000Y-76000000D03*
X208075000Y-76000000D03*
%TD*%
D19*
%TO.C,C7*%
X207937273Y-105587526D03*
X209033289Y-106683542D03*
%TD*%
D20*
%TO.C,C8*%
X202489016Y-94482415D03*
X203167838Y-95161237D03*
%TD*%
D21*
%TO.C,D4*%
X191712500Y-74000000D03*
X193287500Y-74000000D03*
%TD*%
%TO.C,D3*%
X191712500Y-69500000D03*
X193287500Y-69500000D03*
%TD*%
D15*
%TO.C,R2*%
X209975000Y-79400000D03*
X211625000Y-79400000D03*
%TD*%
D13*
%TO.C,SW4*%
X201700000Y-88100000D03*
X198300000Y-88100000D03*
%TD*%
D22*
%TO.C,U3*%
X208132583Y-110876085D03*
X208804334Y-110204334D03*
X209476085Y-109532583D03*
X207867417Y-107923915D03*
X207195666Y-108595666D03*
X206523915Y-109267417D03*
%TD*%
D23*
%TO.C,C13*%
X213500000Y-76125000D03*
X213500000Y-79075000D03*
%TD*%
D24*
%TO.C,R3*%
X203200000Y-82625000D03*
X203200000Y-80975000D03*
%TD*%
D25*
%TO.C,L2*%
X191525325Y-100913550D03*
X192211219Y-101599444D03*
%TD*%
D26*
%TO.C,SW1*%
X188050000Y-72650000D03*
X185840000Y-72650000D03*
X188050000Y-79950000D03*
X185840000Y-79950000D03*
D27*
X188700000Y-74050000D03*
X188700000Y-77050000D03*
X188700000Y-78550000D03*
%TD*%
D13*
%TO.C,SW3*%
X201700000Y-82800000D03*
X198300000Y-82800000D03*
%TD*%
D28*
%TO.C,R14*%
X196825000Y-84600000D03*
X195175000Y-84600000D03*
%TD*%
D29*
%TO.C,C15*%
X207775000Y-83800000D03*
X204825000Y-83800000D03*
%TD*%
D28*
%TO.C,R15*%
X192125000Y-83300000D03*
X190475000Y-83300000D03*
%TD*%
D30*
%TO.C,C3*%
X197539269Y-94454130D03*
X198218091Y-93775308D03*
%TD*%
D29*
%TO.C,C14*%
X207775000Y-86300000D03*
X204825000Y-86300000D03*
%TD*%
D19*
%TO.C,C5*%
X196093235Y-111421157D03*
X197189251Y-112517173D03*
%TD*%
D31*
%TO.C,D2*%
X207950000Y-81500000D03*
X204650000Y-81500000D03*
%TD*%
D20*
%TO.C,C2*%
X197539269Y-110745870D03*
X198218091Y-111424692D03*
%TD*%
D28*
%TO.C,R4*%
X204225000Y-79500000D03*
X202575000Y-79500000D03*
%TD*%
D32*
%TO.C,Q1*%
X206462500Y-67950000D03*
X206462500Y-69850000D03*
X208337500Y-68900000D03*
%TD*%
D33*
%TO.C,FB1*%
X209537500Y-76100000D03*
X211662500Y-76100000D03*
%TD*%
D19*
%TO.C,C1*%
X208997934Y-104526866D03*
X210093950Y-105622882D03*
%TD*%
D34*
%TO.C,L1*%
X211800000Y-81450000D03*
X211800000Y-85550000D03*
%TD*%
D35*
%TO.C,U2*%
X205862500Y-77550000D03*
X205862500Y-78500000D03*
X205862500Y-79450000D03*
X208137500Y-79450000D03*
X208137500Y-78500000D03*
X208137500Y-77550000D03*
%TD*%
D12*
%TO.C,C4*%
X192539411Y-105739411D03*
X191860589Y-105060589D03*
%TD*%
D36*
%TO.C,R8*%
X201250000Y-76510000D03*
X201250000Y-75490000D03*
%TD*%
D37*
%TO.C,R9*%
X194901761Y-97233059D03*
X195623009Y-96511811D03*
%TD*%
D38*
%TO.C,F1*%
X206500000Y-74100000D03*
X209300000Y-74100000D03*
%TD*%
D15*
%TO.C,R1*%
X209975000Y-77800000D03*
X211625000Y-77800000D03*
%TD*%
D12*
%TO.C,C10*%
X192207683Y-100040273D03*
X191528861Y-99361451D03*
%TD*%
D36*
%TO.C,R13*%
X198250000Y-76510000D03*
X198250000Y-75490000D03*
%TD*%
D21*
%TO.C,D5*%
X186712500Y-84800000D03*
X188287500Y-84800000D03*
%TD*%
D20*
%TO.C,C16*%
X195347238Y-92856069D03*
X196026060Y-93534891D03*
%TD*%
D15*
%TO.C,R5*%
X202575000Y-78000000D03*
X204225000Y-78000000D03*
%TD*%
D39*
%TO.C,D6*%
X192087500Y-84800000D03*
X190512500Y-84800000D03*
%TD*%
D30*
%TO.C,C6*%
X207615540Y-103469741D03*
X208294362Y-102790919D03*
%TD*%
D31*
%TO.C,D1*%
X209450000Y-71800000D03*
X206150000Y-71800000D03*
%TD*%
D15*
%TO.C,R10*%
X191675000Y-68000000D03*
X193325000Y-68000000D03*
%TD*%
D40*
%TO.C,Y1*%
X193812816Y-93867232D03*
X192257181Y-95422867D03*
X193459262Y-96624948D03*
X195014897Y-95069313D03*
%TD*%
D12*
%TO.C,C17*%
X192136972Y-97423978D03*
X191458150Y-96745156D03*
%TD*%
D28*
%TO.C,R7*%
X196825000Y-86200000D03*
X195175000Y-86200000D03*
%TD*%
D15*
%TO.C,R6*%
X186675000Y-83300000D03*
X188325000Y-83300000D03*
%TD*%
M02*
