%TF.GenerationSoftware,KiCad,Pcbnew,7.0.2*%
%TF.CreationDate,2023-06-14T20:26:51+10:00*%
%TF.ProjectId,STM32_Simple_Rev1.0,53544d33-325f-4536-996d-706c655f5265,rev?*%
%TF.SameCoordinates,Original*%
%TF.FileFunction,Legend,Bot*%
%TF.FilePolarity,Positive*%
%FSLAX46Y46*%
G04 Gerber Fmt 4.6, Leading zero omitted, Abs format (unit mm)*
G04 Created by KiCad (PCBNEW 7.0.2) date 2023-06-14 20:26:51*
%MOMM*%
%LPD*%
G01*
G04 APERTURE LIST*
%ADD10C,0.200000*%
%ADD11C,0.160000*%
G04 APERTURE END LIST*
D10*
X188400000Y-76100000D02*
X188700000Y-75700000D01*
X188400000Y-74600000D02*
X188400000Y-76100000D01*
X188400000Y-76100000D02*
X188100000Y-75700000D01*
D11*
X213733332Y-91462619D02*
X213114285Y-91462619D01*
X213114285Y-91462619D02*
X213447618Y-91843571D01*
X213447618Y-91843571D02*
X213304761Y-91843571D01*
X213304761Y-91843571D02*
X213209523Y-91891190D01*
X213209523Y-91891190D02*
X213161904Y-91938809D01*
X213161904Y-91938809D02*
X213114285Y-92034047D01*
X213114285Y-92034047D02*
X213114285Y-92272142D01*
X213114285Y-92272142D02*
X213161904Y-92367380D01*
X213161904Y-92367380D02*
X213209523Y-92415000D01*
X213209523Y-92415000D02*
X213304761Y-92462619D01*
X213304761Y-92462619D02*
X213590475Y-92462619D01*
X213590475Y-92462619D02*
X213685713Y-92415000D01*
X213685713Y-92415000D02*
X213733332Y-92367380D01*
X212257142Y-91462619D02*
X212447618Y-91462619D01*
X212447618Y-91462619D02*
X212542856Y-91510238D01*
X212542856Y-91510238D02*
X212590475Y-91557857D01*
X212590475Y-91557857D02*
X212685713Y-91700714D01*
X212685713Y-91700714D02*
X212733332Y-91891190D01*
X212733332Y-91891190D02*
X212733332Y-92272142D01*
X212733332Y-92272142D02*
X212685713Y-92367380D01*
X212685713Y-92367380D02*
X212638094Y-92415000D01*
X212638094Y-92415000D02*
X212542856Y-92462619D01*
X212542856Y-92462619D02*
X212352380Y-92462619D01*
X212352380Y-92462619D02*
X212257142Y-92415000D01*
X212257142Y-92415000D02*
X212209523Y-92367380D01*
X212209523Y-92367380D02*
X212161904Y-92272142D01*
X212161904Y-92272142D02*
X212161904Y-92034047D01*
X212161904Y-92034047D02*
X212209523Y-91938809D01*
X212209523Y-91938809D02*
X212257142Y-91891190D01*
X212257142Y-91891190D02*
X212352380Y-91843571D01*
X212352380Y-91843571D02*
X212542856Y-91843571D01*
X212542856Y-91843571D02*
X212638094Y-91891190D01*
X212638094Y-91891190D02*
X212685713Y-91938809D01*
X212685713Y-91938809D02*
X212733332Y-92034047D01*
X211019047Y-91415000D02*
X211876189Y-92700714D01*
X210685713Y-92462619D02*
X210685713Y-91462619D01*
X210257142Y-91557857D02*
X210209523Y-91510238D01*
X210209523Y-91510238D02*
X210114285Y-91462619D01*
X210114285Y-91462619D02*
X209876190Y-91462619D01*
X209876190Y-91462619D02*
X209780952Y-91510238D01*
X209780952Y-91510238D02*
X209733333Y-91557857D01*
X209733333Y-91557857D02*
X209685714Y-91653095D01*
X209685714Y-91653095D02*
X209685714Y-91748333D01*
X209685714Y-91748333D02*
X209733333Y-91891190D01*
X209733333Y-91891190D02*
X210304761Y-92462619D01*
X210304761Y-92462619D02*
X209685714Y-92462619D01*
X208685714Y-92367380D02*
X208733333Y-92415000D01*
X208733333Y-92415000D02*
X208876190Y-92462619D01*
X208876190Y-92462619D02*
X208971428Y-92462619D01*
X208971428Y-92462619D02*
X209114285Y-92415000D01*
X209114285Y-92415000D02*
X209209523Y-92319761D01*
X209209523Y-92319761D02*
X209257142Y-92224523D01*
X209257142Y-92224523D02*
X209304761Y-92034047D01*
X209304761Y-92034047D02*
X209304761Y-91891190D01*
X209304761Y-91891190D02*
X209257142Y-91700714D01*
X209257142Y-91700714D02*
X209209523Y-91605476D01*
X209209523Y-91605476D02*
X209114285Y-91510238D01*
X209114285Y-91510238D02*
X208971428Y-91462619D01*
X208971428Y-91462619D02*
X208876190Y-91462619D01*
X208876190Y-91462619D02*
X208733333Y-91510238D01*
X208733333Y-91510238D02*
X208685714Y-91557857D01*
X208495238Y-92557857D02*
X207733333Y-92557857D01*
X207542856Y-92415000D02*
X207399999Y-92462619D01*
X207399999Y-92462619D02*
X207161904Y-92462619D01*
X207161904Y-92462619D02*
X207066666Y-92415000D01*
X207066666Y-92415000D02*
X207019047Y-92367380D01*
X207019047Y-92367380D02*
X206971428Y-92272142D01*
X206971428Y-92272142D02*
X206971428Y-92176904D01*
X206971428Y-92176904D02*
X207019047Y-92081666D01*
X207019047Y-92081666D02*
X207066666Y-92034047D01*
X207066666Y-92034047D02*
X207161904Y-91986428D01*
X207161904Y-91986428D02*
X207352380Y-91938809D01*
X207352380Y-91938809D02*
X207447618Y-91891190D01*
X207447618Y-91891190D02*
X207495237Y-91843571D01*
X207495237Y-91843571D02*
X207542856Y-91748333D01*
X207542856Y-91748333D02*
X207542856Y-91653095D01*
X207542856Y-91653095D02*
X207495237Y-91557857D01*
X207495237Y-91557857D02*
X207447618Y-91510238D01*
X207447618Y-91510238D02*
X207352380Y-91462619D01*
X207352380Y-91462619D02*
X207114285Y-91462619D01*
X207114285Y-91462619D02*
X206971428Y-91510238D01*
X206542856Y-92462619D02*
X206542856Y-91462619D01*
X206542856Y-91462619D02*
X206304761Y-91462619D01*
X206304761Y-91462619D02*
X206161904Y-91510238D01*
X206161904Y-91510238D02*
X206066666Y-91605476D01*
X206066666Y-91605476D02*
X206019047Y-91700714D01*
X206019047Y-91700714D02*
X205971428Y-91891190D01*
X205971428Y-91891190D02*
X205971428Y-92034047D01*
X205971428Y-92034047D02*
X206019047Y-92224523D01*
X206019047Y-92224523D02*
X206066666Y-92319761D01*
X206066666Y-92319761D02*
X206161904Y-92415000D01*
X206161904Y-92415000D02*
X206304761Y-92462619D01*
X206304761Y-92462619D02*
X206542856Y-92462619D01*
X205590475Y-92176904D02*
X205114285Y-92176904D01*
X205685713Y-92462619D02*
X205352380Y-91462619D01*
X205352380Y-91462619D02*
X205019047Y-92462619D01*
X186409524Y-93795952D02*
X186409524Y-94462619D01*
X186647619Y-93415000D02*
X186885714Y-94129285D01*
X186885714Y-94129285D02*
X186266667Y-94129285D01*
X213733332Y-93462619D02*
X213114285Y-93462619D01*
X213114285Y-93462619D02*
X213447618Y-93843571D01*
X213447618Y-93843571D02*
X213304761Y-93843571D01*
X213304761Y-93843571D02*
X213209523Y-93891190D01*
X213209523Y-93891190D02*
X213161904Y-93938809D01*
X213161904Y-93938809D02*
X213114285Y-94034047D01*
X213114285Y-94034047D02*
X213114285Y-94272142D01*
X213114285Y-94272142D02*
X213161904Y-94367380D01*
X213161904Y-94367380D02*
X213209523Y-94415000D01*
X213209523Y-94415000D02*
X213304761Y-94462619D01*
X213304761Y-94462619D02*
X213590475Y-94462619D01*
X213590475Y-94462619D02*
X213685713Y-94415000D01*
X213685713Y-94415000D02*
X213733332Y-94367380D01*
X212209523Y-93462619D02*
X212685713Y-93462619D01*
X212685713Y-93462619D02*
X212733332Y-93938809D01*
X212733332Y-93938809D02*
X212685713Y-93891190D01*
X212685713Y-93891190D02*
X212590475Y-93843571D01*
X212590475Y-93843571D02*
X212352380Y-93843571D01*
X212352380Y-93843571D02*
X212257142Y-93891190D01*
X212257142Y-93891190D02*
X212209523Y-93938809D01*
X212209523Y-93938809D02*
X212161904Y-94034047D01*
X212161904Y-94034047D02*
X212161904Y-94272142D01*
X212161904Y-94272142D02*
X212209523Y-94367380D01*
X212209523Y-94367380D02*
X212257142Y-94415000D01*
X212257142Y-94415000D02*
X212352380Y-94462619D01*
X212352380Y-94462619D02*
X212590475Y-94462619D01*
X212590475Y-94462619D02*
X212685713Y-94415000D01*
X212685713Y-94415000D02*
X212733332Y-94367380D01*
X211019047Y-93415000D02*
X211876189Y-94700714D01*
X210685713Y-94462619D02*
X210685713Y-93462619D01*
X210257142Y-93557857D02*
X210209523Y-93510238D01*
X210209523Y-93510238D02*
X210114285Y-93462619D01*
X210114285Y-93462619D02*
X209876190Y-93462619D01*
X209876190Y-93462619D02*
X209780952Y-93510238D01*
X209780952Y-93510238D02*
X209733333Y-93557857D01*
X209733333Y-93557857D02*
X209685714Y-93653095D01*
X209685714Y-93653095D02*
X209685714Y-93748333D01*
X209685714Y-93748333D02*
X209733333Y-93891190D01*
X209733333Y-93891190D02*
X210304761Y-94462619D01*
X210304761Y-94462619D02*
X209685714Y-94462619D01*
X208685714Y-94367380D02*
X208733333Y-94415000D01*
X208733333Y-94415000D02*
X208876190Y-94462619D01*
X208876190Y-94462619D02*
X208971428Y-94462619D01*
X208971428Y-94462619D02*
X209114285Y-94415000D01*
X209114285Y-94415000D02*
X209209523Y-94319761D01*
X209209523Y-94319761D02*
X209257142Y-94224523D01*
X209257142Y-94224523D02*
X209304761Y-94034047D01*
X209304761Y-94034047D02*
X209304761Y-93891190D01*
X209304761Y-93891190D02*
X209257142Y-93700714D01*
X209257142Y-93700714D02*
X209209523Y-93605476D01*
X209209523Y-93605476D02*
X209114285Y-93510238D01*
X209114285Y-93510238D02*
X208971428Y-93462619D01*
X208971428Y-93462619D02*
X208876190Y-93462619D01*
X208876190Y-93462619D02*
X208733333Y-93510238D01*
X208733333Y-93510238D02*
X208685714Y-93557857D01*
X208495238Y-94557857D02*
X207733333Y-94557857D01*
X207542856Y-94415000D02*
X207399999Y-94462619D01*
X207399999Y-94462619D02*
X207161904Y-94462619D01*
X207161904Y-94462619D02*
X207066666Y-94415000D01*
X207066666Y-94415000D02*
X207019047Y-94367380D01*
X207019047Y-94367380D02*
X206971428Y-94272142D01*
X206971428Y-94272142D02*
X206971428Y-94176904D01*
X206971428Y-94176904D02*
X207019047Y-94081666D01*
X207019047Y-94081666D02*
X207066666Y-94034047D01*
X207066666Y-94034047D02*
X207161904Y-93986428D01*
X207161904Y-93986428D02*
X207352380Y-93938809D01*
X207352380Y-93938809D02*
X207447618Y-93891190D01*
X207447618Y-93891190D02*
X207495237Y-93843571D01*
X207495237Y-93843571D02*
X207542856Y-93748333D01*
X207542856Y-93748333D02*
X207542856Y-93653095D01*
X207542856Y-93653095D02*
X207495237Y-93557857D01*
X207495237Y-93557857D02*
X207447618Y-93510238D01*
X207447618Y-93510238D02*
X207352380Y-93462619D01*
X207352380Y-93462619D02*
X207114285Y-93462619D01*
X207114285Y-93462619D02*
X206971428Y-93510238D01*
X205971428Y-94367380D02*
X206019047Y-94415000D01*
X206019047Y-94415000D02*
X206161904Y-94462619D01*
X206161904Y-94462619D02*
X206257142Y-94462619D01*
X206257142Y-94462619D02*
X206399999Y-94415000D01*
X206399999Y-94415000D02*
X206495237Y-94319761D01*
X206495237Y-94319761D02*
X206542856Y-94224523D01*
X206542856Y-94224523D02*
X206590475Y-94034047D01*
X206590475Y-94034047D02*
X206590475Y-93891190D01*
X206590475Y-93891190D02*
X206542856Y-93700714D01*
X206542856Y-93700714D02*
X206495237Y-93605476D01*
X206495237Y-93605476D02*
X206399999Y-93510238D01*
X206399999Y-93510238D02*
X206257142Y-93462619D01*
X206257142Y-93462619D02*
X206161904Y-93462619D01*
X206161904Y-93462619D02*
X206019047Y-93510238D01*
X206019047Y-93510238D02*
X205971428Y-93557857D01*
X205066666Y-94462619D02*
X205542856Y-94462619D01*
X205542856Y-94462619D02*
X205542856Y-93462619D01*
X187266667Y-108462619D02*
X187838095Y-108462619D01*
X187552381Y-108462619D02*
X187552381Y-107462619D01*
X187552381Y-107462619D02*
X187647619Y-107605476D01*
X187647619Y-107605476D02*
X187742857Y-107700714D01*
X187742857Y-107700714D02*
X187838095Y-107748333D01*
X186314286Y-108462619D02*
X186885714Y-108462619D01*
X186600000Y-108462619D02*
X186600000Y-107462619D01*
X186600000Y-107462619D02*
X186695238Y-107605476D01*
X186695238Y-107605476D02*
X186790476Y-107700714D01*
X186790476Y-107700714D02*
X186885714Y-107748333D01*
X213780951Y-113462619D02*
X213447618Y-114462619D01*
X213447618Y-114462619D02*
X213114285Y-113462619D01*
X212209523Y-114367380D02*
X212257142Y-114415000D01*
X212257142Y-114415000D02*
X212399999Y-114462619D01*
X212399999Y-114462619D02*
X212495237Y-114462619D01*
X212495237Y-114462619D02*
X212638094Y-114415000D01*
X212638094Y-114415000D02*
X212733332Y-114319761D01*
X212733332Y-114319761D02*
X212780951Y-114224523D01*
X212780951Y-114224523D02*
X212828570Y-114034047D01*
X212828570Y-114034047D02*
X212828570Y-113891190D01*
X212828570Y-113891190D02*
X212780951Y-113700714D01*
X212780951Y-113700714D02*
X212733332Y-113605476D01*
X212733332Y-113605476D02*
X212638094Y-113510238D01*
X212638094Y-113510238D02*
X212495237Y-113462619D01*
X212495237Y-113462619D02*
X212399999Y-113462619D01*
X212399999Y-113462619D02*
X212257142Y-113510238D01*
X212257142Y-113510238D02*
X212209523Y-113557857D01*
X211209523Y-114367380D02*
X211257142Y-114415000D01*
X211257142Y-114415000D02*
X211399999Y-114462619D01*
X211399999Y-114462619D02*
X211495237Y-114462619D01*
X211495237Y-114462619D02*
X211638094Y-114415000D01*
X211638094Y-114415000D02*
X211733332Y-114319761D01*
X211733332Y-114319761D02*
X211780951Y-114224523D01*
X211780951Y-114224523D02*
X211828570Y-114034047D01*
X211828570Y-114034047D02*
X211828570Y-113891190D01*
X211828570Y-113891190D02*
X211780951Y-113700714D01*
X211780951Y-113700714D02*
X211733332Y-113605476D01*
X211733332Y-113605476D02*
X211638094Y-113510238D01*
X211638094Y-113510238D02*
X211495237Y-113462619D01*
X211495237Y-113462619D02*
X211399999Y-113462619D01*
X211399999Y-113462619D02*
X211257142Y-113510238D01*
X211257142Y-113510238D02*
X211209523Y-113557857D01*
X187266667Y-110462619D02*
X187838095Y-110462619D01*
X187552381Y-110462619D02*
X187552381Y-109462619D01*
X187552381Y-109462619D02*
X187647619Y-109605476D01*
X187647619Y-109605476D02*
X187742857Y-109700714D01*
X187742857Y-109700714D02*
X187838095Y-109748333D01*
X186885714Y-109557857D02*
X186838095Y-109510238D01*
X186838095Y-109510238D02*
X186742857Y-109462619D01*
X186742857Y-109462619D02*
X186504762Y-109462619D01*
X186504762Y-109462619D02*
X186409524Y-109510238D01*
X186409524Y-109510238D02*
X186361905Y-109557857D01*
X186361905Y-109557857D02*
X186314286Y-109653095D01*
X186314286Y-109653095D02*
X186314286Y-109748333D01*
X186314286Y-109748333D02*
X186361905Y-109891190D01*
X186361905Y-109891190D02*
X186933333Y-110462619D01*
X186933333Y-110462619D02*
X186314286Y-110462619D01*
X213733332Y-103462619D02*
X213114285Y-103462619D01*
X213114285Y-103462619D02*
X213447618Y-103843571D01*
X213447618Y-103843571D02*
X213304761Y-103843571D01*
X213304761Y-103843571D02*
X213209523Y-103891190D01*
X213209523Y-103891190D02*
X213161904Y-103938809D01*
X213161904Y-103938809D02*
X213114285Y-104034047D01*
X213114285Y-104034047D02*
X213114285Y-104272142D01*
X213114285Y-104272142D02*
X213161904Y-104367380D01*
X213161904Y-104367380D02*
X213209523Y-104415000D01*
X213209523Y-104415000D02*
X213304761Y-104462619D01*
X213304761Y-104462619D02*
X213590475Y-104462619D01*
X213590475Y-104462619D02*
X213685713Y-104415000D01*
X213685713Y-104415000D02*
X213733332Y-104367380D01*
X212495237Y-103462619D02*
X212399999Y-103462619D01*
X212399999Y-103462619D02*
X212304761Y-103510238D01*
X212304761Y-103510238D02*
X212257142Y-103557857D01*
X212257142Y-103557857D02*
X212209523Y-103653095D01*
X212209523Y-103653095D02*
X212161904Y-103843571D01*
X212161904Y-103843571D02*
X212161904Y-104081666D01*
X212161904Y-104081666D02*
X212209523Y-104272142D01*
X212209523Y-104272142D02*
X212257142Y-104367380D01*
X212257142Y-104367380D02*
X212304761Y-104415000D01*
X212304761Y-104415000D02*
X212399999Y-104462619D01*
X212399999Y-104462619D02*
X212495237Y-104462619D01*
X212495237Y-104462619D02*
X212590475Y-104415000D01*
X212590475Y-104415000D02*
X212638094Y-104367380D01*
X212638094Y-104367380D02*
X212685713Y-104272142D01*
X212685713Y-104272142D02*
X212733332Y-104081666D01*
X212733332Y-104081666D02*
X212733332Y-103843571D01*
X212733332Y-103843571D02*
X212685713Y-103653095D01*
X212685713Y-103653095D02*
X212638094Y-103557857D01*
X212638094Y-103557857D02*
X212590475Y-103510238D01*
X212590475Y-103510238D02*
X212495237Y-103462619D01*
D10*
X214209523Y-69000000D02*
X214066666Y-69047619D01*
X214066666Y-69047619D02*
X213828571Y-69047619D01*
X213828571Y-69047619D02*
X213733333Y-69000000D01*
X213733333Y-69000000D02*
X213685714Y-68952380D01*
X213685714Y-68952380D02*
X213638095Y-68857142D01*
X213638095Y-68857142D02*
X213638095Y-68761904D01*
X213638095Y-68761904D02*
X213685714Y-68666666D01*
X213685714Y-68666666D02*
X213733333Y-68619047D01*
X213733333Y-68619047D02*
X213828571Y-68571428D01*
X213828571Y-68571428D02*
X214019047Y-68523809D01*
X214019047Y-68523809D02*
X214114285Y-68476190D01*
X214114285Y-68476190D02*
X214161904Y-68428571D01*
X214161904Y-68428571D02*
X214209523Y-68333333D01*
X214209523Y-68333333D02*
X214209523Y-68238095D01*
X214209523Y-68238095D02*
X214161904Y-68142857D01*
X214161904Y-68142857D02*
X214114285Y-68095238D01*
X214114285Y-68095238D02*
X214019047Y-68047619D01*
X214019047Y-68047619D02*
X213780952Y-68047619D01*
X213780952Y-68047619D02*
X213638095Y-68095238D01*
X213352380Y-68047619D02*
X212780952Y-68047619D01*
X213066666Y-69047619D02*
X213066666Y-68047619D01*
X212447618Y-69047619D02*
X212447618Y-68047619D01*
X212447618Y-68047619D02*
X212114285Y-68761904D01*
X212114285Y-68761904D02*
X211780952Y-68047619D01*
X211780952Y-68047619D02*
X211780952Y-69047619D01*
X211399999Y-68047619D02*
X210780952Y-68047619D01*
X210780952Y-68047619D02*
X211114285Y-68428571D01*
X211114285Y-68428571D02*
X210971428Y-68428571D01*
X210971428Y-68428571D02*
X210876190Y-68476190D01*
X210876190Y-68476190D02*
X210828571Y-68523809D01*
X210828571Y-68523809D02*
X210780952Y-68619047D01*
X210780952Y-68619047D02*
X210780952Y-68857142D01*
X210780952Y-68857142D02*
X210828571Y-68952380D01*
X210828571Y-68952380D02*
X210876190Y-69000000D01*
X210876190Y-69000000D02*
X210971428Y-69047619D01*
X210971428Y-69047619D02*
X211257142Y-69047619D01*
X211257142Y-69047619D02*
X211352380Y-69000000D01*
X211352380Y-69000000D02*
X211399999Y-68952380D01*
X210399999Y-68142857D02*
X210352380Y-68095238D01*
X210352380Y-68095238D02*
X210257142Y-68047619D01*
X210257142Y-68047619D02*
X210019047Y-68047619D01*
X210019047Y-68047619D02*
X209923809Y-68095238D01*
X209923809Y-68095238D02*
X209876190Y-68142857D01*
X209876190Y-68142857D02*
X209828571Y-68238095D01*
X209828571Y-68238095D02*
X209828571Y-68333333D01*
X209828571Y-68333333D02*
X209876190Y-68476190D01*
X209876190Y-68476190D02*
X210447618Y-69047619D01*
X210447618Y-69047619D02*
X209828571Y-69047619D01*
X209638095Y-69142857D02*
X208876190Y-69142857D01*
X208638094Y-69047619D02*
X208638094Y-68047619D01*
X208638094Y-68047619D02*
X208399999Y-68047619D01*
X208399999Y-68047619D02*
X208257142Y-68095238D01*
X208257142Y-68095238D02*
X208161904Y-68190476D01*
X208161904Y-68190476D02*
X208114285Y-68285714D01*
X208114285Y-68285714D02*
X208066666Y-68476190D01*
X208066666Y-68476190D02*
X208066666Y-68619047D01*
X208066666Y-68619047D02*
X208114285Y-68809523D01*
X208114285Y-68809523D02*
X208161904Y-68904761D01*
X208161904Y-68904761D02*
X208257142Y-69000000D01*
X208257142Y-69000000D02*
X208399999Y-69047619D01*
X208399999Y-69047619D02*
X208638094Y-69047619D01*
X207638094Y-68523809D02*
X207304761Y-68523809D01*
X207161904Y-69047619D02*
X207638094Y-69047619D01*
X207638094Y-69047619D02*
X207638094Y-68047619D01*
X207638094Y-68047619D02*
X207161904Y-68047619D01*
X206876189Y-68047619D02*
X206542856Y-69047619D01*
X206542856Y-69047619D02*
X206209523Y-68047619D01*
X213590476Y-70667619D02*
X213923809Y-70191428D01*
X214161904Y-70667619D02*
X214161904Y-69667619D01*
X214161904Y-69667619D02*
X213780952Y-69667619D01*
X213780952Y-69667619D02*
X213685714Y-69715238D01*
X213685714Y-69715238D02*
X213638095Y-69762857D01*
X213638095Y-69762857D02*
X213590476Y-69858095D01*
X213590476Y-69858095D02*
X213590476Y-70000952D01*
X213590476Y-70000952D02*
X213638095Y-70096190D01*
X213638095Y-70096190D02*
X213685714Y-70143809D01*
X213685714Y-70143809D02*
X213780952Y-70191428D01*
X213780952Y-70191428D02*
X214161904Y-70191428D01*
X213161904Y-70143809D02*
X212828571Y-70143809D01*
X212685714Y-70667619D02*
X213161904Y-70667619D01*
X213161904Y-70667619D02*
X213161904Y-69667619D01*
X213161904Y-69667619D02*
X212685714Y-69667619D01*
X212399999Y-69667619D02*
X212066666Y-70667619D01*
X212066666Y-70667619D02*
X211733333Y-69667619D01*
X211638095Y-70762857D02*
X210876190Y-70762857D01*
X210114285Y-70667619D02*
X210685713Y-70667619D01*
X210399999Y-70667619D02*
X210399999Y-69667619D01*
X210399999Y-69667619D02*
X210495237Y-69810476D01*
X210495237Y-69810476D02*
X210590475Y-69905714D01*
X210590475Y-69905714D02*
X210685713Y-69953333D01*
X209685713Y-70572380D02*
X209638094Y-70620000D01*
X209638094Y-70620000D02*
X209685713Y-70667619D01*
X209685713Y-70667619D02*
X209733332Y-70620000D01*
X209733332Y-70620000D02*
X209685713Y-70572380D01*
X209685713Y-70572380D02*
X209685713Y-70667619D01*
X209019047Y-69667619D02*
X208923809Y-69667619D01*
X208923809Y-69667619D02*
X208828571Y-69715238D01*
X208828571Y-69715238D02*
X208780952Y-69762857D01*
X208780952Y-69762857D02*
X208733333Y-69858095D01*
X208733333Y-69858095D02*
X208685714Y-70048571D01*
X208685714Y-70048571D02*
X208685714Y-70286666D01*
X208685714Y-70286666D02*
X208733333Y-70477142D01*
X208733333Y-70477142D02*
X208780952Y-70572380D01*
X208780952Y-70572380D02*
X208828571Y-70620000D01*
X208828571Y-70620000D02*
X208923809Y-70667619D01*
X208923809Y-70667619D02*
X209019047Y-70667619D01*
X209019047Y-70667619D02*
X209114285Y-70620000D01*
X209114285Y-70620000D02*
X209161904Y-70572380D01*
X209161904Y-70572380D02*
X209209523Y-70477142D01*
X209209523Y-70477142D02*
X209257142Y-70286666D01*
X209257142Y-70286666D02*
X209257142Y-70048571D01*
X209257142Y-70048571D02*
X209209523Y-69858095D01*
X209209523Y-69858095D02*
X209161904Y-69762857D01*
X209161904Y-69762857D02*
X209114285Y-69715238D01*
X209114285Y-69715238D02*
X209019047Y-69667619D01*
X213685714Y-71287619D02*
X214161904Y-71287619D01*
X214161904Y-71287619D02*
X214209523Y-71763809D01*
X214209523Y-71763809D02*
X214161904Y-71716190D01*
X214161904Y-71716190D02*
X214066666Y-71668571D01*
X214066666Y-71668571D02*
X213828571Y-71668571D01*
X213828571Y-71668571D02*
X213733333Y-71716190D01*
X213733333Y-71716190D02*
X213685714Y-71763809D01*
X213685714Y-71763809D02*
X213638095Y-71859047D01*
X213638095Y-71859047D02*
X213638095Y-72097142D01*
X213638095Y-72097142D02*
X213685714Y-72192380D01*
X213685714Y-72192380D02*
X213733333Y-72240000D01*
X213733333Y-72240000D02*
X213828571Y-72287619D01*
X213828571Y-72287619D02*
X214066666Y-72287619D01*
X214066666Y-72287619D02*
X214161904Y-72240000D01*
X214161904Y-72240000D02*
X214209523Y-72192380D01*
X213352380Y-71287619D02*
X213019047Y-72287619D01*
X213019047Y-72287619D02*
X212685714Y-71287619D01*
X212352380Y-71906666D02*
X211590476Y-71906666D01*
X210590476Y-72287619D02*
X211161904Y-72287619D01*
X210876190Y-72287619D02*
X210876190Y-71287619D01*
X210876190Y-71287619D02*
X210971428Y-71430476D01*
X210971428Y-71430476D02*
X211066666Y-71525714D01*
X211066666Y-71525714D02*
X211161904Y-71573333D01*
X210209523Y-71382857D02*
X210161904Y-71335238D01*
X210161904Y-71335238D02*
X210066666Y-71287619D01*
X210066666Y-71287619D02*
X209828571Y-71287619D01*
X209828571Y-71287619D02*
X209733333Y-71335238D01*
X209733333Y-71335238D02*
X209685714Y-71382857D01*
X209685714Y-71382857D02*
X209638095Y-71478095D01*
X209638095Y-71478095D02*
X209638095Y-71573333D01*
X209638095Y-71573333D02*
X209685714Y-71716190D01*
X209685714Y-71716190D02*
X210257142Y-72287619D01*
X210257142Y-72287619D02*
X209638095Y-72287619D01*
X209352380Y-71287619D02*
X209019047Y-72287619D01*
X209019047Y-72287619D02*
X208685714Y-71287619D01*
X207590475Y-72287619D02*
X207590475Y-71287619D01*
X207114285Y-72287619D02*
X207114285Y-71287619D01*
X207114285Y-71287619D02*
X206542857Y-72287619D01*
X206542857Y-72287619D02*
X206542857Y-71287619D01*
D11*
X200557857Y-115161904D02*
X200510238Y-115209523D01*
X200510238Y-115209523D02*
X200462619Y-115304761D01*
X200462619Y-115304761D02*
X200462619Y-115542856D01*
X200462619Y-115542856D02*
X200510238Y-115638094D01*
X200510238Y-115638094D02*
X200557857Y-115685713D01*
X200557857Y-115685713D02*
X200653095Y-115733332D01*
X200653095Y-115733332D02*
X200748333Y-115733332D01*
X200748333Y-115733332D02*
X200891190Y-115685713D01*
X200891190Y-115685713D02*
X201462619Y-115114285D01*
X201462619Y-115114285D02*
X201462619Y-115733332D01*
X200462619Y-116352380D02*
X200462619Y-116447618D01*
X200462619Y-116447618D02*
X200510238Y-116542856D01*
X200510238Y-116542856D02*
X200557857Y-116590475D01*
X200557857Y-116590475D02*
X200653095Y-116638094D01*
X200653095Y-116638094D02*
X200843571Y-116685713D01*
X200843571Y-116685713D02*
X201081666Y-116685713D01*
X201081666Y-116685713D02*
X201272142Y-116638094D01*
X201272142Y-116638094D02*
X201367380Y-116590475D01*
X201367380Y-116590475D02*
X201415000Y-116542856D01*
X201415000Y-116542856D02*
X201462619Y-116447618D01*
X201462619Y-116447618D02*
X201462619Y-116352380D01*
X201462619Y-116352380D02*
X201415000Y-116257142D01*
X201415000Y-116257142D02*
X201367380Y-116209523D01*
X201367380Y-116209523D02*
X201272142Y-116161904D01*
X201272142Y-116161904D02*
X201081666Y-116114285D01*
X201081666Y-116114285D02*
X200843571Y-116114285D01*
X200843571Y-116114285D02*
X200653095Y-116161904D01*
X200653095Y-116161904D02*
X200557857Y-116209523D01*
X200557857Y-116209523D02*
X200510238Y-116257142D01*
X200510238Y-116257142D02*
X200462619Y-116352380D01*
X198462619Y-107780951D02*
X199272142Y-107780951D01*
X199272142Y-107780951D02*
X199367380Y-107828570D01*
X199367380Y-107828570D02*
X199415000Y-107876189D01*
X199415000Y-107876189D02*
X199462619Y-107971427D01*
X199462619Y-107971427D02*
X199462619Y-108161903D01*
X199462619Y-108161903D02*
X199415000Y-108257141D01*
X199415000Y-108257141D02*
X199367380Y-108304760D01*
X199367380Y-108304760D02*
X199272142Y-108352379D01*
X199272142Y-108352379D02*
X198462619Y-108352379D01*
X199176904Y-108780951D02*
X199176904Y-109257141D01*
X199462619Y-108685713D02*
X198462619Y-109019046D01*
X198462619Y-109019046D02*
X199462619Y-109352379D01*
X199462619Y-110257141D02*
X198986428Y-109923808D01*
X199462619Y-109685713D02*
X198462619Y-109685713D01*
X198462619Y-109685713D02*
X198462619Y-110066665D01*
X198462619Y-110066665D02*
X198510238Y-110161903D01*
X198510238Y-110161903D02*
X198557857Y-110209522D01*
X198557857Y-110209522D02*
X198653095Y-110257141D01*
X198653095Y-110257141D02*
X198795952Y-110257141D01*
X198795952Y-110257141D02*
X198891190Y-110209522D01*
X198891190Y-110209522D02*
X198938809Y-110161903D01*
X198938809Y-110161903D02*
X198986428Y-110066665D01*
X198986428Y-110066665D02*
X198986428Y-109685713D01*
X198462619Y-110542856D02*
X198462619Y-111114284D01*
X199462619Y-110828570D02*
X198462619Y-110828570D01*
X199557857Y-111209523D02*
X199557857Y-111971427D01*
X199462619Y-112780951D02*
X198986428Y-112447618D01*
X199462619Y-112209523D02*
X198462619Y-112209523D01*
X198462619Y-112209523D02*
X198462619Y-112590475D01*
X198462619Y-112590475D02*
X198510238Y-112685713D01*
X198510238Y-112685713D02*
X198557857Y-112733332D01*
X198557857Y-112733332D02*
X198653095Y-112780951D01*
X198653095Y-112780951D02*
X198795952Y-112780951D01*
X198795952Y-112780951D02*
X198891190Y-112733332D01*
X198891190Y-112733332D02*
X198938809Y-112685713D01*
X198938809Y-112685713D02*
X198986428Y-112590475D01*
X198986428Y-112590475D02*
X198986428Y-112209523D01*
X198462619Y-113114285D02*
X199462619Y-113780951D01*
X198462619Y-113780951D02*
X199462619Y-113114285D01*
X198415000Y-114876189D02*
X199700714Y-114019047D01*
X199462619Y-115733332D02*
X199462619Y-115161904D01*
X199462619Y-115447618D02*
X198462619Y-115447618D01*
X198462619Y-115447618D02*
X198605476Y-115352380D01*
X198605476Y-115352380D02*
X198700714Y-115257142D01*
X198700714Y-115257142D02*
X198748333Y-115161904D01*
X199462619Y-116209523D02*
X199462619Y-116399999D01*
X199462619Y-116399999D02*
X199415000Y-116495237D01*
X199415000Y-116495237D02*
X199367380Y-116542856D01*
X199367380Y-116542856D02*
X199224523Y-116638094D01*
X199224523Y-116638094D02*
X199034047Y-116685713D01*
X199034047Y-116685713D02*
X198653095Y-116685713D01*
X198653095Y-116685713D02*
X198557857Y-116638094D01*
X198557857Y-116638094D02*
X198510238Y-116590475D01*
X198510238Y-116590475D02*
X198462619Y-116495237D01*
X198462619Y-116495237D02*
X198462619Y-116304761D01*
X198462619Y-116304761D02*
X198510238Y-116209523D01*
X198510238Y-116209523D02*
X198557857Y-116161904D01*
X198557857Y-116161904D02*
X198653095Y-116114285D01*
X198653095Y-116114285D02*
X198891190Y-116114285D01*
X198891190Y-116114285D02*
X198986428Y-116161904D01*
X198986428Y-116161904D02*
X199034047Y-116209523D01*
X199034047Y-116209523D02*
X199081666Y-116304761D01*
X199081666Y-116304761D02*
X199081666Y-116495237D01*
X199081666Y-116495237D02*
X199034047Y-116590475D01*
X199034047Y-116590475D02*
X198986428Y-116638094D01*
X198986428Y-116638094D02*
X198891190Y-116685713D01*
X193462619Y-115733332D02*
X193462619Y-115161904D01*
X193462619Y-115447618D02*
X192462619Y-115447618D01*
X192462619Y-115447618D02*
X192605476Y-115352380D01*
X192605476Y-115352380D02*
X192700714Y-115257142D01*
X192700714Y-115257142D02*
X192748333Y-115161904D01*
X192462619Y-116590475D02*
X192462619Y-116399999D01*
X192462619Y-116399999D02*
X192510238Y-116304761D01*
X192510238Y-116304761D02*
X192557857Y-116257142D01*
X192557857Y-116257142D02*
X192700714Y-116161904D01*
X192700714Y-116161904D02*
X192891190Y-116114285D01*
X192891190Y-116114285D02*
X193272142Y-116114285D01*
X193272142Y-116114285D02*
X193367380Y-116161904D01*
X193367380Y-116161904D02*
X193415000Y-116209523D01*
X193415000Y-116209523D02*
X193462619Y-116304761D01*
X193462619Y-116304761D02*
X193462619Y-116495237D01*
X193462619Y-116495237D02*
X193415000Y-116590475D01*
X193415000Y-116590475D02*
X193367380Y-116638094D01*
X193367380Y-116638094D02*
X193272142Y-116685713D01*
X193272142Y-116685713D02*
X193034047Y-116685713D01*
X193034047Y-116685713D02*
X192938809Y-116638094D01*
X192938809Y-116638094D02*
X192891190Y-116590475D01*
X192891190Y-116590475D02*
X192843571Y-116495237D01*
X192843571Y-116495237D02*
X192843571Y-116304761D01*
X192843571Y-116304761D02*
X192891190Y-116209523D01*
X192891190Y-116209523D02*
X192938809Y-116161904D01*
X192938809Y-116161904D02*
X193034047Y-116114285D01*
X206557857Y-115161904D02*
X206510238Y-115209523D01*
X206510238Y-115209523D02*
X206462619Y-115304761D01*
X206462619Y-115304761D02*
X206462619Y-115542856D01*
X206462619Y-115542856D02*
X206510238Y-115638094D01*
X206510238Y-115638094D02*
X206557857Y-115685713D01*
X206557857Y-115685713D02*
X206653095Y-115733332D01*
X206653095Y-115733332D02*
X206748333Y-115733332D01*
X206748333Y-115733332D02*
X206891190Y-115685713D01*
X206891190Y-115685713D02*
X207462619Y-115114285D01*
X207462619Y-115114285D02*
X207462619Y-115733332D01*
X206462619Y-116066666D02*
X206462619Y-116685713D01*
X206462619Y-116685713D02*
X206843571Y-116352380D01*
X206843571Y-116352380D02*
X206843571Y-116495237D01*
X206843571Y-116495237D02*
X206891190Y-116590475D01*
X206891190Y-116590475D02*
X206938809Y-116638094D01*
X206938809Y-116638094D02*
X207034047Y-116685713D01*
X207034047Y-116685713D02*
X207272142Y-116685713D01*
X207272142Y-116685713D02*
X207367380Y-116638094D01*
X207367380Y-116638094D02*
X207415000Y-116590475D01*
X207415000Y-116590475D02*
X207462619Y-116495237D01*
X207462619Y-116495237D02*
X207462619Y-116209523D01*
X207462619Y-116209523D02*
X207415000Y-116114285D01*
X207415000Y-116114285D02*
X207367380Y-116066666D01*
X186361905Y-95462619D02*
X186838095Y-95462619D01*
X186838095Y-95462619D02*
X186885714Y-95938809D01*
X186885714Y-95938809D02*
X186838095Y-95891190D01*
X186838095Y-95891190D02*
X186742857Y-95843571D01*
X186742857Y-95843571D02*
X186504762Y-95843571D01*
X186504762Y-95843571D02*
X186409524Y-95891190D01*
X186409524Y-95891190D02*
X186361905Y-95938809D01*
X186361905Y-95938809D02*
X186314286Y-96034047D01*
X186314286Y-96034047D02*
X186314286Y-96272142D01*
X186314286Y-96272142D02*
X186361905Y-96367380D01*
X186361905Y-96367380D02*
X186409524Y-96415000D01*
X186409524Y-96415000D02*
X186504762Y-96462619D01*
X186504762Y-96462619D02*
X186742857Y-96462619D01*
X186742857Y-96462619D02*
X186838095Y-96415000D01*
X186838095Y-96415000D02*
X186885714Y-96367380D01*
X202557857Y-115161904D02*
X202510238Y-115209523D01*
X202510238Y-115209523D02*
X202462619Y-115304761D01*
X202462619Y-115304761D02*
X202462619Y-115542856D01*
X202462619Y-115542856D02*
X202510238Y-115638094D01*
X202510238Y-115638094D02*
X202557857Y-115685713D01*
X202557857Y-115685713D02*
X202653095Y-115733332D01*
X202653095Y-115733332D02*
X202748333Y-115733332D01*
X202748333Y-115733332D02*
X202891190Y-115685713D01*
X202891190Y-115685713D02*
X203462619Y-115114285D01*
X203462619Y-115114285D02*
X203462619Y-115733332D01*
X203462619Y-116685713D02*
X203462619Y-116114285D01*
X203462619Y-116399999D02*
X202462619Y-116399999D01*
X202462619Y-116399999D02*
X202605476Y-116304761D01*
X202605476Y-116304761D02*
X202700714Y-116209523D01*
X202700714Y-116209523D02*
X202748333Y-116114285D01*
X187462619Y-115733332D02*
X187462619Y-115161904D01*
X187462619Y-115447618D02*
X186462619Y-115447618D01*
X186462619Y-115447618D02*
X186605476Y-115352380D01*
X186605476Y-115352380D02*
X186700714Y-115257142D01*
X186700714Y-115257142D02*
X186748333Y-115161904D01*
X186462619Y-116066666D02*
X186462619Y-116685713D01*
X186462619Y-116685713D02*
X186843571Y-116352380D01*
X186843571Y-116352380D02*
X186843571Y-116495237D01*
X186843571Y-116495237D02*
X186891190Y-116590475D01*
X186891190Y-116590475D02*
X186938809Y-116638094D01*
X186938809Y-116638094D02*
X187034047Y-116685713D01*
X187034047Y-116685713D02*
X187272142Y-116685713D01*
X187272142Y-116685713D02*
X187367380Y-116638094D01*
X187367380Y-116638094D02*
X187415000Y-116590475D01*
X187415000Y-116590475D02*
X187462619Y-116495237D01*
X187462619Y-116495237D02*
X187462619Y-116209523D01*
X187462619Y-116209523D02*
X187415000Y-116114285D01*
X187415000Y-116114285D02*
X187367380Y-116066666D01*
X213685713Y-105557857D02*
X213638094Y-105510238D01*
X213638094Y-105510238D02*
X213542856Y-105462619D01*
X213542856Y-105462619D02*
X213304761Y-105462619D01*
X213304761Y-105462619D02*
X213209523Y-105510238D01*
X213209523Y-105510238D02*
X213161904Y-105557857D01*
X213161904Y-105557857D02*
X213114285Y-105653095D01*
X213114285Y-105653095D02*
X213114285Y-105748333D01*
X213114285Y-105748333D02*
X213161904Y-105891190D01*
X213161904Y-105891190D02*
X213733332Y-106462619D01*
X213733332Y-106462619D02*
X213114285Y-106462619D01*
X212638094Y-106462619D02*
X212447618Y-106462619D01*
X212447618Y-106462619D02*
X212352380Y-106415000D01*
X212352380Y-106415000D02*
X212304761Y-106367380D01*
X212304761Y-106367380D02*
X212209523Y-106224523D01*
X212209523Y-106224523D02*
X212161904Y-106034047D01*
X212161904Y-106034047D02*
X212161904Y-105653095D01*
X212161904Y-105653095D02*
X212209523Y-105557857D01*
X212209523Y-105557857D02*
X212257142Y-105510238D01*
X212257142Y-105510238D02*
X212352380Y-105462619D01*
X212352380Y-105462619D02*
X212542856Y-105462619D01*
X212542856Y-105462619D02*
X212638094Y-105510238D01*
X212638094Y-105510238D02*
X212685713Y-105557857D01*
X212685713Y-105557857D02*
X212733332Y-105653095D01*
X212733332Y-105653095D02*
X212733332Y-105891190D01*
X212733332Y-105891190D02*
X212685713Y-105986428D01*
X212685713Y-105986428D02*
X212638094Y-106034047D01*
X212638094Y-106034047D02*
X212542856Y-106081666D01*
X212542856Y-106081666D02*
X212352380Y-106081666D01*
X212352380Y-106081666D02*
X212257142Y-106034047D01*
X212257142Y-106034047D02*
X212209523Y-105986428D01*
X212209523Y-105986428D02*
X212161904Y-105891190D01*
X213733332Y-101462619D02*
X213114285Y-101462619D01*
X213114285Y-101462619D02*
X213447618Y-101843571D01*
X213447618Y-101843571D02*
X213304761Y-101843571D01*
X213304761Y-101843571D02*
X213209523Y-101891190D01*
X213209523Y-101891190D02*
X213161904Y-101938809D01*
X213161904Y-101938809D02*
X213114285Y-102034047D01*
X213114285Y-102034047D02*
X213114285Y-102272142D01*
X213114285Y-102272142D02*
X213161904Y-102367380D01*
X213161904Y-102367380D02*
X213209523Y-102415000D01*
X213209523Y-102415000D02*
X213304761Y-102462619D01*
X213304761Y-102462619D02*
X213590475Y-102462619D01*
X213590475Y-102462619D02*
X213685713Y-102415000D01*
X213685713Y-102415000D02*
X213733332Y-102367380D01*
X212161904Y-102462619D02*
X212733332Y-102462619D01*
X212447618Y-102462619D02*
X212447618Y-101462619D01*
X212447618Y-101462619D02*
X212542856Y-101605476D01*
X212542856Y-101605476D02*
X212638094Y-101700714D01*
X212638094Y-101700714D02*
X212733332Y-101748333D01*
X210557857Y-115161904D02*
X210510238Y-115209523D01*
X210510238Y-115209523D02*
X210462619Y-115304761D01*
X210462619Y-115304761D02*
X210462619Y-115542856D01*
X210462619Y-115542856D02*
X210510238Y-115638094D01*
X210510238Y-115638094D02*
X210557857Y-115685713D01*
X210557857Y-115685713D02*
X210653095Y-115733332D01*
X210653095Y-115733332D02*
X210748333Y-115733332D01*
X210748333Y-115733332D02*
X210891190Y-115685713D01*
X210891190Y-115685713D02*
X211462619Y-115114285D01*
X211462619Y-115114285D02*
X211462619Y-115733332D01*
X210462619Y-116638094D02*
X210462619Y-116161904D01*
X210462619Y-116161904D02*
X210938809Y-116114285D01*
X210938809Y-116114285D02*
X210891190Y-116161904D01*
X210891190Y-116161904D02*
X210843571Y-116257142D01*
X210843571Y-116257142D02*
X210843571Y-116495237D01*
X210843571Y-116495237D02*
X210891190Y-116590475D01*
X210891190Y-116590475D02*
X210938809Y-116638094D01*
X210938809Y-116638094D02*
X211034047Y-116685713D01*
X211034047Y-116685713D02*
X211272142Y-116685713D01*
X211272142Y-116685713D02*
X211367380Y-116638094D01*
X211367380Y-116638094D02*
X211415000Y-116590475D01*
X211415000Y-116590475D02*
X211462619Y-116495237D01*
X211462619Y-116495237D02*
X211462619Y-116257142D01*
X211462619Y-116257142D02*
X211415000Y-116161904D01*
X211415000Y-116161904D02*
X211367380Y-116114285D01*
X186314286Y-88462619D02*
X186885714Y-88462619D01*
X186600000Y-88462619D02*
X186600000Y-87462619D01*
X186600000Y-87462619D02*
X186695238Y-87605476D01*
X186695238Y-87605476D02*
X186790476Y-87700714D01*
X186790476Y-87700714D02*
X186885714Y-87748333D01*
X213733332Y-97462619D02*
X213114285Y-97462619D01*
X213114285Y-97462619D02*
X213447618Y-97843571D01*
X213447618Y-97843571D02*
X213304761Y-97843571D01*
X213304761Y-97843571D02*
X213209523Y-97891190D01*
X213209523Y-97891190D02*
X213161904Y-97938809D01*
X213161904Y-97938809D02*
X213114285Y-98034047D01*
X213114285Y-98034047D02*
X213114285Y-98272142D01*
X213114285Y-98272142D02*
X213161904Y-98367380D01*
X213161904Y-98367380D02*
X213209523Y-98415000D01*
X213209523Y-98415000D02*
X213304761Y-98462619D01*
X213304761Y-98462619D02*
X213590475Y-98462619D01*
X213590475Y-98462619D02*
X213685713Y-98415000D01*
X213685713Y-98415000D02*
X213733332Y-98367380D01*
X212780951Y-97462619D02*
X212161904Y-97462619D01*
X212161904Y-97462619D02*
X212495237Y-97843571D01*
X212495237Y-97843571D02*
X212352380Y-97843571D01*
X212352380Y-97843571D02*
X212257142Y-97891190D01*
X212257142Y-97891190D02*
X212209523Y-97938809D01*
X212209523Y-97938809D02*
X212161904Y-98034047D01*
X212161904Y-98034047D02*
X212161904Y-98272142D01*
X212161904Y-98272142D02*
X212209523Y-98367380D01*
X212209523Y-98367380D02*
X212257142Y-98415000D01*
X212257142Y-98415000D02*
X212352380Y-98462619D01*
X212352380Y-98462619D02*
X212638094Y-98462619D01*
X212638094Y-98462619D02*
X212733332Y-98415000D01*
X212733332Y-98415000D02*
X212780951Y-98367380D01*
X213685713Y-109557857D02*
X213638094Y-109510238D01*
X213638094Y-109510238D02*
X213542856Y-109462619D01*
X213542856Y-109462619D02*
X213304761Y-109462619D01*
X213304761Y-109462619D02*
X213209523Y-109510238D01*
X213209523Y-109510238D02*
X213161904Y-109557857D01*
X213161904Y-109557857D02*
X213114285Y-109653095D01*
X213114285Y-109653095D02*
X213114285Y-109748333D01*
X213114285Y-109748333D02*
X213161904Y-109891190D01*
X213161904Y-109891190D02*
X213733332Y-110462619D01*
X213733332Y-110462619D02*
X213114285Y-110462619D01*
X212780951Y-109462619D02*
X212114285Y-109462619D01*
X212114285Y-109462619D02*
X212542856Y-110462619D01*
X213685713Y-107557857D02*
X213638094Y-107510238D01*
X213638094Y-107510238D02*
X213542856Y-107462619D01*
X213542856Y-107462619D02*
X213304761Y-107462619D01*
X213304761Y-107462619D02*
X213209523Y-107510238D01*
X213209523Y-107510238D02*
X213161904Y-107557857D01*
X213161904Y-107557857D02*
X213114285Y-107653095D01*
X213114285Y-107653095D02*
X213114285Y-107748333D01*
X213114285Y-107748333D02*
X213161904Y-107891190D01*
X213161904Y-107891190D02*
X213733332Y-108462619D01*
X213733332Y-108462619D02*
X213114285Y-108462619D01*
X212542856Y-107891190D02*
X212638094Y-107843571D01*
X212638094Y-107843571D02*
X212685713Y-107795952D01*
X212685713Y-107795952D02*
X212733332Y-107700714D01*
X212733332Y-107700714D02*
X212733332Y-107653095D01*
X212733332Y-107653095D02*
X212685713Y-107557857D01*
X212685713Y-107557857D02*
X212638094Y-107510238D01*
X212638094Y-107510238D02*
X212542856Y-107462619D01*
X212542856Y-107462619D02*
X212352380Y-107462619D01*
X212352380Y-107462619D02*
X212257142Y-107510238D01*
X212257142Y-107510238D02*
X212209523Y-107557857D01*
X212209523Y-107557857D02*
X212161904Y-107653095D01*
X212161904Y-107653095D02*
X212161904Y-107700714D01*
X212161904Y-107700714D02*
X212209523Y-107795952D01*
X212209523Y-107795952D02*
X212257142Y-107843571D01*
X212257142Y-107843571D02*
X212352380Y-107891190D01*
X212352380Y-107891190D02*
X212542856Y-107891190D01*
X212542856Y-107891190D02*
X212638094Y-107938809D01*
X212638094Y-107938809D02*
X212685713Y-107986428D01*
X212685713Y-107986428D02*
X212733332Y-108081666D01*
X212733332Y-108081666D02*
X212733332Y-108272142D01*
X212733332Y-108272142D02*
X212685713Y-108367380D01*
X212685713Y-108367380D02*
X212638094Y-108415000D01*
X212638094Y-108415000D02*
X212542856Y-108462619D01*
X212542856Y-108462619D02*
X212352380Y-108462619D01*
X212352380Y-108462619D02*
X212257142Y-108415000D01*
X212257142Y-108415000D02*
X212209523Y-108367380D01*
X212209523Y-108367380D02*
X212161904Y-108272142D01*
X212161904Y-108272142D02*
X212161904Y-108081666D01*
X212161904Y-108081666D02*
X212209523Y-107986428D01*
X212209523Y-107986428D02*
X212257142Y-107938809D01*
X212257142Y-107938809D02*
X212352380Y-107891190D01*
X213733332Y-89462619D02*
X213114285Y-89462619D01*
X213114285Y-89462619D02*
X213447618Y-89843571D01*
X213447618Y-89843571D02*
X213304761Y-89843571D01*
X213304761Y-89843571D02*
X213209523Y-89891190D01*
X213209523Y-89891190D02*
X213161904Y-89938809D01*
X213161904Y-89938809D02*
X213114285Y-90034047D01*
X213114285Y-90034047D02*
X213114285Y-90272142D01*
X213114285Y-90272142D02*
X213161904Y-90367380D01*
X213161904Y-90367380D02*
X213209523Y-90415000D01*
X213209523Y-90415000D02*
X213304761Y-90462619D01*
X213304761Y-90462619D02*
X213590475Y-90462619D01*
X213590475Y-90462619D02*
X213685713Y-90415000D01*
X213685713Y-90415000D02*
X213733332Y-90367380D01*
X212780951Y-89462619D02*
X212114285Y-89462619D01*
X212114285Y-89462619D02*
X212542856Y-90462619D01*
X211019047Y-89415000D02*
X211876189Y-90700714D01*
X210114285Y-90367380D02*
X210161904Y-90415000D01*
X210161904Y-90415000D02*
X210304761Y-90462619D01*
X210304761Y-90462619D02*
X210399999Y-90462619D01*
X210399999Y-90462619D02*
X210542856Y-90415000D01*
X210542856Y-90415000D02*
X210638094Y-90319761D01*
X210638094Y-90319761D02*
X210685713Y-90224523D01*
X210685713Y-90224523D02*
X210733332Y-90034047D01*
X210733332Y-90034047D02*
X210733332Y-89891190D01*
X210733332Y-89891190D02*
X210685713Y-89700714D01*
X210685713Y-89700714D02*
X210638094Y-89605476D01*
X210638094Y-89605476D02*
X210542856Y-89510238D01*
X210542856Y-89510238D02*
X210399999Y-89462619D01*
X210399999Y-89462619D02*
X210304761Y-89462619D01*
X210304761Y-89462619D02*
X210161904Y-89510238D01*
X210161904Y-89510238D02*
X210114285Y-89557857D01*
X209733332Y-90176904D02*
X209257142Y-90176904D01*
X209828570Y-90462619D02*
X209495237Y-89462619D01*
X209495237Y-89462619D02*
X209161904Y-90462619D01*
X208828570Y-90462619D02*
X208828570Y-89462619D01*
X208828570Y-89462619D02*
X208257142Y-90462619D01*
X208257142Y-90462619D02*
X208257142Y-89462619D01*
X208019047Y-90557857D02*
X207257142Y-90557857D01*
X206447618Y-90462619D02*
X206780951Y-89986428D01*
X207019046Y-90462619D02*
X207019046Y-89462619D01*
X207019046Y-89462619D02*
X206638094Y-89462619D01*
X206638094Y-89462619D02*
X206542856Y-89510238D01*
X206542856Y-89510238D02*
X206495237Y-89557857D01*
X206495237Y-89557857D02*
X206447618Y-89653095D01*
X206447618Y-89653095D02*
X206447618Y-89795952D01*
X206447618Y-89795952D02*
X206495237Y-89891190D01*
X206495237Y-89891190D02*
X206542856Y-89938809D01*
X206542856Y-89938809D02*
X206638094Y-89986428D01*
X206638094Y-89986428D02*
X207019046Y-89986428D01*
X206114284Y-89462619D02*
X205447618Y-90462619D01*
X205447618Y-89462619D02*
X206114284Y-90462619D01*
X187266667Y-106462619D02*
X187838095Y-106462619D01*
X187552381Y-106462619D02*
X187552381Y-105462619D01*
X187552381Y-105462619D02*
X187647619Y-105605476D01*
X187647619Y-105605476D02*
X187742857Y-105700714D01*
X187742857Y-105700714D02*
X187838095Y-105748333D01*
X186647619Y-105462619D02*
X186552381Y-105462619D01*
X186552381Y-105462619D02*
X186457143Y-105510238D01*
X186457143Y-105510238D02*
X186409524Y-105557857D01*
X186409524Y-105557857D02*
X186361905Y-105653095D01*
X186361905Y-105653095D02*
X186314286Y-105843571D01*
X186314286Y-105843571D02*
X186314286Y-106081666D01*
X186314286Y-106081666D02*
X186361905Y-106272142D01*
X186361905Y-106272142D02*
X186409524Y-106367380D01*
X186409524Y-106367380D02*
X186457143Y-106415000D01*
X186457143Y-106415000D02*
X186552381Y-106462619D01*
X186552381Y-106462619D02*
X186647619Y-106462619D01*
X186647619Y-106462619D02*
X186742857Y-106415000D01*
X186742857Y-106415000D02*
X186790476Y-106367380D01*
X186790476Y-106367380D02*
X186838095Y-106272142D01*
X186838095Y-106272142D02*
X186885714Y-106081666D01*
X186885714Y-106081666D02*
X186885714Y-105843571D01*
X186885714Y-105843571D02*
X186838095Y-105653095D01*
X186838095Y-105653095D02*
X186790476Y-105557857D01*
X186790476Y-105557857D02*
X186742857Y-105510238D01*
X186742857Y-105510238D02*
X186647619Y-105462619D01*
X186409524Y-97462619D02*
X186600000Y-97462619D01*
X186600000Y-97462619D02*
X186695238Y-97510238D01*
X186695238Y-97510238D02*
X186742857Y-97557857D01*
X186742857Y-97557857D02*
X186838095Y-97700714D01*
X186838095Y-97700714D02*
X186885714Y-97891190D01*
X186885714Y-97891190D02*
X186885714Y-98272142D01*
X186885714Y-98272142D02*
X186838095Y-98367380D01*
X186838095Y-98367380D02*
X186790476Y-98415000D01*
X186790476Y-98415000D02*
X186695238Y-98462619D01*
X186695238Y-98462619D02*
X186504762Y-98462619D01*
X186504762Y-98462619D02*
X186409524Y-98415000D01*
X186409524Y-98415000D02*
X186361905Y-98367380D01*
X186361905Y-98367380D02*
X186314286Y-98272142D01*
X186314286Y-98272142D02*
X186314286Y-98034047D01*
X186314286Y-98034047D02*
X186361905Y-97938809D01*
X186361905Y-97938809D02*
X186409524Y-97891190D01*
X186409524Y-97891190D02*
X186504762Y-97843571D01*
X186504762Y-97843571D02*
X186695238Y-97843571D01*
X186695238Y-97843571D02*
X186790476Y-97891190D01*
X186790476Y-97891190D02*
X186838095Y-97938809D01*
X186838095Y-97938809D02*
X186885714Y-98034047D01*
D10*
X188957142Y-73423809D02*
X188814285Y-73471428D01*
X188814285Y-73471428D02*
X188766666Y-73519047D01*
X188766666Y-73519047D02*
X188719047Y-73614285D01*
X188719047Y-73614285D02*
X188719047Y-73757142D01*
X188719047Y-73757142D02*
X188766666Y-73852380D01*
X188766666Y-73852380D02*
X188814285Y-73900000D01*
X188814285Y-73900000D02*
X188909523Y-73947619D01*
X188909523Y-73947619D02*
X189290475Y-73947619D01*
X189290475Y-73947619D02*
X189290475Y-72947619D01*
X189290475Y-72947619D02*
X188957142Y-72947619D01*
X188957142Y-72947619D02*
X188861904Y-72995238D01*
X188861904Y-72995238D02*
X188814285Y-73042857D01*
X188814285Y-73042857D02*
X188766666Y-73138095D01*
X188766666Y-73138095D02*
X188766666Y-73233333D01*
X188766666Y-73233333D02*
X188814285Y-73328571D01*
X188814285Y-73328571D02*
X188861904Y-73376190D01*
X188861904Y-73376190D02*
X188957142Y-73423809D01*
X188957142Y-73423809D02*
X189290475Y-73423809D01*
X188099999Y-72947619D02*
X187909523Y-72947619D01*
X187909523Y-72947619D02*
X187814285Y-72995238D01*
X187814285Y-72995238D02*
X187719047Y-73090476D01*
X187719047Y-73090476D02*
X187671428Y-73280952D01*
X187671428Y-73280952D02*
X187671428Y-73614285D01*
X187671428Y-73614285D02*
X187719047Y-73804761D01*
X187719047Y-73804761D02*
X187814285Y-73900000D01*
X187814285Y-73900000D02*
X187909523Y-73947619D01*
X187909523Y-73947619D02*
X188099999Y-73947619D01*
X188099999Y-73947619D02*
X188195237Y-73900000D01*
X188195237Y-73900000D02*
X188290475Y-73804761D01*
X188290475Y-73804761D02*
X188338094Y-73614285D01*
X188338094Y-73614285D02*
X188338094Y-73280952D01*
X188338094Y-73280952D02*
X188290475Y-73090476D01*
X188290475Y-73090476D02*
X188195237Y-72995238D01*
X188195237Y-72995238D02*
X188099999Y-72947619D01*
X187052380Y-72947619D02*
X186861904Y-72947619D01*
X186861904Y-72947619D02*
X186766666Y-72995238D01*
X186766666Y-72995238D02*
X186671428Y-73090476D01*
X186671428Y-73090476D02*
X186623809Y-73280952D01*
X186623809Y-73280952D02*
X186623809Y-73614285D01*
X186623809Y-73614285D02*
X186671428Y-73804761D01*
X186671428Y-73804761D02*
X186766666Y-73900000D01*
X186766666Y-73900000D02*
X186861904Y-73947619D01*
X186861904Y-73947619D02*
X187052380Y-73947619D01*
X187052380Y-73947619D02*
X187147618Y-73900000D01*
X187147618Y-73900000D02*
X187242856Y-73804761D01*
X187242856Y-73804761D02*
X187290475Y-73614285D01*
X187290475Y-73614285D02*
X187290475Y-73280952D01*
X187290475Y-73280952D02*
X187242856Y-73090476D01*
X187242856Y-73090476D02*
X187147618Y-72995238D01*
X187147618Y-72995238D02*
X187052380Y-72947619D01*
X186338094Y-72947619D02*
X185766666Y-72947619D01*
X186052380Y-73947619D02*
X186052380Y-72947619D01*
D11*
X195462619Y-115733332D02*
X195462619Y-115161904D01*
X195462619Y-115447618D02*
X194462619Y-115447618D01*
X194462619Y-115447618D02*
X194605476Y-115352380D01*
X194605476Y-115352380D02*
X194700714Y-115257142D01*
X194700714Y-115257142D02*
X194748333Y-115161904D01*
X194462619Y-116066666D02*
X194462619Y-116733332D01*
X194462619Y-116733332D02*
X195462619Y-116304761D01*
X191462619Y-115733332D02*
X191462619Y-115161904D01*
X191462619Y-115447618D02*
X190462619Y-115447618D01*
X190462619Y-115447618D02*
X190605476Y-115352380D01*
X190605476Y-115352380D02*
X190700714Y-115257142D01*
X190700714Y-115257142D02*
X190748333Y-115161904D01*
X190462619Y-116638094D02*
X190462619Y-116161904D01*
X190462619Y-116161904D02*
X190938809Y-116114285D01*
X190938809Y-116114285D02*
X190891190Y-116161904D01*
X190891190Y-116161904D02*
X190843571Y-116257142D01*
X190843571Y-116257142D02*
X190843571Y-116495237D01*
X190843571Y-116495237D02*
X190891190Y-116590475D01*
X190891190Y-116590475D02*
X190938809Y-116638094D01*
X190938809Y-116638094D02*
X191034047Y-116685713D01*
X191034047Y-116685713D02*
X191272142Y-116685713D01*
X191272142Y-116685713D02*
X191367380Y-116638094D01*
X191367380Y-116638094D02*
X191415000Y-116590475D01*
X191415000Y-116590475D02*
X191462619Y-116495237D01*
X191462619Y-116495237D02*
X191462619Y-116257142D01*
X191462619Y-116257142D02*
X191415000Y-116161904D01*
X191415000Y-116161904D02*
X191367380Y-116114285D01*
X213733332Y-95462619D02*
X213114285Y-95462619D01*
X213114285Y-95462619D02*
X213447618Y-95843571D01*
X213447618Y-95843571D02*
X213304761Y-95843571D01*
X213304761Y-95843571D02*
X213209523Y-95891190D01*
X213209523Y-95891190D02*
X213161904Y-95938809D01*
X213161904Y-95938809D02*
X213114285Y-96034047D01*
X213114285Y-96034047D02*
X213114285Y-96272142D01*
X213114285Y-96272142D02*
X213161904Y-96367380D01*
X213161904Y-96367380D02*
X213209523Y-96415000D01*
X213209523Y-96415000D02*
X213304761Y-96462619D01*
X213304761Y-96462619D02*
X213590475Y-96462619D01*
X213590475Y-96462619D02*
X213685713Y-96415000D01*
X213685713Y-96415000D02*
X213733332Y-96367380D01*
X212257142Y-95795952D02*
X212257142Y-96462619D01*
X212495237Y-95415000D02*
X212733332Y-96129285D01*
X212733332Y-96129285D02*
X212114285Y-96129285D01*
X186933333Y-91462619D02*
X186314286Y-91462619D01*
X186314286Y-91462619D02*
X186647619Y-91843571D01*
X186647619Y-91843571D02*
X186504762Y-91843571D01*
X186504762Y-91843571D02*
X186409524Y-91891190D01*
X186409524Y-91891190D02*
X186361905Y-91938809D01*
X186361905Y-91938809D02*
X186314286Y-92034047D01*
X186314286Y-92034047D02*
X186314286Y-92272142D01*
X186314286Y-92272142D02*
X186361905Y-92367380D01*
X186361905Y-92367380D02*
X186409524Y-92415000D01*
X186409524Y-92415000D02*
X186504762Y-92462619D01*
X186504762Y-92462619D02*
X186790476Y-92462619D01*
X186790476Y-92462619D02*
X186885714Y-92415000D01*
X186885714Y-92415000D02*
X186933333Y-92367380D01*
X189219047Y-113462619D02*
X188600000Y-113462619D01*
X188600000Y-113462619D02*
X188933333Y-113843571D01*
X188933333Y-113843571D02*
X188790476Y-113843571D01*
X188790476Y-113843571D02*
X188695238Y-113891190D01*
X188695238Y-113891190D02*
X188647619Y-113938809D01*
X188647619Y-113938809D02*
X188600000Y-114034047D01*
X188600000Y-114034047D02*
X188600000Y-114272142D01*
X188600000Y-114272142D02*
X188647619Y-114367380D01*
X188647619Y-114367380D02*
X188695238Y-114415000D01*
X188695238Y-114415000D02*
X188790476Y-114462619D01*
X188790476Y-114462619D02*
X189076190Y-114462619D01*
X189076190Y-114462619D02*
X189171428Y-114415000D01*
X189171428Y-114415000D02*
X189219047Y-114367380D01*
X188171428Y-114367380D02*
X188123809Y-114415000D01*
X188123809Y-114415000D02*
X188171428Y-114462619D01*
X188171428Y-114462619D02*
X188219047Y-114415000D01*
X188219047Y-114415000D02*
X188171428Y-114367380D01*
X188171428Y-114367380D02*
X188171428Y-114462619D01*
X187790476Y-113462619D02*
X187171429Y-113462619D01*
X187171429Y-113462619D02*
X187504762Y-113843571D01*
X187504762Y-113843571D02*
X187361905Y-113843571D01*
X187361905Y-113843571D02*
X187266667Y-113891190D01*
X187266667Y-113891190D02*
X187219048Y-113938809D01*
X187219048Y-113938809D02*
X187171429Y-114034047D01*
X187171429Y-114034047D02*
X187171429Y-114272142D01*
X187171429Y-114272142D02*
X187219048Y-114367380D01*
X187219048Y-114367380D02*
X187266667Y-114415000D01*
X187266667Y-114415000D02*
X187361905Y-114462619D01*
X187361905Y-114462619D02*
X187647619Y-114462619D01*
X187647619Y-114462619D02*
X187742857Y-114415000D01*
X187742857Y-114415000D02*
X187790476Y-114367380D01*
X186885714Y-113462619D02*
X186552381Y-114462619D01*
X186552381Y-114462619D02*
X186219048Y-113462619D01*
X186695238Y-101891190D02*
X186790476Y-101843571D01*
X186790476Y-101843571D02*
X186838095Y-101795952D01*
X186838095Y-101795952D02*
X186885714Y-101700714D01*
X186885714Y-101700714D02*
X186885714Y-101653095D01*
X186885714Y-101653095D02*
X186838095Y-101557857D01*
X186838095Y-101557857D02*
X186790476Y-101510238D01*
X186790476Y-101510238D02*
X186695238Y-101462619D01*
X186695238Y-101462619D02*
X186504762Y-101462619D01*
X186504762Y-101462619D02*
X186409524Y-101510238D01*
X186409524Y-101510238D02*
X186361905Y-101557857D01*
X186361905Y-101557857D02*
X186314286Y-101653095D01*
X186314286Y-101653095D02*
X186314286Y-101700714D01*
X186314286Y-101700714D02*
X186361905Y-101795952D01*
X186361905Y-101795952D02*
X186409524Y-101843571D01*
X186409524Y-101843571D02*
X186504762Y-101891190D01*
X186504762Y-101891190D02*
X186695238Y-101891190D01*
X186695238Y-101891190D02*
X186790476Y-101938809D01*
X186790476Y-101938809D02*
X186838095Y-101986428D01*
X186838095Y-101986428D02*
X186885714Y-102081666D01*
X186885714Y-102081666D02*
X186885714Y-102272142D01*
X186885714Y-102272142D02*
X186838095Y-102367380D01*
X186838095Y-102367380D02*
X186790476Y-102415000D01*
X186790476Y-102415000D02*
X186695238Y-102462619D01*
X186695238Y-102462619D02*
X186504762Y-102462619D01*
X186504762Y-102462619D02*
X186409524Y-102415000D01*
X186409524Y-102415000D02*
X186361905Y-102367380D01*
X186361905Y-102367380D02*
X186314286Y-102272142D01*
X186314286Y-102272142D02*
X186314286Y-102081666D01*
X186314286Y-102081666D02*
X186361905Y-101986428D01*
X186361905Y-101986428D02*
X186409524Y-101938809D01*
X186409524Y-101938809D02*
X186504762Y-101891190D01*
X213733332Y-99462619D02*
X213114285Y-99462619D01*
X213114285Y-99462619D02*
X213447618Y-99843571D01*
X213447618Y-99843571D02*
X213304761Y-99843571D01*
X213304761Y-99843571D02*
X213209523Y-99891190D01*
X213209523Y-99891190D02*
X213161904Y-99938809D01*
X213161904Y-99938809D02*
X213114285Y-100034047D01*
X213114285Y-100034047D02*
X213114285Y-100272142D01*
X213114285Y-100272142D02*
X213161904Y-100367380D01*
X213161904Y-100367380D02*
X213209523Y-100415000D01*
X213209523Y-100415000D02*
X213304761Y-100462619D01*
X213304761Y-100462619D02*
X213590475Y-100462619D01*
X213590475Y-100462619D02*
X213685713Y-100415000D01*
X213685713Y-100415000D02*
X213733332Y-100367380D01*
X212733332Y-99557857D02*
X212685713Y-99510238D01*
X212685713Y-99510238D02*
X212590475Y-99462619D01*
X212590475Y-99462619D02*
X212352380Y-99462619D01*
X212352380Y-99462619D02*
X212257142Y-99510238D01*
X212257142Y-99510238D02*
X212209523Y-99557857D01*
X212209523Y-99557857D02*
X212161904Y-99653095D01*
X212161904Y-99653095D02*
X212161904Y-99748333D01*
X212161904Y-99748333D02*
X212209523Y-99891190D01*
X212209523Y-99891190D02*
X212780951Y-100462619D01*
X212780951Y-100462619D02*
X212161904Y-100462619D01*
X213114285Y-111510238D02*
X213209523Y-111462619D01*
X213209523Y-111462619D02*
X213352380Y-111462619D01*
X213352380Y-111462619D02*
X213495237Y-111510238D01*
X213495237Y-111510238D02*
X213590475Y-111605476D01*
X213590475Y-111605476D02*
X213638094Y-111700714D01*
X213638094Y-111700714D02*
X213685713Y-111891190D01*
X213685713Y-111891190D02*
X213685713Y-112034047D01*
X213685713Y-112034047D02*
X213638094Y-112224523D01*
X213638094Y-112224523D02*
X213590475Y-112319761D01*
X213590475Y-112319761D02*
X213495237Y-112415000D01*
X213495237Y-112415000D02*
X213352380Y-112462619D01*
X213352380Y-112462619D02*
X213257142Y-112462619D01*
X213257142Y-112462619D02*
X213114285Y-112415000D01*
X213114285Y-112415000D02*
X213066666Y-112367380D01*
X213066666Y-112367380D02*
X213066666Y-112034047D01*
X213066666Y-112034047D02*
X213257142Y-112034047D01*
X212638094Y-112462619D02*
X212638094Y-111462619D01*
X212638094Y-111462619D02*
X212066666Y-112462619D01*
X212066666Y-112462619D02*
X212066666Y-111462619D01*
X211590475Y-112462619D02*
X211590475Y-111462619D01*
X211590475Y-111462619D02*
X211352380Y-111462619D01*
X211352380Y-111462619D02*
X211209523Y-111510238D01*
X211209523Y-111510238D02*
X211114285Y-111605476D01*
X211114285Y-111605476D02*
X211066666Y-111700714D01*
X211066666Y-111700714D02*
X211019047Y-111891190D01*
X211019047Y-111891190D02*
X211019047Y-112034047D01*
X211019047Y-112034047D02*
X211066666Y-112224523D01*
X211066666Y-112224523D02*
X211114285Y-112319761D01*
X211114285Y-112319761D02*
X211209523Y-112415000D01*
X211209523Y-112415000D02*
X211352380Y-112462619D01*
X211352380Y-112462619D02*
X211590475Y-112462619D01*
X213733332Y-87462619D02*
X213114285Y-87462619D01*
X213114285Y-87462619D02*
X213447618Y-87843571D01*
X213447618Y-87843571D02*
X213304761Y-87843571D01*
X213304761Y-87843571D02*
X213209523Y-87891190D01*
X213209523Y-87891190D02*
X213161904Y-87938809D01*
X213161904Y-87938809D02*
X213114285Y-88034047D01*
X213114285Y-88034047D02*
X213114285Y-88272142D01*
X213114285Y-88272142D02*
X213161904Y-88367380D01*
X213161904Y-88367380D02*
X213209523Y-88415000D01*
X213209523Y-88415000D02*
X213304761Y-88462619D01*
X213304761Y-88462619D02*
X213590475Y-88462619D01*
X213590475Y-88462619D02*
X213685713Y-88415000D01*
X213685713Y-88415000D02*
X213733332Y-88367380D01*
X212542856Y-87891190D02*
X212638094Y-87843571D01*
X212638094Y-87843571D02*
X212685713Y-87795952D01*
X212685713Y-87795952D02*
X212733332Y-87700714D01*
X212733332Y-87700714D02*
X212733332Y-87653095D01*
X212733332Y-87653095D02*
X212685713Y-87557857D01*
X212685713Y-87557857D02*
X212638094Y-87510238D01*
X212638094Y-87510238D02*
X212542856Y-87462619D01*
X212542856Y-87462619D02*
X212352380Y-87462619D01*
X212352380Y-87462619D02*
X212257142Y-87510238D01*
X212257142Y-87510238D02*
X212209523Y-87557857D01*
X212209523Y-87557857D02*
X212161904Y-87653095D01*
X212161904Y-87653095D02*
X212161904Y-87700714D01*
X212161904Y-87700714D02*
X212209523Y-87795952D01*
X212209523Y-87795952D02*
X212257142Y-87843571D01*
X212257142Y-87843571D02*
X212352380Y-87891190D01*
X212352380Y-87891190D02*
X212542856Y-87891190D01*
X212542856Y-87891190D02*
X212638094Y-87938809D01*
X212638094Y-87938809D02*
X212685713Y-87986428D01*
X212685713Y-87986428D02*
X212733332Y-88081666D01*
X212733332Y-88081666D02*
X212733332Y-88272142D01*
X212733332Y-88272142D02*
X212685713Y-88367380D01*
X212685713Y-88367380D02*
X212638094Y-88415000D01*
X212638094Y-88415000D02*
X212542856Y-88462619D01*
X212542856Y-88462619D02*
X212352380Y-88462619D01*
X212352380Y-88462619D02*
X212257142Y-88415000D01*
X212257142Y-88415000D02*
X212209523Y-88367380D01*
X212209523Y-88367380D02*
X212161904Y-88272142D01*
X212161904Y-88272142D02*
X212161904Y-88081666D01*
X212161904Y-88081666D02*
X212209523Y-87986428D01*
X212209523Y-87986428D02*
X212257142Y-87938809D01*
X212257142Y-87938809D02*
X212352380Y-87891190D01*
X211019047Y-87415000D02*
X211876189Y-88700714D01*
X210114285Y-88367380D02*
X210161904Y-88415000D01*
X210161904Y-88415000D02*
X210304761Y-88462619D01*
X210304761Y-88462619D02*
X210399999Y-88462619D01*
X210399999Y-88462619D02*
X210542856Y-88415000D01*
X210542856Y-88415000D02*
X210638094Y-88319761D01*
X210638094Y-88319761D02*
X210685713Y-88224523D01*
X210685713Y-88224523D02*
X210733332Y-88034047D01*
X210733332Y-88034047D02*
X210733332Y-87891190D01*
X210733332Y-87891190D02*
X210685713Y-87700714D01*
X210685713Y-87700714D02*
X210638094Y-87605476D01*
X210638094Y-87605476D02*
X210542856Y-87510238D01*
X210542856Y-87510238D02*
X210399999Y-87462619D01*
X210399999Y-87462619D02*
X210304761Y-87462619D01*
X210304761Y-87462619D02*
X210161904Y-87510238D01*
X210161904Y-87510238D02*
X210114285Y-87557857D01*
X209733332Y-88176904D02*
X209257142Y-88176904D01*
X209828570Y-88462619D02*
X209495237Y-87462619D01*
X209495237Y-87462619D02*
X209161904Y-88462619D01*
X208828570Y-88462619D02*
X208828570Y-87462619D01*
X208828570Y-87462619D02*
X208257142Y-88462619D01*
X208257142Y-88462619D02*
X208257142Y-87462619D01*
X208019047Y-88557857D02*
X207257142Y-88557857D01*
X207161903Y-87462619D02*
X206590475Y-87462619D01*
X206876189Y-88462619D02*
X206876189Y-87462619D01*
X206352379Y-87462619D02*
X205685713Y-88462619D01*
X205685713Y-87462619D02*
X206352379Y-88462619D01*
X208557857Y-115161904D02*
X208510238Y-115209523D01*
X208510238Y-115209523D02*
X208462619Y-115304761D01*
X208462619Y-115304761D02*
X208462619Y-115542856D01*
X208462619Y-115542856D02*
X208510238Y-115638094D01*
X208510238Y-115638094D02*
X208557857Y-115685713D01*
X208557857Y-115685713D02*
X208653095Y-115733332D01*
X208653095Y-115733332D02*
X208748333Y-115733332D01*
X208748333Y-115733332D02*
X208891190Y-115685713D01*
X208891190Y-115685713D02*
X209462619Y-115114285D01*
X209462619Y-115114285D02*
X209462619Y-115733332D01*
X208795952Y-116590475D02*
X209462619Y-116590475D01*
X208415000Y-116352380D02*
X209129285Y-116114285D01*
X209129285Y-116114285D02*
X209129285Y-116733332D01*
X196462619Y-108019046D02*
X197272142Y-108019046D01*
X197272142Y-108019046D02*
X197367380Y-108066665D01*
X197367380Y-108066665D02*
X197415000Y-108114284D01*
X197415000Y-108114284D02*
X197462619Y-108209522D01*
X197462619Y-108209522D02*
X197462619Y-108399998D01*
X197462619Y-108399998D02*
X197415000Y-108495236D01*
X197415000Y-108495236D02*
X197367380Y-108542855D01*
X197367380Y-108542855D02*
X197272142Y-108590474D01*
X197272142Y-108590474D02*
X196462619Y-108590474D01*
X197176904Y-109019046D02*
X197176904Y-109495236D01*
X197462619Y-108923808D02*
X196462619Y-109257141D01*
X196462619Y-109257141D02*
X197462619Y-109590474D01*
X197462619Y-110495236D02*
X196986428Y-110161903D01*
X197462619Y-109923808D02*
X196462619Y-109923808D01*
X196462619Y-109923808D02*
X196462619Y-110304760D01*
X196462619Y-110304760D02*
X196510238Y-110399998D01*
X196510238Y-110399998D02*
X196557857Y-110447617D01*
X196557857Y-110447617D02*
X196653095Y-110495236D01*
X196653095Y-110495236D02*
X196795952Y-110495236D01*
X196795952Y-110495236D02*
X196891190Y-110447617D01*
X196891190Y-110447617D02*
X196938809Y-110399998D01*
X196938809Y-110399998D02*
X196986428Y-110304760D01*
X196986428Y-110304760D02*
X196986428Y-109923808D01*
X196462619Y-110780951D02*
X196462619Y-111352379D01*
X197462619Y-111066665D02*
X196462619Y-111066665D01*
X197557857Y-111447618D02*
X197557857Y-112209522D01*
X196462619Y-112304761D02*
X196462619Y-112876189D01*
X197462619Y-112590475D02*
X196462619Y-112590475D01*
X196462619Y-113114285D02*
X197462619Y-113780951D01*
X196462619Y-113780951D02*
X197462619Y-113114285D01*
X196415000Y-114876189D02*
X197700714Y-114019047D01*
X197462619Y-115733332D02*
X197462619Y-115161904D01*
X197462619Y-115447618D02*
X196462619Y-115447618D01*
X196462619Y-115447618D02*
X196605476Y-115352380D01*
X196605476Y-115352380D02*
X196700714Y-115257142D01*
X196700714Y-115257142D02*
X196748333Y-115161904D01*
X196891190Y-116304761D02*
X196843571Y-116209523D01*
X196843571Y-116209523D02*
X196795952Y-116161904D01*
X196795952Y-116161904D02*
X196700714Y-116114285D01*
X196700714Y-116114285D02*
X196653095Y-116114285D01*
X196653095Y-116114285D02*
X196557857Y-116161904D01*
X196557857Y-116161904D02*
X196510238Y-116209523D01*
X196510238Y-116209523D02*
X196462619Y-116304761D01*
X196462619Y-116304761D02*
X196462619Y-116495237D01*
X196462619Y-116495237D02*
X196510238Y-116590475D01*
X196510238Y-116590475D02*
X196557857Y-116638094D01*
X196557857Y-116638094D02*
X196653095Y-116685713D01*
X196653095Y-116685713D02*
X196700714Y-116685713D01*
X196700714Y-116685713D02*
X196795952Y-116638094D01*
X196795952Y-116638094D02*
X196843571Y-116590475D01*
X196843571Y-116590475D02*
X196891190Y-116495237D01*
X196891190Y-116495237D02*
X196891190Y-116304761D01*
X196891190Y-116304761D02*
X196938809Y-116209523D01*
X196938809Y-116209523D02*
X196986428Y-116161904D01*
X196986428Y-116161904D02*
X197081666Y-116114285D01*
X197081666Y-116114285D02*
X197272142Y-116114285D01*
X197272142Y-116114285D02*
X197367380Y-116161904D01*
X197367380Y-116161904D02*
X197415000Y-116209523D01*
X197415000Y-116209523D02*
X197462619Y-116304761D01*
X197462619Y-116304761D02*
X197462619Y-116495237D01*
X197462619Y-116495237D02*
X197415000Y-116590475D01*
X197415000Y-116590475D02*
X197367380Y-116638094D01*
X197367380Y-116638094D02*
X197272142Y-116685713D01*
X197272142Y-116685713D02*
X197081666Y-116685713D01*
X197081666Y-116685713D02*
X196986428Y-116638094D01*
X196986428Y-116638094D02*
X196938809Y-116590475D01*
X196938809Y-116590475D02*
X196891190Y-116495237D01*
X186790476Y-104462619D02*
X186600000Y-104462619D01*
X186600000Y-104462619D02*
X186504762Y-104415000D01*
X186504762Y-104415000D02*
X186457143Y-104367380D01*
X186457143Y-104367380D02*
X186361905Y-104224523D01*
X186361905Y-104224523D02*
X186314286Y-104034047D01*
X186314286Y-104034047D02*
X186314286Y-103653095D01*
X186314286Y-103653095D02*
X186361905Y-103557857D01*
X186361905Y-103557857D02*
X186409524Y-103510238D01*
X186409524Y-103510238D02*
X186504762Y-103462619D01*
X186504762Y-103462619D02*
X186695238Y-103462619D01*
X186695238Y-103462619D02*
X186790476Y-103510238D01*
X186790476Y-103510238D02*
X186838095Y-103557857D01*
X186838095Y-103557857D02*
X186885714Y-103653095D01*
X186885714Y-103653095D02*
X186885714Y-103891190D01*
X186885714Y-103891190D02*
X186838095Y-103986428D01*
X186838095Y-103986428D02*
X186790476Y-104034047D01*
X186790476Y-104034047D02*
X186695238Y-104081666D01*
X186695238Y-104081666D02*
X186504762Y-104081666D01*
X186504762Y-104081666D02*
X186409524Y-104034047D01*
X186409524Y-104034047D02*
X186361905Y-103986428D01*
X186361905Y-103986428D02*
X186314286Y-103891190D01*
D10*
X192271428Y-68047619D02*
X192176190Y-68047619D01*
X192176190Y-68047619D02*
X192080952Y-68095238D01*
X192080952Y-68095238D02*
X192033333Y-68142857D01*
X192033333Y-68142857D02*
X191985714Y-68238095D01*
X191985714Y-68238095D02*
X191938095Y-68428571D01*
X191938095Y-68428571D02*
X191938095Y-68666666D01*
X191938095Y-68666666D02*
X191985714Y-68857142D01*
X191985714Y-68857142D02*
X192033333Y-68952380D01*
X192033333Y-68952380D02*
X192080952Y-69000000D01*
X192080952Y-69000000D02*
X192176190Y-69047619D01*
X192176190Y-69047619D02*
X192271428Y-69047619D01*
X192271428Y-69047619D02*
X192366666Y-69000000D01*
X192366666Y-69000000D02*
X192414285Y-68952380D01*
X192414285Y-68952380D02*
X192461904Y-68857142D01*
X192461904Y-68857142D02*
X192509523Y-68666666D01*
X192509523Y-68666666D02*
X192509523Y-68428571D01*
X192509523Y-68428571D02*
X192461904Y-68238095D01*
X192461904Y-68238095D02*
X192414285Y-68142857D01*
X192414285Y-68142857D02*
X192366666Y-68095238D01*
X192366666Y-68095238D02*
X192271428Y-68047619D01*
X191080952Y-68047619D02*
X191271428Y-68047619D01*
X191271428Y-68047619D02*
X191366666Y-68095238D01*
X191366666Y-68095238D02*
X191414285Y-68142857D01*
X191414285Y-68142857D02*
X191509523Y-68285714D01*
X191509523Y-68285714D02*
X191557142Y-68476190D01*
X191557142Y-68476190D02*
X191557142Y-68857142D01*
X191557142Y-68857142D02*
X191509523Y-68952380D01*
X191509523Y-68952380D02*
X191461904Y-69000000D01*
X191461904Y-69000000D02*
X191366666Y-69047619D01*
X191366666Y-69047619D02*
X191176190Y-69047619D01*
X191176190Y-69047619D02*
X191080952Y-69000000D01*
X191080952Y-69000000D02*
X191033333Y-68952380D01*
X191033333Y-68952380D02*
X190985714Y-68857142D01*
X190985714Y-68857142D02*
X190985714Y-68619047D01*
X190985714Y-68619047D02*
X191033333Y-68523809D01*
X191033333Y-68523809D02*
X191080952Y-68476190D01*
X191080952Y-68476190D02*
X191176190Y-68428571D01*
X191176190Y-68428571D02*
X191366666Y-68428571D01*
X191366666Y-68428571D02*
X191461904Y-68476190D01*
X191461904Y-68476190D02*
X191509523Y-68523809D01*
X191509523Y-68523809D02*
X191557142Y-68619047D01*
X189842857Y-68000000D02*
X190699999Y-69285714D01*
X189557142Y-68142857D02*
X189509523Y-68095238D01*
X189509523Y-68095238D02*
X189414285Y-68047619D01*
X189414285Y-68047619D02*
X189176190Y-68047619D01*
X189176190Y-68047619D02*
X189080952Y-68095238D01*
X189080952Y-68095238D02*
X189033333Y-68142857D01*
X189033333Y-68142857D02*
X188985714Y-68238095D01*
X188985714Y-68238095D02*
X188985714Y-68333333D01*
X188985714Y-68333333D02*
X189033333Y-68476190D01*
X189033333Y-68476190D02*
X189604761Y-69047619D01*
X189604761Y-69047619D02*
X188985714Y-69047619D01*
X188366666Y-68047619D02*
X188271428Y-68047619D01*
X188271428Y-68047619D02*
X188176190Y-68095238D01*
X188176190Y-68095238D02*
X188128571Y-68142857D01*
X188128571Y-68142857D02*
X188080952Y-68238095D01*
X188080952Y-68238095D02*
X188033333Y-68428571D01*
X188033333Y-68428571D02*
X188033333Y-68666666D01*
X188033333Y-68666666D02*
X188080952Y-68857142D01*
X188080952Y-68857142D02*
X188128571Y-68952380D01*
X188128571Y-68952380D02*
X188176190Y-69000000D01*
X188176190Y-69000000D02*
X188271428Y-69047619D01*
X188271428Y-69047619D02*
X188366666Y-69047619D01*
X188366666Y-69047619D02*
X188461904Y-69000000D01*
X188461904Y-69000000D02*
X188509523Y-68952380D01*
X188509523Y-68952380D02*
X188557142Y-68857142D01*
X188557142Y-68857142D02*
X188604761Y-68666666D01*
X188604761Y-68666666D02*
X188604761Y-68428571D01*
X188604761Y-68428571D02*
X188557142Y-68238095D01*
X188557142Y-68238095D02*
X188509523Y-68142857D01*
X188509523Y-68142857D02*
X188461904Y-68095238D01*
X188461904Y-68095238D02*
X188366666Y-68047619D01*
X187652380Y-68142857D02*
X187604761Y-68095238D01*
X187604761Y-68095238D02*
X187509523Y-68047619D01*
X187509523Y-68047619D02*
X187271428Y-68047619D01*
X187271428Y-68047619D02*
X187176190Y-68095238D01*
X187176190Y-68095238D02*
X187128571Y-68142857D01*
X187128571Y-68142857D02*
X187080952Y-68238095D01*
X187080952Y-68238095D02*
X187080952Y-68333333D01*
X187080952Y-68333333D02*
X187128571Y-68476190D01*
X187128571Y-68476190D02*
X187699999Y-69047619D01*
X187699999Y-69047619D02*
X187080952Y-69047619D01*
X186747618Y-68047619D02*
X186128571Y-68047619D01*
X186128571Y-68047619D02*
X186461904Y-68428571D01*
X186461904Y-68428571D02*
X186319047Y-68428571D01*
X186319047Y-68428571D02*
X186223809Y-68476190D01*
X186223809Y-68476190D02*
X186176190Y-68523809D01*
X186176190Y-68523809D02*
X186128571Y-68619047D01*
X186128571Y-68619047D02*
X186128571Y-68857142D01*
X186128571Y-68857142D02*
X186176190Y-68952380D01*
X186176190Y-68952380D02*
X186223809Y-69000000D01*
X186223809Y-69000000D02*
X186319047Y-69047619D01*
X186319047Y-69047619D02*
X186604761Y-69047619D01*
X186604761Y-69047619D02*
X186699999Y-69000000D01*
X186699999Y-69000000D02*
X186747618Y-68952380D01*
D11*
X186885714Y-89557857D02*
X186838095Y-89510238D01*
X186838095Y-89510238D02*
X186742857Y-89462619D01*
X186742857Y-89462619D02*
X186504762Y-89462619D01*
X186504762Y-89462619D02*
X186409524Y-89510238D01*
X186409524Y-89510238D02*
X186361905Y-89557857D01*
X186361905Y-89557857D02*
X186314286Y-89653095D01*
X186314286Y-89653095D02*
X186314286Y-89748333D01*
X186314286Y-89748333D02*
X186361905Y-89891190D01*
X186361905Y-89891190D02*
X186933333Y-90462619D01*
X186933333Y-90462619D02*
X186314286Y-90462619D01*
X186933333Y-99462619D02*
X186266667Y-99462619D01*
X186266667Y-99462619D02*
X186695238Y-100462619D01*
X189462619Y-115733332D02*
X189462619Y-115161904D01*
X189462619Y-115447618D02*
X188462619Y-115447618D01*
X188462619Y-115447618D02*
X188605476Y-115352380D01*
X188605476Y-115352380D02*
X188700714Y-115257142D01*
X188700714Y-115257142D02*
X188748333Y-115161904D01*
X188795952Y-116590475D02*
X189462619Y-116590475D01*
X188415000Y-116352380D02*
X189129285Y-116114285D01*
X189129285Y-116114285D02*
X189129285Y-116733332D01*
X204557857Y-115161904D02*
X204510238Y-115209523D01*
X204510238Y-115209523D02*
X204462619Y-115304761D01*
X204462619Y-115304761D02*
X204462619Y-115542856D01*
X204462619Y-115542856D02*
X204510238Y-115638094D01*
X204510238Y-115638094D02*
X204557857Y-115685713D01*
X204557857Y-115685713D02*
X204653095Y-115733332D01*
X204653095Y-115733332D02*
X204748333Y-115733332D01*
X204748333Y-115733332D02*
X204891190Y-115685713D01*
X204891190Y-115685713D02*
X205462619Y-115114285D01*
X205462619Y-115114285D02*
X205462619Y-115733332D01*
X204557857Y-116114285D02*
X204510238Y-116161904D01*
X204510238Y-116161904D02*
X204462619Y-116257142D01*
X204462619Y-116257142D02*
X204462619Y-116495237D01*
X204462619Y-116495237D02*
X204510238Y-116590475D01*
X204510238Y-116590475D02*
X204557857Y-116638094D01*
X204557857Y-116638094D02*
X204653095Y-116685713D01*
X204653095Y-116685713D02*
X204748333Y-116685713D01*
X204748333Y-116685713D02*
X204891190Y-116638094D01*
X204891190Y-116638094D02*
X205462619Y-116066666D01*
X205462619Y-116066666D02*
X205462619Y-116685713D01*
X212557857Y-115161904D02*
X212510238Y-115209523D01*
X212510238Y-115209523D02*
X212462619Y-115304761D01*
X212462619Y-115304761D02*
X212462619Y-115542856D01*
X212462619Y-115542856D02*
X212510238Y-115638094D01*
X212510238Y-115638094D02*
X212557857Y-115685713D01*
X212557857Y-115685713D02*
X212653095Y-115733332D01*
X212653095Y-115733332D02*
X212748333Y-115733332D01*
X212748333Y-115733332D02*
X212891190Y-115685713D01*
X212891190Y-115685713D02*
X213462619Y-115114285D01*
X213462619Y-115114285D02*
X213462619Y-115733332D01*
X212462619Y-116590475D02*
X212462619Y-116399999D01*
X212462619Y-116399999D02*
X212510238Y-116304761D01*
X212510238Y-116304761D02*
X212557857Y-116257142D01*
X212557857Y-116257142D02*
X212700714Y-116161904D01*
X212700714Y-116161904D02*
X212891190Y-116114285D01*
X212891190Y-116114285D02*
X213272142Y-116114285D01*
X213272142Y-116114285D02*
X213367380Y-116161904D01*
X213367380Y-116161904D02*
X213415000Y-116209523D01*
X213415000Y-116209523D02*
X213462619Y-116304761D01*
X213462619Y-116304761D02*
X213462619Y-116495237D01*
X213462619Y-116495237D02*
X213415000Y-116590475D01*
X213415000Y-116590475D02*
X213367380Y-116638094D01*
X213367380Y-116638094D02*
X213272142Y-116685713D01*
X213272142Y-116685713D02*
X213034047Y-116685713D01*
X213034047Y-116685713D02*
X212938809Y-116638094D01*
X212938809Y-116638094D02*
X212891190Y-116590475D01*
X212891190Y-116590475D02*
X212843571Y-116495237D01*
X212843571Y-116495237D02*
X212843571Y-116304761D01*
X212843571Y-116304761D02*
X212891190Y-116209523D01*
X212891190Y-116209523D02*
X212938809Y-116161904D01*
X212938809Y-116161904D02*
X213034047Y-116114285D01*
D10*
X188114285Y-78047619D02*
X188685713Y-78047619D01*
X188399999Y-78047619D02*
X188399999Y-77047619D01*
X188399999Y-77047619D02*
X188495237Y-77190476D01*
X188495237Y-77190476D02*
X188590475Y-77285714D01*
X188590475Y-77285714D02*
X188685713Y-77333333D01*
D11*
X188409524Y-111510238D02*
X188504762Y-111462619D01*
X188504762Y-111462619D02*
X188647619Y-111462619D01*
X188647619Y-111462619D02*
X188790476Y-111510238D01*
X188790476Y-111510238D02*
X188885714Y-111605476D01*
X188885714Y-111605476D02*
X188933333Y-111700714D01*
X188933333Y-111700714D02*
X188980952Y-111891190D01*
X188980952Y-111891190D02*
X188980952Y-112034047D01*
X188980952Y-112034047D02*
X188933333Y-112224523D01*
X188933333Y-112224523D02*
X188885714Y-112319761D01*
X188885714Y-112319761D02*
X188790476Y-112415000D01*
X188790476Y-112415000D02*
X188647619Y-112462619D01*
X188647619Y-112462619D02*
X188552381Y-112462619D01*
X188552381Y-112462619D02*
X188409524Y-112415000D01*
X188409524Y-112415000D02*
X188361905Y-112367380D01*
X188361905Y-112367380D02*
X188361905Y-112034047D01*
X188361905Y-112034047D02*
X188552381Y-112034047D01*
X187933333Y-112462619D02*
X187933333Y-111462619D01*
X187933333Y-111462619D02*
X187361905Y-112462619D01*
X187361905Y-112462619D02*
X187361905Y-111462619D01*
X186885714Y-112462619D02*
X186885714Y-111462619D01*
X186885714Y-111462619D02*
X186647619Y-111462619D01*
X186647619Y-111462619D02*
X186504762Y-111510238D01*
X186504762Y-111510238D02*
X186409524Y-111605476D01*
X186409524Y-111605476D02*
X186361905Y-111700714D01*
X186361905Y-111700714D02*
X186314286Y-111891190D01*
X186314286Y-111891190D02*
X186314286Y-112034047D01*
X186314286Y-112034047D02*
X186361905Y-112224523D01*
X186361905Y-112224523D02*
X186409524Y-112319761D01*
X186409524Y-112319761D02*
X186504762Y-112415000D01*
X186504762Y-112415000D02*
X186647619Y-112462619D01*
X186647619Y-112462619D02*
X186885714Y-112462619D01*
%TO.C,G\u002A\u002A\u002A*%
G36*
X211859613Y-80264846D02*
G01*
X212098382Y-80279729D01*
X212328308Y-80304381D01*
X212543137Y-80339146D01*
X212751833Y-80367064D01*
X213018655Y-80374221D01*
X213156704Y-80374417D01*
X213307884Y-80383755D01*
X213424360Y-80402357D01*
X213503360Y-80419247D01*
X213567300Y-80423906D01*
X213634072Y-80414670D01*
X213725022Y-80390713D01*
X213727970Y-80389892D01*
X213747335Y-80384501D01*
X213964929Y-80339151D01*
X214207179Y-80311668D01*
X214343158Y-80307188D01*
X214455569Y-80303484D01*
X214691588Y-80316029D01*
X214783373Y-80326336D01*
X214878913Y-80338813D01*
X214948105Y-80349901D01*
X214980178Y-80358033D01*
X214982792Y-80372421D01*
X214986061Y-80432893D01*
X214988956Y-80539396D01*
X214991472Y-80690730D01*
X214993601Y-80885696D01*
X214995336Y-81123095D01*
X214996671Y-81401728D01*
X214997600Y-81720394D01*
X214998115Y-82077895D01*
X214998209Y-82473031D01*
X214997877Y-82904602D01*
X214997110Y-83371411D01*
X214991004Y-86370549D01*
X214846685Y-86401507D01*
X214716735Y-86419274D01*
X214540460Y-86423866D01*
X214345905Y-86412983D01*
X214147197Y-86387473D01*
X213958467Y-86348183D01*
X213719680Y-86286968D01*
X213525512Y-86349217D01*
X213515989Y-86352226D01*
X213398818Y-86384023D01*
X213276844Y-86409557D01*
X213175000Y-86423541D01*
X213100414Y-86433795D01*
X212987034Y-86457031D01*
X212858251Y-86489077D01*
X212730019Y-86526251D01*
X212548506Y-86580371D01*
X212309929Y-86639789D01*
X212086568Y-86678922D01*
X211862945Y-86700291D01*
X211623579Y-86706418D01*
X211605623Y-86706345D01*
X211408295Y-86700782D01*
X211244395Y-86684801D01*
X211100913Y-86655839D01*
X210964843Y-86611333D01*
X210823177Y-86548721D01*
X210724623Y-86493983D01*
X210648083Y-86428951D01*
X210606996Y-86354988D01*
X210594766Y-86263870D01*
X210598522Y-86211466D01*
X210622682Y-86119229D01*
X210671379Y-86018584D01*
X210747110Y-85906357D01*
X210852369Y-85779378D01*
X210989653Y-85634473D01*
X211161457Y-85468472D01*
X211370277Y-85278201D01*
X211449084Y-85207334D01*
X211616908Y-85050713D01*
X211753398Y-84912907D01*
X211864076Y-84787385D01*
X211954461Y-84667617D01*
X212030074Y-84547073D01*
X212096438Y-84419222D01*
X212122101Y-84360726D01*
X212153043Y-84261226D01*
X213305053Y-84261226D01*
X213309676Y-84294473D01*
X213357961Y-84468070D01*
X213441140Y-84622930D01*
X213553476Y-84750388D01*
X213689237Y-84841776D01*
X213746529Y-84865470D01*
X213874599Y-84887636D01*
X213990905Y-84864335D01*
X214091168Y-84796943D01*
X214171108Y-84686837D01*
X214192743Y-84629201D01*
X214214519Y-84520898D01*
X214226916Y-84392081D01*
X214229227Y-84258237D01*
X214220745Y-84134849D01*
X214200762Y-84037405D01*
X214158831Y-83927056D01*
X214088020Y-83804599D01*
X214002581Y-83726330D01*
X213898898Y-83690377D01*
X213773355Y-83694867D01*
X213622334Y-83737928D01*
X213561031Y-83764555D01*
X213436755Y-83850786D01*
X213351506Y-83964223D01*
X213307025Y-84101994D01*
X213305053Y-84261226D01*
X212153043Y-84261226D01*
X212153078Y-84261114D01*
X212165510Y-84157857D01*
X212159313Y-84040806D01*
X212134405Y-83899809D01*
X212090701Y-83724716D01*
X212067561Y-83634118D01*
X212025813Y-83411254D01*
X212010081Y-83193776D01*
X212019804Y-82966056D01*
X212054423Y-82712467D01*
X212080169Y-82563234D01*
X214146079Y-82563234D01*
X214161149Y-82690329D01*
X214166848Y-82716941D01*
X214179867Y-82829263D01*
X214176912Y-82931095D01*
X214174212Y-82954864D01*
X214181963Y-83068315D01*
X214228852Y-83154920D01*
X214316180Y-83217355D01*
X214363849Y-83235645D01*
X214434610Y-83237288D01*
X214486315Y-83195960D01*
X214522368Y-83109885D01*
X214526859Y-83094271D01*
X214560688Y-83024959D01*
X214613383Y-82987911D01*
X214667302Y-82965862D01*
X214736710Y-82934861D01*
X214760810Y-82919682D01*
X214810980Y-82858992D01*
X214838302Y-82782855D01*
X214833836Y-82711797D01*
X214830319Y-82703457D01*
X214780118Y-82637448D01*
X214702656Y-82580248D01*
X214616002Y-82545638D01*
X214552839Y-82515010D01*
X214484538Y-82435737D01*
X214462510Y-82403640D01*
X214406958Y-82353057D01*
X214343158Y-82345057D01*
X214259580Y-82376612D01*
X214230625Y-82394142D01*
X214169128Y-82464856D01*
X214146079Y-82563234D01*
X212080169Y-82563234D01*
X212100418Y-82445863D01*
X212027213Y-82339645D01*
X211983778Y-82281693D01*
X211869623Y-82154113D01*
X211722926Y-82013336D01*
X211550420Y-81865296D01*
X211422792Y-81765788D01*
X213151529Y-81765788D01*
X213160244Y-81916347D01*
X213201909Y-82059904D01*
X213275787Y-82183267D01*
X213336892Y-82248462D01*
X213424143Y-82307907D01*
X213528727Y-82338889D01*
X213664525Y-82347264D01*
X213665416Y-82347258D01*
X213789869Y-82337979D01*
X213880036Y-82307885D01*
X213898898Y-82291858D01*
X213947464Y-82250593D01*
X214003699Y-82159717D01*
X214012155Y-82140529D01*
X214038803Y-82041544D01*
X214054868Y-81916667D01*
X214059564Y-81782799D01*
X214052109Y-81656847D01*
X214031717Y-81555714D01*
X213996705Y-81464122D01*
X213922696Y-81338972D01*
X213832866Y-81258245D01*
X213727970Y-81222520D01*
X213608765Y-81232374D01*
X213490859Y-81277187D01*
X213350872Y-81370351D01*
X213237348Y-81494344D01*
X213235893Y-81496429D01*
X213176500Y-81621419D01*
X213151529Y-81765788D01*
X211422792Y-81765788D01*
X211358840Y-81715926D01*
X211154921Y-81571159D01*
X211117106Y-81545454D01*
X210894230Y-81386337D01*
X210712970Y-81241376D01*
X210570643Y-81107446D01*
X210464565Y-80981425D01*
X210392050Y-80860190D01*
X210350416Y-80740619D01*
X210336977Y-80619589D01*
X210337664Y-80584925D01*
X210349985Y-80505812D01*
X210380029Y-80457865D01*
X210381815Y-80456270D01*
X210466120Y-80405360D01*
X210591628Y-80361472D01*
X210752082Y-80324951D01*
X210941228Y-80296138D01*
X211152810Y-80275378D01*
X211380571Y-80263014D01*
X211618258Y-80259389D01*
X211859613Y-80264846D01*
G37*
G36*
X213905170Y-84163795D02*
G01*
X214017797Y-84216932D01*
X214106575Y-84311559D01*
X214120682Y-84334042D01*
X214157681Y-84432115D01*
X214147782Y-84521538D01*
X214090865Y-84604502D01*
X214080448Y-84614707D01*
X214030867Y-84652998D01*
X213975120Y-84670552D01*
X213892428Y-84674720D01*
X213816651Y-84668962D01*
X213696559Y-84631350D01*
X213604338Y-84563129D01*
X213545929Y-84469492D01*
X213527276Y-84355631D01*
X213534824Y-84293142D01*
X213572439Y-84219086D01*
X213645082Y-84173389D01*
X213756856Y-84152422D01*
X213767749Y-84151718D01*
X213905170Y-84163795D01*
G37*
G36*
X213779735Y-81703153D02*
G01*
X213877897Y-81744212D01*
X213955263Y-81817714D01*
X213981441Y-81868314D01*
X213992151Y-81959724D01*
X213964056Y-82048434D01*
X213901600Y-82123591D01*
X213809225Y-82174345D01*
X213741791Y-82190489D01*
X213630522Y-82190369D01*
X213533741Y-82159111D01*
X213458166Y-82102574D01*
X213410512Y-82026617D01*
X213397497Y-81937100D01*
X213425835Y-81839882D01*
X213480615Y-81769616D01*
X213569080Y-81716359D01*
X213672791Y-81694037D01*
X213779735Y-81703153D01*
G37*
%TD*%
M02*
