%TF.GenerationSoftware,KiCad,Pcbnew,7.0.2*%
%TF.CreationDate,2023-06-14T20:26:51+10:00*%
%TF.ProjectId,STM32_Simple_Rev1.0,53544d33-325f-4536-996d-706c655f5265,rev?*%
%TF.SameCoordinates,Original*%
%TF.FileFunction,Legend,Top*%
%TF.FilePolarity,Positive*%
%FSLAX46Y46*%
G04 Gerber Fmt 4.6, Leading zero omitted, Abs format (unit mm)*
G04 Created by KiCad (PCBNEW 7.0.2) date 2023-06-14 20:26:51*
%MOMM*%
%LPD*%
G01*
G04 APERTURE LIST*
%ADD10C,0.200000*%
%ADD11C,0.160000*%
%ADD12C,0.120000*%
G04 APERTURE END LIST*
D10*
X186042857Y-81323809D02*
X186185714Y-81371428D01*
X186185714Y-81371428D02*
X186233333Y-81419047D01*
X186233333Y-81419047D02*
X186280952Y-81514285D01*
X186280952Y-81514285D02*
X186280952Y-81657142D01*
X186280952Y-81657142D02*
X186233333Y-81752380D01*
X186233333Y-81752380D02*
X186185714Y-81800000D01*
X186185714Y-81800000D02*
X186090476Y-81847619D01*
X186090476Y-81847619D02*
X185709524Y-81847619D01*
X185709524Y-81847619D02*
X185709524Y-80847619D01*
X185709524Y-80847619D02*
X186042857Y-80847619D01*
X186042857Y-80847619D02*
X186138095Y-80895238D01*
X186138095Y-80895238D02*
X186185714Y-80942857D01*
X186185714Y-80942857D02*
X186233333Y-81038095D01*
X186233333Y-81038095D02*
X186233333Y-81133333D01*
X186233333Y-81133333D02*
X186185714Y-81228571D01*
X186185714Y-81228571D02*
X186138095Y-81276190D01*
X186138095Y-81276190D02*
X186042857Y-81323809D01*
X186042857Y-81323809D02*
X185709524Y-81323809D01*
X186900000Y-80847619D02*
X187090476Y-80847619D01*
X187090476Y-80847619D02*
X187185714Y-80895238D01*
X187185714Y-80895238D02*
X187280952Y-80990476D01*
X187280952Y-80990476D02*
X187328571Y-81180952D01*
X187328571Y-81180952D02*
X187328571Y-81514285D01*
X187328571Y-81514285D02*
X187280952Y-81704761D01*
X187280952Y-81704761D02*
X187185714Y-81800000D01*
X187185714Y-81800000D02*
X187090476Y-81847619D01*
X187090476Y-81847619D02*
X186900000Y-81847619D01*
X186900000Y-81847619D02*
X186804762Y-81800000D01*
X186804762Y-81800000D02*
X186709524Y-81704761D01*
X186709524Y-81704761D02*
X186661905Y-81514285D01*
X186661905Y-81514285D02*
X186661905Y-81180952D01*
X186661905Y-81180952D02*
X186709524Y-80990476D01*
X186709524Y-80990476D02*
X186804762Y-80895238D01*
X186804762Y-80895238D02*
X186900000Y-80847619D01*
X187947619Y-80847619D02*
X188138095Y-80847619D01*
X188138095Y-80847619D02*
X188233333Y-80895238D01*
X188233333Y-80895238D02*
X188328571Y-80990476D01*
X188328571Y-80990476D02*
X188376190Y-81180952D01*
X188376190Y-81180952D02*
X188376190Y-81514285D01*
X188376190Y-81514285D02*
X188328571Y-81704761D01*
X188328571Y-81704761D02*
X188233333Y-81800000D01*
X188233333Y-81800000D02*
X188138095Y-81847619D01*
X188138095Y-81847619D02*
X187947619Y-81847619D01*
X187947619Y-81847619D02*
X187852381Y-81800000D01*
X187852381Y-81800000D02*
X187757143Y-81704761D01*
X187757143Y-81704761D02*
X187709524Y-81514285D01*
X187709524Y-81514285D02*
X187709524Y-81180952D01*
X187709524Y-81180952D02*
X187757143Y-80990476D01*
X187757143Y-80990476D02*
X187852381Y-80895238D01*
X187852381Y-80895238D02*
X187947619Y-80847619D01*
X188661905Y-80847619D02*
X189233333Y-80847619D01*
X188947619Y-81847619D02*
X188947619Y-80847619D01*
D11*
X186266667Y-91462619D02*
X186885714Y-91462619D01*
X186885714Y-91462619D02*
X186552381Y-91843571D01*
X186552381Y-91843571D02*
X186695238Y-91843571D01*
X186695238Y-91843571D02*
X186790476Y-91891190D01*
X186790476Y-91891190D02*
X186838095Y-91938809D01*
X186838095Y-91938809D02*
X186885714Y-92034047D01*
X186885714Y-92034047D02*
X186885714Y-92272142D01*
X186885714Y-92272142D02*
X186838095Y-92367380D01*
X186838095Y-92367380D02*
X186790476Y-92415000D01*
X186790476Y-92415000D02*
X186695238Y-92462619D01*
X186695238Y-92462619D02*
X186409524Y-92462619D01*
X186409524Y-92462619D02*
X186314286Y-92415000D01*
X186314286Y-92415000D02*
X186266667Y-92367380D01*
D10*
X210247619Y-70333332D02*
X211247619Y-69999999D01*
X211247619Y-69999999D02*
X210247619Y-69666666D01*
X211152380Y-68761904D02*
X211200000Y-68809523D01*
X211200000Y-68809523D02*
X211247619Y-68952380D01*
X211247619Y-68952380D02*
X211247619Y-69047618D01*
X211247619Y-69047618D02*
X211200000Y-69190475D01*
X211200000Y-69190475D02*
X211104761Y-69285713D01*
X211104761Y-69285713D02*
X211009523Y-69333332D01*
X211009523Y-69333332D02*
X210819047Y-69380951D01*
X210819047Y-69380951D02*
X210676190Y-69380951D01*
X210676190Y-69380951D02*
X210485714Y-69333332D01*
X210485714Y-69333332D02*
X210390476Y-69285713D01*
X210390476Y-69285713D02*
X210295238Y-69190475D01*
X210295238Y-69190475D02*
X210247619Y-69047618D01*
X210247619Y-69047618D02*
X210247619Y-68952380D01*
X210247619Y-68952380D02*
X210295238Y-68809523D01*
X210295238Y-68809523D02*
X210342857Y-68761904D01*
X211152380Y-67761904D02*
X211200000Y-67809523D01*
X211200000Y-67809523D02*
X211247619Y-67952380D01*
X211247619Y-67952380D02*
X211247619Y-68047618D01*
X211247619Y-68047618D02*
X211200000Y-68190475D01*
X211200000Y-68190475D02*
X211104761Y-68285713D01*
X211104761Y-68285713D02*
X211009523Y-68333332D01*
X211009523Y-68333332D02*
X210819047Y-68380951D01*
X210819047Y-68380951D02*
X210676190Y-68380951D01*
X210676190Y-68380951D02*
X210485714Y-68333332D01*
X210485714Y-68333332D02*
X210390476Y-68285713D01*
X210390476Y-68285713D02*
X210295238Y-68190475D01*
X210295238Y-68190475D02*
X210247619Y-68047618D01*
X210247619Y-68047618D02*
X210247619Y-67952380D01*
X210247619Y-67952380D02*
X210295238Y-67809523D01*
X210295238Y-67809523D02*
X210342857Y-67761904D01*
D11*
X193462619Y-116114285D02*
X193462619Y-116685713D01*
X193462619Y-116399999D02*
X192462619Y-116399999D01*
X192462619Y-116399999D02*
X192605476Y-116495237D01*
X192605476Y-116495237D02*
X192700714Y-116590475D01*
X192700714Y-116590475D02*
X192748333Y-116685713D01*
X192462619Y-115257142D02*
X192462619Y-115447618D01*
X192462619Y-115447618D02*
X192510238Y-115542856D01*
X192510238Y-115542856D02*
X192557857Y-115590475D01*
X192557857Y-115590475D02*
X192700714Y-115685713D01*
X192700714Y-115685713D02*
X192891190Y-115733332D01*
X192891190Y-115733332D02*
X193272142Y-115733332D01*
X193272142Y-115733332D02*
X193367380Y-115685713D01*
X193367380Y-115685713D02*
X193415000Y-115638094D01*
X193415000Y-115638094D02*
X193462619Y-115542856D01*
X193462619Y-115542856D02*
X193462619Y-115352380D01*
X193462619Y-115352380D02*
X193415000Y-115257142D01*
X193415000Y-115257142D02*
X193367380Y-115209523D01*
X193367380Y-115209523D02*
X193272142Y-115161904D01*
X193272142Y-115161904D02*
X193034047Y-115161904D01*
X193034047Y-115161904D02*
X192938809Y-115209523D01*
X192938809Y-115209523D02*
X192891190Y-115257142D01*
X192891190Y-115257142D02*
X192843571Y-115352380D01*
X192843571Y-115352380D02*
X192843571Y-115542856D01*
X192843571Y-115542856D02*
X192891190Y-115638094D01*
X192891190Y-115638094D02*
X192938809Y-115685713D01*
X192938809Y-115685713D02*
X193034047Y-115733332D01*
X186885714Y-106462619D02*
X186314286Y-106462619D01*
X186600000Y-106462619D02*
X186600000Y-105462619D01*
X186600000Y-105462619D02*
X186504762Y-105605476D01*
X186504762Y-105605476D02*
X186409524Y-105700714D01*
X186409524Y-105700714D02*
X186314286Y-105748333D01*
X187504762Y-105462619D02*
X187600000Y-105462619D01*
X187600000Y-105462619D02*
X187695238Y-105510238D01*
X187695238Y-105510238D02*
X187742857Y-105557857D01*
X187742857Y-105557857D02*
X187790476Y-105653095D01*
X187790476Y-105653095D02*
X187838095Y-105843571D01*
X187838095Y-105843571D02*
X187838095Y-106081666D01*
X187838095Y-106081666D02*
X187790476Y-106272142D01*
X187790476Y-106272142D02*
X187742857Y-106367380D01*
X187742857Y-106367380D02*
X187695238Y-106415000D01*
X187695238Y-106415000D02*
X187600000Y-106462619D01*
X187600000Y-106462619D02*
X187504762Y-106462619D01*
X187504762Y-106462619D02*
X187409524Y-106415000D01*
X187409524Y-106415000D02*
X187361905Y-106367380D01*
X187361905Y-106367380D02*
X187314286Y-106272142D01*
X187314286Y-106272142D02*
X187266667Y-106081666D01*
X187266667Y-106081666D02*
X187266667Y-105843571D01*
X187266667Y-105843571D02*
X187314286Y-105653095D01*
X187314286Y-105653095D02*
X187361905Y-105557857D01*
X187361905Y-105557857D02*
X187409524Y-105510238D01*
X187409524Y-105510238D02*
X187504762Y-105462619D01*
X198690476Y-90930000D02*
X198833333Y-90977619D01*
X198833333Y-90977619D02*
X199071428Y-90977619D01*
X199071428Y-90977619D02*
X199166666Y-90930000D01*
X199166666Y-90930000D02*
X199214285Y-90882380D01*
X199214285Y-90882380D02*
X199261904Y-90787142D01*
X199261904Y-90787142D02*
X199261904Y-90691904D01*
X199261904Y-90691904D02*
X199214285Y-90596666D01*
X199214285Y-90596666D02*
X199166666Y-90549047D01*
X199166666Y-90549047D02*
X199071428Y-90501428D01*
X199071428Y-90501428D02*
X198880952Y-90453809D01*
X198880952Y-90453809D02*
X198785714Y-90406190D01*
X198785714Y-90406190D02*
X198738095Y-90358571D01*
X198738095Y-90358571D02*
X198690476Y-90263333D01*
X198690476Y-90263333D02*
X198690476Y-90168095D01*
X198690476Y-90168095D02*
X198738095Y-90072857D01*
X198738095Y-90072857D02*
X198785714Y-90025238D01*
X198785714Y-90025238D02*
X198880952Y-89977619D01*
X198880952Y-89977619D02*
X199119047Y-89977619D01*
X199119047Y-89977619D02*
X199261904Y-90025238D01*
X199595238Y-89977619D02*
X199833333Y-90977619D01*
X199833333Y-90977619D02*
X200023809Y-90263333D01*
X200023809Y-90263333D02*
X200214285Y-90977619D01*
X200214285Y-90977619D02*
X200452381Y-89977619D01*
X200785714Y-90072857D02*
X200833333Y-90025238D01*
X200833333Y-90025238D02*
X200928571Y-89977619D01*
X200928571Y-89977619D02*
X201166666Y-89977619D01*
X201166666Y-89977619D02*
X201261904Y-90025238D01*
X201261904Y-90025238D02*
X201309523Y-90072857D01*
X201309523Y-90072857D02*
X201357142Y-90168095D01*
X201357142Y-90168095D02*
X201357142Y-90263333D01*
X201357142Y-90263333D02*
X201309523Y-90406190D01*
X201309523Y-90406190D02*
X200738095Y-90977619D01*
X200738095Y-90977619D02*
X201357142Y-90977619D01*
X186885714Y-111510238D02*
X186790476Y-111462619D01*
X186790476Y-111462619D02*
X186647619Y-111462619D01*
X186647619Y-111462619D02*
X186504762Y-111510238D01*
X186504762Y-111510238D02*
X186409524Y-111605476D01*
X186409524Y-111605476D02*
X186361905Y-111700714D01*
X186361905Y-111700714D02*
X186314286Y-111891190D01*
X186314286Y-111891190D02*
X186314286Y-112034047D01*
X186314286Y-112034047D02*
X186361905Y-112224523D01*
X186361905Y-112224523D02*
X186409524Y-112319761D01*
X186409524Y-112319761D02*
X186504762Y-112415000D01*
X186504762Y-112415000D02*
X186647619Y-112462619D01*
X186647619Y-112462619D02*
X186742857Y-112462619D01*
X186742857Y-112462619D02*
X186885714Y-112415000D01*
X186885714Y-112415000D02*
X186933333Y-112367380D01*
X186933333Y-112367380D02*
X186933333Y-112034047D01*
X186933333Y-112034047D02*
X186742857Y-112034047D01*
X187361905Y-112462619D02*
X187361905Y-111462619D01*
X187361905Y-111462619D02*
X187933333Y-112462619D01*
X187933333Y-112462619D02*
X187933333Y-111462619D01*
X188409524Y-112462619D02*
X188409524Y-111462619D01*
X188409524Y-111462619D02*
X188647619Y-111462619D01*
X188647619Y-111462619D02*
X188790476Y-111510238D01*
X188790476Y-111510238D02*
X188885714Y-111605476D01*
X188885714Y-111605476D02*
X188933333Y-111700714D01*
X188933333Y-111700714D02*
X188980952Y-111891190D01*
X188980952Y-111891190D02*
X188980952Y-112034047D01*
X188980952Y-112034047D02*
X188933333Y-112224523D01*
X188933333Y-112224523D02*
X188885714Y-112319761D01*
X188885714Y-112319761D02*
X188790476Y-112415000D01*
X188790476Y-112415000D02*
X188647619Y-112462619D01*
X188647619Y-112462619D02*
X188409524Y-112462619D01*
X198690476Y-85430000D02*
X198833333Y-85477619D01*
X198833333Y-85477619D02*
X199071428Y-85477619D01*
X199071428Y-85477619D02*
X199166666Y-85430000D01*
X199166666Y-85430000D02*
X199214285Y-85382380D01*
X199214285Y-85382380D02*
X199261904Y-85287142D01*
X199261904Y-85287142D02*
X199261904Y-85191904D01*
X199261904Y-85191904D02*
X199214285Y-85096666D01*
X199214285Y-85096666D02*
X199166666Y-85049047D01*
X199166666Y-85049047D02*
X199071428Y-85001428D01*
X199071428Y-85001428D02*
X198880952Y-84953809D01*
X198880952Y-84953809D02*
X198785714Y-84906190D01*
X198785714Y-84906190D02*
X198738095Y-84858571D01*
X198738095Y-84858571D02*
X198690476Y-84763333D01*
X198690476Y-84763333D02*
X198690476Y-84668095D01*
X198690476Y-84668095D02*
X198738095Y-84572857D01*
X198738095Y-84572857D02*
X198785714Y-84525238D01*
X198785714Y-84525238D02*
X198880952Y-84477619D01*
X198880952Y-84477619D02*
X199119047Y-84477619D01*
X199119047Y-84477619D02*
X199261904Y-84525238D01*
X199595238Y-84477619D02*
X199833333Y-85477619D01*
X199833333Y-85477619D02*
X200023809Y-84763333D01*
X200023809Y-84763333D02*
X200214285Y-85477619D01*
X200214285Y-85477619D02*
X200452381Y-84477619D01*
X201357142Y-85477619D02*
X200785714Y-85477619D01*
X201071428Y-85477619D02*
X201071428Y-84477619D01*
X201071428Y-84477619D02*
X200976190Y-84620476D01*
X200976190Y-84620476D02*
X200880952Y-84715714D01*
X200880952Y-84715714D02*
X200785714Y-84763333D01*
X212114285Y-89462619D02*
X212733332Y-89462619D01*
X212733332Y-89462619D02*
X212399999Y-89843571D01*
X212399999Y-89843571D02*
X212542856Y-89843571D01*
X212542856Y-89843571D02*
X212638094Y-89891190D01*
X212638094Y-89891190D02*
X212685713Y-89938809D01*
X212685713Y-89938809D02*
X212733332Y-90034047D01*
X212733332Y-90034047D02*
X212733332Y-90272142D01*
X212733332Y-90272142D02*
X212685713Y-90367380D01*
X212685713Y-90367380D02*
X212638094Y-90415000D01*
X212638094Y-90415000D02*
X212542856Y-90462619D01*
X212542856Y-90462619D02*
X212257142Y-90462619D01*
X212257142Y-90462619D02*
X212161904Y-90415000D01*
X212161904Y-90415000D02*
X212114285Y-90367380D01*
X213066666Y-89462619D02*
X213733332Y-89462619D01*
X213733332Y-89462619D02*
X213304761Y-90462619D01*
X212557857Y-116685713D02*
X212510238Y-116638094D01*
X212510238Y-116638094D02*
X212462619Y-116542856D01*
X212462619Y-116542856D02*
X212462619Y-116304761D01*
X212462619Y-116304761D02*
X212510238Y-116209523D01*
X212510238Y-116209523D02*
X212557857Y-116161904D01*
X212557857Y-116161904D02*
X212653095Y-116114285D01*
X212653095Y-116114285D02*
X212748333Y-116114285D01*
X212748333Y-116114285D02*
X212891190Y-116161904D01*
X212891190Y-116161904D02*
X213462619Y-116733332D01*
X213462619Y-116733332D02*
X213462619Y-116114285D01*
X212462619Y-115257142D02*
X212462619Y-115447618D01*
X212462619Y-115447618D02*
X212510238Y-115542856D01*
X212510238Y-115542856D02*
X212557857Y-115590475D01*
X212557857Y-115590475D02*
X212700714Y-115685713D01*
X212700714Y-115685713D02*
X212891190Y-115733332D01*
X212891190Y-115733332D02*
X213272142Y-115733332D01*
X213272142Y-115733332D02*
X213367380Y-115685713D01*
X213367380Y-115685713D02*
X213415000Y-115638094D01*
X213415000Y-115638094D02*
X213462619Y-115542856D01*
X213462619Y-115542856D02*
X213462619Y-115352380D01*
X213462619Y-115352380D02*
X213415000Y-115257142D01*
X213415000Y-115257142D02*
X213367380Y-115209523D01*
X213367380Y-115209523D02*
X213272142Y-115161904D01*
X213272142Y-115161904D02*
X213034047Y-115161904D01*
X213034047Y-115161904D02*
X212938809Y-115209523D01*
X212938809Y-115209523D02*
X212891190Y-115257142D01*
X212891190Y-115257142D02*
X212843571Y-115352380D01*
X212843571Y-115352380D02*
X212843571Y-115542856D01*
X212843571Y-115542856D02*
X212891190Y-115638094D01*
X212891190Y-115638094D02*
X212938809Y-115685713D01*
X212938809Y-115685713D02*
X213034047Y-115733332D01*
X204557857Y-116685713D02*
X204510238Y-116638094D01*
X204510238Y-116638094D02*
X204462619Y-116542856D01*
X204462619Y-116542856D02*
X204462619Y-116304761D01*
X204462619Y-116304761D02*
X204510238Y-116209523D01*
X204510238Y-116209523D02*
X204557857Y-116161904D01*
X204557857Y-116161904D02*
X204653095Y-116114285D01*
X204653095Y-116114285D02*
X204748333Y-116114285D01*
X204748333Y-116114285D02*
X204891190Y-116161904D01*
X204891190Y-116161904D02*
X205462619Y-116733332D01*
X205462619Y-116733332D02*
X205462619Y-116114285D01*
X204557857Y-115733332D02*
X204510238Y-115685713D01*
X204510238Y-115685713D02*
X204462619Y-115590475D01*
X204462619Y-115590475D02*
X204462619Y-115352380D01*
X204462619Y-115352380D02*
X204510238Y-115257142D01*
X204510238Y-115257142D02*
X204557857Y-115209523D01*
X204557857Y-115209523D02*
X204653095Y-115161904D01*
X204653095Y-115161904D02*
X204748333Y-115161904D01*
X204748333Y-115161904D02*
X204891190Y-115209523D01*
X204891190Y-115209523D02*
X205462619Y-115780951D01*
X205462619Y-115780951D02*
X205462619Y-115161904D01*
X186885714Y-88462619D02*
X186314286Y-88462619D01*
X186600000Y-88462619D02*
X186600000Y-87462619D01*
X186600000Y-87462619D02*
X186504762Y-87605476D01*
X186504762Y-87605476D02*
X186409524Y-87700714D01*
X186409524Y-87700714D02*
X186314286Y-87748333D01*
D10*
X187009523Y-71677619D02*
X186676190Y-71201428D01*
X186438095Y-71677619D02*
X186438095Y-70677619D01*
X186438095Y-70677619D02*
X186819047Y-70677619D01*
X186819047Y-70677619D02*
X186914285Y-70725238D01*
X186914285Y-70725238D02*
X186961904Y-70772857D01*
X186961904Y-70772857D02*
X187009523Y-70868095D01*
X187009523Y-70868095D02*
X187009523Y-71010952D01*
X187009523Y-71010952D02*
X186961904Y-71106190D01*
X186961904Y-71106190D02*
X186914285Y-71153809D01*
X186914285Y-71153809D02*
X186819047Y-71201428D01*
X186819047Y-71201428D02*
X186438095Y-71201428D01*
X187390476Y-71630000D02*
X187533333Y-71677619D01*
X187533333Y-71677619D02*
X187771428Y-71677619D01*
X187771428Y-71677619D02*
X187866666Y-71630000D01*
X187866666Y-71630000D02*
X187914285Y-71582380D01*
X187914285Y-71582380D02*
X187961904Y-71487142D01*
X187961904Y-71487142D02*
X187961904Y-71391904D01*
X187961904Y-71391904D02*
X187914285Y-71296666D01*
X187914285Y-71296666D02*
X187866666Y-71249047D01*
X187866666Y-71249047D02*
X187771428Y-71201428D01*
X187771428Y-71201428D02*
X187580952Y-71153809D01*
X187580952Y-71153809D02*
X187485714Y-71106190D01*
X187485714Y-71106190D02*
X187438095Y-71058571D01*
X187438095Y-71058571D02*
X187390476Y-70963333D01*
X187390476Y-70963333D02*
X187390476Y-70868095D01*
X187390476Y-70868095D02*
X187438095Y-70772857D01*
X187438095Y-70772857D02*
X187485714Y-70725238D01*
X187485714Y-70725238D02*
X187580952Y-70677619D01*
X187580952Y-70677619D02*
X187819047Y-70677619D01*
X187819047Y-70677619D02*
X187961904Y-70725238D01*
X188247619Y-70677619D02*
X188819047Y-70677619D01*
X188533333Y-71677619D02*
X188533333Y-70677619D01*
D11*
X208557857Y-116685713D02*
X208510238Y-116638094D01*
X208510238Y-116638094D02*
X208462619Y-116542856D01*
X208462619Y-116542856D02*
X208462619Y-116304761D01*
X208462619Y-116304761D02*
X208510238Y-116209523D01*
X208510238Y-116209523D02*
X208557857Y-116161904D01*
X208557857Y-116161904D02*
X208653095Y-116114285D01*
X208653095Y-116114285D02*
X208748333Y-116114285D01*
X208748333Y-116114285D02*
X208891190Y-116161904D01*
X208891190Y-116161904D02*
X209462619Y-116733332D01*
X209462619Y-116733332D02*
X209462619Y-116114285D01*
X208795952Y-115257142D02*
X209462619Y-115257142D01*
X208415000Y-115495237D02*
X209129285Y-115733332D01*
X209129285Y-115733332D02*
X209129285Y-115114285D01*
X211114285Y-113462619D02*
X211447618Y-114462619D01*
X211447618Y-114462619D02*
X211780951Y-113462619D01*
X212685713Y-114367380D02*
X212638094Y-114415000D01*
X212638094Y-114415000D02*
X212495237Y-114462619D01*
X212495237Y-114462619D02*
X212399999Y-114462619D01*
X212399999Y-114462619D02*
X212257142Y-114415000D01*
X212257142Y-114415000D02*
X212161904Y-114319761D01*
X212161904Y-114319761D02*
X212114285Y-114224523D01*
X212114285Y-114224523D02*
X212066666Y-114034047D01*
X212066666Y-114034047D02*
X212066666Y-113891190D01*
X212066666Y-113891190D02*
X212114285Y-113700714D01*
X212114285Y-113700714D02*
X212161904Y-113605476D01*
X212161904Y-113605476D02*
X212257142Y-113510238D01*
X212257142Y-113510238D02*
X212399999Y-113462619D01*
X212399999Y-113462619D02*
X212495237Y-113462619D01*
X212495237Y-113462619D02*
X212638094Y-113510238D01*
X212638094Y-113510238D02*
X212685713Y-113557857D01*
X213685713Y-114367380D02*
X213638094Y-114415000D01*
X213638094Y-114415000D02*
X213495237Y-114462619D01*
X213495237Y-114462619D02*
X213399999Y-114462619D01*
X213399999Y-114462619D02*
X213257142Y-114415000D01*
X213257142Y-114415000D02*
X213161904Y-114319761D01*
X213161904Y-114319761D02*
X213114285Y-114224523D01*
X213114285Y-114224523D02*
X213066666Y-114034047D01*
X213066666Y-114034047D02*
X213066666Y-113891190D01*
X213066666Y-113891190D02*
X213114285Y-113700714D01*
X213114285Y-113700714D02*
X213161904Y-113605476D01*
X213161904Y-113605476D02*
X213257142Y-113510238D01*
X213257142Y-113510238D02*
X213399999Y-113462619D01*
X213399999Y-113462619D02*
X213495237Y-113462619D01*
X213495237Y-113462619D02*
X213638094Y-113510238D01*
X213638094Y-113510238D02*
X213685713Y-113557857D01*
X187462619Y-116114285D02*
X187462619Y-116685713D01*
X187462619Y-116399999D02*
X186462619Y-116399999D01*
X186462619Y-116399999D02*
X186605476Y-116495237D01*
X186605476Y-116495237D02*
X186700714Y-116590475D01*
X186700714Y-116590475D02*
X186748333Y-116685713D01*
X186462619Y-115780951D02*
X186462619Y-115161904D01*
X186462619Y-115161904D02*
X186843571Y-115495237D01*
X186843571Y-115495237D02*
X186843571Y-115352380D01*
X186843571Y-115352380D02*
X186891190Y-115257142D01*
X186891190Y-115257142D02*
X186938809Y-115209523D01*
X186938809Y-115209523D02*
X187034047Y-115161904D01*
X187034047Y-115161904D02*
X187272142Y-115161904D01*
X187272142Y-115161904D02*
X187367380Y-115209523D01*
X187367380Y-115209523D02*
X187415000Y-115257142D01*
X187415000Y-115257142D02*
X187462619Y-115352380D01*
X187462619Y-115352380D02*
X187462619Y-115638094D01*
X187462619Y-115638094D02*
X187415000Y-115733332D01*
X187415000Y-115733332D02*
X187367380Y-115780951D01*
D10*
X210295238Y-73361904D02*
X210247619Y-73457142D01*
X210247619Y-73457142D02*
X210247619Y-73599999D01*
X210247619Y-73599999D02*
X210295238Y-73742856D01*
X210295238Y-73742856D02*
X210390476Y-73838094D01*
X210390476Y-73838094D02*
X210485714Y-73885713D01*
X210485714Y-73885713D02*
X210676190Y-73933332D01*
X210676190Y-73933332D02*
X210819047Y-73933332D01*
X210819047Y-73933332D02*
X211009523Y-73885713D01*
X211009523Y-73885713D02*
X211104761Y-73838094D01*
X211104761Y-73838094D02*
X211200000Y-73742856D01*
X211200000Y-73742856D02*
X211247619Y-73599999D01*
X211247619Y-73599999D02*
X211247619Y-73504761D01*
X211247619Y-73504761D02*
X211200000Y-73361904D01*
X211200000Y-73361904D02*
X211152380Y-73314285D01*
X211152380Y-73314285D02*
X210819047Y-73314285D01*
X210819047Y-73314285D02*
X210819047Y-73504761D01*
X211247619Y-72885713D02*
X210247619Y-72885713D01*
X210247619Y-72885713D02*
X211247619Y-72314285D01*
X211247619Y-72314285D02*
X210247619Y-72314285D01*
X211247619Y-71838094D02*
X210247619Y-71838094D01*
X210247619Y-71838094D02*
X210247619Y-71599999D01*
X210247619Y-71599999D02*
X210295238Y-71457142D01*
X210295238Y-71457142D02*
X210390476Y-71361904D01*
X210390476Y-71361904D02*
X210485714Y-71314285D01*
X210485714Y-71314285D02*
X210676190Y-71266666D01*
X210676190Y-71266666D02*
X210819047Y-71266666D01*
X210819047Y-71266666D02*
X211009523Y-71314285D01*
X211009523Y-71314285D02*
X211104761Y-71361904D01*
X211104761Y-71361904D02*
X211200000Y-71457142D01*
X211200000Y-71457142D02*
X211247619Y-71599999D01*
X211247619Y-71599999D02*
X211247619Y-71838094D01*
D11*
X211590475Y-111510238D02*
X211495237Y-111462619D01*
X211495237Y-111462619D02*
X211352380Y-111462619D01*
X211352380Y-111462619D02*
X211209523Y-111510238D01*
X211209523Y-111510238D02*
X211114285Y-111605476D01*
X211114285Y-111605476D02*
X211066666Y-111700714D01*
X211066666Y-111700714D02*
X211019047Y-111891190D01*
X211019047Y-111891190D02*
X211019047Y-112034047D01*
X211019047Y-112034047D02*
X211066666Y-112224523D01*
X211066666Y-112224523D02*
X211114285Y-112319761D01*
X211114285Y-112319761D02*
X211209523Y-112415000D01*
X211209523Y-112415000D02*
X211352380Y-112462619D01*
X211352380Y-112462619D02*
X211447618Y-112462619D01*
X211447618Y-112462619D02*
X211590475Y-112415000D01*
X211590475Y-112415000D02*
X211638094Y-112367380D01*
X211638094Y-112367380D02*
X211638094Y-112034047D01*
X211638094Y-112034047D02*
X211447618Y-112034047D01*
X212066666Y-112462619D02*
X212066666Y-111462619D01*
X212066666Y-111462619D02*
X212638094Y-112462619D01*
X212638094Y-112462619D02*
X212638094Y-111462619D01*
X213114285Y-112462619D02*
X213114285Y-111462619D01*
X213114285Y-111462619D02*
X213352380Y-111462619D01*
X213352380Y-111462619D02*
X213495237Y-111510238D01*
X213495237Y-111510238D02*
X213590475Y-111605476D01*
X213590475Y-111605476D02*
X213638094Y-111700714D01*
X213638094Y-111700714D02*
X213685713Y-111891190D01*
X213685713Y-111891190D02*
X213685713Y-112034047D01*
X213685713Y-112034047D02*
X213638094Y-112224523D01*
X213638094Y-112224523D02*
X213590475Y-112319761D01*
X213590475Y-112319761D02*
X213495237Y-112415000D01*
X213495237Y-112415000D02*
X213352380Y-112462619D01*
X213352380Y-112462619D02*
X213114285Y-112462619D01*
X212114285Y-99462619D02*
X212733332Y-99462619D01*
X212733332Y-99462619D02*
X212399999Y-99843571D01*
X212399999Y-99843571D02*
X212542856Y-99843571D01*
X212542856Y-99843571D02*
X212638094Y-99891190D01*
X212638094Y-99891190D02*
X212685713Y-99938809D01*
X212685713Y-99938809D02*
X212733332Y-100034047D01*
X212733332Y-100034047D02*
X212733332Y-100272142D01*
X212733332Y-100272142D02*
X212685713Y-100367380D01*
X212685713Y-100367380D02*
X212638094Y-100415000D01*
X212638094Y-100415000D02*
X212542856Y-100462619D01*
X212542856Y-100462619D02*
X212257142Y-100462619D01*
X212257142Y-100462619D02*
X212161904Y-100415000D01*
X212161904Y-100415000D02*
X212114285Y-100367380D01*
X213114285Y-99557857D02*
X213161904Y-99510238D01*
X213161904Y-99510238D02*
X213257142Y-99462619D01*
X213257142Y-99462619D02*
X213495237Y-99462619D01*
X213495237Y-99462619D02*
X213590475Y-99510238D01*
X213590475Y-99510238D02*
X213638094Y-99557857D01*
X213638094Y-99557857D02*
X213685713Y-99653095D01*
X213685713Y-99653095D02*
X213685713Y-99748333D01*
X213685713Y-99748333D02*
X213638094Y-99891190D01*
X213638094Y-99891190D02*
X213066666Y-100462619D01*
X213066666Y-100462619D02*
X213685713Y-100462619D01*
X186885714Y-110462619D02*
X186314286Y-110462619D01*
X186600000Y-110462619D02*
X186600000Y-109462619D01*
X186600000Y-109462619D02*
X186504762Y-109605476D01*
X186504762Y-109605476D02*
X186409524Y-109700714D01*
X186409524Y-109700714D02*
X186314286Y-109748333D01*
X187266667Y-109557857D02*
X187314286Y-109510238D01*
X187314286Y-109510238D02*
X187409524Y-109462619D01*
X187409524Y-109462619D02*
X187647619Y-109462619D01*
X187647619Y-109462619D02*
X187742857Y-109510238D01*
X187742857Y-109510238D02*
X187790476Y-109557857D01*
X187790476Y-109557857D02*
X187838095Y-109653095D01*
X187838095Y-109653095D02*
X187838095Y-109748333D01*
X187838095Y-109748333D02*
X187790476Y-109891190D01*
X187790476Y-109891190D02*
X187219048Y-110462619D01*
X187219048Y-110462619D02*
X187838095Y-110462619D01*
X186409524Y-104462619D02*
X186600000Y-104462619D01*
X186600000Y-104462619D02*
X186695238Y-104415000D01*
X186695238Y-104415000D02*
X186742857Y-104367380D01*
X186742857Y-104367380D02*
X186838095Y-104224523D01*
X186838095Y-104224523D02*
X186885714Y-104034047D01*
X186885714Y-104034047D02*
X186885714Y-103653095D01*
X186885714Y-103653095D02*
X186838095Y-103557857D01*
X186838095Y-103557857D02*
X186790476Y-103510238D01*
X186790476Y-103510238D02*
X186695238Y-103462619D01*
X186695238Y-103462619D02*
X186504762Y-103462619D01*
X186504762Y-103462619D02*
X186409524Y-103510238D01*
X186409524Y-103510238D02*
X186361905Y-103557857D01*
X186361905Y-103557857D02*
X186314286Y-103653095D01*
X186314286Y-103653095D02*
X186314286Y-103891190D01*
X186314286Y-103891190D02*
X186361905Y-103986428D01*
X186361905Y-103986428D02*
X186409524Y-104034047D01*
X186409524Y-104034047D02*
X186504762Y-104081666D01*
X186504762Y-104081666D02*
X186695238Y-104081666D01*
X186695238Y-104081666D02*
X186790476Y-104034047D01*
X186790476Y-104034047D02*
X186838095Y-103986428D01*
X186838095Y-103986428D02*
X186885714Y-103891190D01*
X212114285Y-95462619D02*
X212733332Y-95462619D01*
X212733332Y-95462619D02*
X212399999Y-95843571D01*
X212399999Y-95843571D02*
X212542856Y-95843571D01*
X212542856Y-95843571D02*
X212638094Y-95891190D01*
X212638094Y-95891190D02*
X212685713Y-95938809D01*
X212685713Y-95938809D02*
X212733332Y-96034047D01*
X212733332Y-96034047D02*
X212733332Y-96272142D01*
X212733332Y-96272142D02*
X212685713Y-96367380D01*
X212685713Y-96367380D02*
X212638094Y-96415000D01*
X212638094Y-96415000D02*
X212542856Y-96462619D01*
X212542856Y-96462619D02*
X212257142Y-96462619D01*
X212257142Y-96462619D02*
X212161904Y-96415000D01*
X212161904Y-96415000D02*
X212114285Y-96367380D01*
X213590475Y-95795952D02*
X213590475Y-96462619D01*
X213352380Y-95415000D02*
X213114285Y-96129285D01*
X213114285Y-96129285D02*
X213733332Y-96129285D01*
D10*
X192242857Y-80700000D02*
X192385714Y-80747619D01*
X192385714Y-80747619D02*
X192623809Y-80747619D01*
X192623809Y-80747619D02*
X192719047Y-80700000D01*
X192719047Y-80700000D02*
X192766666Y-80652380D01*
X192766666Y-80652380D02*
X192814285Y-80557142D01*
X192814285Y-80557142D02*
X192814285Y-80461904D01*
X192814285Y-80461904D02*
X192766666Y-80366666D01*
X192766666Y-80366666D02*
X192719047Y-80319047D01*
X192719047Y-80319047D02*
X192623809Y-80271428D01*
X192623809Y-80271428D02*
X192433333Y-80223809D01*
X192433333Y-80223809D02*
X192338095Y-80176190D01*
X192338095Y-80176190D02*
X192290476Y-80128571D01*
X192290476Y-80128571D02*
X192242857Y-80033333D01*
X192242857Y-80033333D02*
X192242857Y-79938095D01*
X192242857Y-79938095D02*
X192290476Y-79842857D01*
X192290476Y-79842857D02*
X192338095Y-79795238D01*
X192338095Y-79795238D02*
X192433333Y-79747619D01*
X192433333Y-79747619D02*
X192671428Y-79747619D01*
X192671428Y-79747619D02*
X192814285Y-79795238D01*
X193147619Y-79747619D02*
X193385714Y-80747619D01*
X193385714Y-80747619D02*
X193576190Y-80033333D01*
X193576190Y-80033333D02*
X193766666Y-80747619D01*
X193766666Y-80747619D02*
X194004762Y-79747619D01*
X194385714Y-80747619D02*
X194385714Y-79747619D01*
X194385714Y-79747619D02*
X194623809Y-79747619D01*
X194623809Y-79747619D02*
X194766666Y-79795238D01*
X194766666Y-79795238D02*
X194861904Y-79890476D01*
X194861904Y-79890476D02*
X194909523Y-79985714D01*
X194909523Y-79985714D02*
X194957142Y-80176190D01*
X194957142Y-80176190D02*
X194957142Y-80319047D01*
X194957142Y-80319047D02*
X194909523Y-80509523D01*
X194909523Y-80509523D02*
X194861904Y-80604761D01*
X194861904Y-80604761D02*
X194766666Y-80700000D01*
X194766666Y-80700000D02*
X194623809Y-80747619D01*
X194623809Y-80747619D02*
X194385714Y-80747619D01*
X190414285Y-86847619D02*
X189938095Y-86847619D01*
X189938095Y-86847619D02*
X189938095Y-85847619D01*
X190747619Y-86323809D02*
X191080952Y-86323809D01*
X191223809Y-86847619D02*
X190747619Y-86847619D01*
X190747619Y-86847619D02*
X190747619Y-85847619D01*
X190747619Y-85847619D02*
X191223809Y-85847619D01*
X191652381Y-86847619D02*
X191652381Y-85847619D01*
X191652381Y-85847619D02*
X191890476Y-85847619D01*
X191890476Y-85847619D02*
X192033333Y-85895238D01*
X192033333Y-85895238D02*
X192128571Y-85990476D01*
X192128571Y-85990476D02*
X192176190Y-86085714D01*
X192176190Y-86085714D02*
X192223809Y-86276190D01*
X192223809Y-86276190D02*
X192223809Y-86419047D01*
X192223809Y-86419047D02*
X192176190Y-86609523D01*
X192176190Y-86609523D02*
X192128571Y-86704761D01*
X192128571Y-86704761D02*
X192033333Y-86800000D01*
X192033333Y-86800000D02*
X191890476Y-86847619D01*
X191890476Y-86847619D02*
X191652381Y-86847619D01*
X192604762Y-85942857D02*
X192652381Y-85895238D01*
X192652381Y-85895238D02*
X192747619Y-85847619D01*
X192747619Y-85847619D02*
X192985714Y-85847619D01*
X192985714Y-85847619D02*
X193080952Y-85895238D01*
X193080952Y-85895238D02*
X193128571Y-85942857D01*
X193128571Y-85942857D02*
X193176190Y-86038095D01*
X193176190Y-86038095D02*
X193176190Y-86133333D01*
X193176190Y-86133333D02*
X193128571Y-86276190D01*
X193128571Y-86276190D02*
X192557143Y-86847619D01*
X192557143Y-86847619D02*
X193176190Y-86847619D01*
D11*
X191462619Y-116114285D02*
X191462619Y-116685713D01*
X191462619Y-116399999D02*
X190462619Y-116399999D01*
X190462619Y-116399999D02*
X190605476Y-116495237D01*
X190605476Y-116495237D02*
X190700714Y-116590475D01*
X190700714Y-116590475D02*
X190748333Y-116685713D01*
X190462619Y-115209523D02*
X190462619Y-115685713D01*
X190462619Y-115685713D02*
X190938809Y-115733332D01*
X190938809Y-115733332D02*
X190891190Y-115685713D01*
X190891190Y-115685713D02*
X190843571Y-115590475D01*
X190843571Y-115590475D02*
X190843571Y-115352380D01*
X190843571Y-115352380D02*
X190891190Y-115257142D01*
X190891190Y-115257142D02*
X190938809Y-115209523D01*
X190938809Y-115209523D02*
X191034047Y-115161904D01*
X191034047Y-115161904D02*
X191272142Y-115161904D01*
X191272142Y-115161904D02*
X191367380Y-115209523D01*
X191367380Y-115209523D02*
X191415000Y-115257142D01*
X191415000Y-115257142D02*
X191462619Y-115352380D01*
X191462619Y-115352380D02*
X191462619Y-115590475D01*
X191462619Y-115590475D02*
X191415000Y-115685713D01*
X191415000Y-115685713D02*
X191367380Y-115733332D01*
X186790476Y-97462619D02*
X186600000Y-97462619D01*
X186600000Y-97462619D02*
X186504762Y-97510238D01*
X186504762Y-97510238D02*
X186457143Y-97557857D01*
X186457143Y-97557857D02*
X186361905Y-97700714D01*
X186361905Y-97700714D02*
X186314286Y-97891190D01*
X186314286Y-97891190D02*
X186314286Y-98272142D01*
X186314286Y-98272142D02*
X186361905Y-98367380D01*
X186361905Y-98367380D02*
X186409524Y-98415000D01*
X186409524Y-98415000D02*
X186504762Y-98462619D01*
X186504762Y-98462619D02*
X186695238Y-98462619D01*
X186695238Y-98462619D02*
X186790476Y-98415000D01*
X186790476Y-98415000D02*
X186838095Y-98367380D01*
X186838095Y-98367380D02*
X186885714Y-98272142D01*
X186885714Y-98272142D02*
X186885714Y-98034047D01*
X186885714Y-98034047D02*
X186838095Y-97938809D01*
X186838095Y-97938809D02*
X186790476Y-97891190D01*
X186790476Y-97891190D02*
X186695238Y-97843571D01*
X186695238Y-97843571D02*
X186504762Y-97843571D01*
X186504762Y-97843571D02*
X186409524Y-97891190D01*
X186409524Y-97891190D02*
X186361905Y-97938809D01*
X186361905Y-97938809D02*
X186314286Y-98034047D01*
X186266667Y-113462619D02*
X186885714Y-113462619D01*
X186885714Y-113462619D02*
X186552381Y-113843571D01*
X186552381Y-113843571D02*
X186695238Y-113843571D01*
X186695238Y-113843571D02*
X186790476Y-113891190D01*
X186790476Y-113891190D02*
X186838095Y-113938809D01*
X186838095Y-113938809D02*
X186885714Y-114034047D01*
X186885714Y-114034047D02*
X186885714Y-114272142D01*
X186885714Y-114272142D02*
X186838095Y-114367380D01*
X186838095Y-114367380D02*
X186790476Y-114415000D01*
X186790476Y-114415000D02*
X186695238Y-114462619D01*
X186695238Y-114462619D02*
X186409524Y-114462619D01*
X186409524Y-114462619D02*
X186314286Y-114415000D01*
X186314286Y-114415000D02*
X186266667Y-114367380D01*
X187314286Y-114367380D02*
X187361905Y-114415000D01*
X187361905Y-114415000D02*
X187314286Y-114462619D01*
X187314286Y-114462619D02*
X187266667Y-114415000D01*
X187266667Y-114415000D02*
X187314286Y-114367380D01*
X187314286Y-114367380D02*
X187314286Y-114462619D01*
X187695238Y-113462619D02*
X188314285Y-113462619D01*
X188314285Y-113462619D02*
X187980952Y-113843571D01*
X187980952Y-113843571D02*
X188123809Y-113843571D01*
X188123809Y-113843571D02*
X188219047Y-113891190D01*
X188219047Y-113891190D02*
X188266666Y-113938809D01*
X188266666Y-113938809D02*
X188314285Y-114034047D01*
X188314285Y-114034047D02*
X188314285Y-114272142D01*
X188314285Y-114272142D02*
X188266666Y-114367380D01*
X188266666Y-114367380D02*
X188219047Y-114415000D01*
X188219047Y-114415000D02*
X188123809Y-114462619D01*
X188123809Y-114462619D02*
X187838095Y-114462619D01*
X187838095Y-114462619D02*
X187742857Y-114415000D01*
X187742857Y-114415000D02*
X187695238Y-114367380D01*
X188600000Y-113462619D02*
X188933333Y-114462619D01*
X188933333Y-114462619D02*
X189266666Y-113462619D01*
X206557857Y-116685713D02*
X206510238Y-116638094D01*
X206510238Y-116638094D02*
X206462619Y-116542856D01*
X206462619Y-116542856D02*
X206462619Y-116304761D01*
X206462619Y-116304761D02*
X206510238Y-116209523D01*
X206510238Y-116209523D02*
X206557857Y-116161904D01*
X206557857Y-116161904D02*
X206653095Y-116114285D01*
X206653095Y-116114285D02*
X206748333Y-116114285D01*
X206748333Y-116114285D02*
X206891190Y-116161904D01*
X206891190Y-116161904D02*
X207462619Y-116733332D01*
X207462619Y-116733332D02*
X207462619Y-116114285D01*
X206462619Y-115780951D02*
X206462619Y-115161904D01*
X206462619Y-115161904D02*
X206843571Y-115495237D01*
X206843571Y-115495237D02*
X206843571Y-115352380D01*
X206843571Y-115352380D02*
X206891190Y-115257142D01*
X206891190Y-115257142D02*
X206938809Y-115209523D01*
X206938809Y-115209523D02*
X207034047Y-115161904D01*
X207034047Y-115161904D02*
X207272142Y-115161904D01*
X207272142Y-115161904D02*
X207367380Y-115209523D01*
X207367380Y-115209523D02*
X207415000Y-115257142D01*
X207415000Y-115257142D02*
X207462619Y-115352380D01*
X207462619Y-115352380D02*
X207462619Y-115638094D01*
X207462619Y-115638094D02*
X207415000Y-115733332D01*
X207415000Y-115733332D02*
X207367380Y-115780951D01*
D10*
X191023809Y-71500000D02*
X191166666Y-71547619D01*
X191166666Y-71547619D02*
X191404761Y-71547619D01*
X191404761Y-71547619D02*
X191499999Y-71500000D01*
X191499999Y-71500000D02*
X191547618Y-71452380D01*
X191547618Y-71452380D02*
X191595237Y-71357142D01*
X191595237Y-71357142D02*
X191595237Y-71261904D01*
X191595237Y-71261904D02*
X191547618Y-71166666D01*
X191547618Y-71166666D02*
X191499999Y-71119047D01*
X191499999Y-71119047D02*
X191404761Y-71071428D01*
X191404761Y-71071428D02*
X191214285Y-71023809D01*
X191214285Y-71023809D02*
X191119047Y-70976190D01*
X191119047Y-70976190D02*
X191071428Y-70928571D01*
X191071428Y-70928571D02*
X191023809Y-70833333D01*
X191023809Y-70833333D02*
X191023809Y-70738095D01*
X191023809Y-70738095D02*
X191071428Y-70642857D01*
X191071428Y-70642857D02*
X191119047Y-70595238D01*
X191119047Y-70595238D02*
X191214285Y-70547619D01*
X191214285Y-70547619D02*
X191452380Y-70547619D01*
X191452380Y-70547619D02*
X191595237Y-70595238D01*
X191880952Y-70547619D02*
X192452380Y-70547619D01*
X192166666Y-71547619D02*
X192166666Y-70547619D01*
X192738095Y-71261904D02*
X193214285Y-71261904D01*
X192642857Y-71547619D02*
X192976190Y-70547619D01*
X192976190Y-70547619D02*
X193309523Y-71547619D01*
X193500000Y-70547619D02*
X194071428Y-70547619D01*
X193785714Y-71547619D02*
X193785714Y-70547619D01*
X191038095Y-76047619D02*
X191038095Y-75047619D01*
X191038095Y-75047619D02*
X191419047Y-75047619D01*
X191419047Y-75047619D02*
X191514285Y-75095238D01*
X191514285Y-75095238D02*
X191561904Y-75142857D01*
X191561904Y-75142857D02*
X191609523Y-75238095D01*
X191609523Y-75238095D02*
X191609523Y-75380952D01*
X191609523Y-75380952D02*
X191561904Y-75476190D01*
X191561904Y-75476190D02*
X191514285Y-75523809D01*
X191514285Y-75523809D02*
X191419047Y-75571428D01*
X191419047Y-75571428D02*
X191038095Y-75571428D01*
X191942857Y-75047619D02*
X192180952Y-76047619D01*
X192180952Y-76047619D02*
X192371428Y-75333333D01*
X192371428Y-75333333D02*
X192561904Y-76047619D01*
X192561904Y-76047619D02*
X192800000Y-75047619D01*
X193752380Y-76047619D02*
X193419047Y-75571428D01*
X193180952Y-76047619D02*
X193180952Y-75047619D01*
X193180952Y-75047619D02*
X193561904Y-75047619D01*
X193561904Y-75047619D02*
X193657142Y-75095238D01*
X193657142Y-75095238D02*
X193704761Y-75142857D01*
X193704761Y-75142857D02*
X193752380Y-75238095D01*
X193752380Y-75238095D02*
X193752380Y-75380952D01*
X193752380Y-75380952D02*
X193704761Y-75476190D01*
X193704761Y-75476190D02*
X193657142Y-75523809D01*
X193657142Y-75523809D02*
X193561904Y-75571428D01*
X193561904Y-75571428D02*
X193180952Y-75571428D01*
D11*
X186314286Y-89557857D02*
X186361905Y-89510238D01*
X186361905Y-89510238D02*
X186457143Y-89462619D01*
X186457143Y-89462619D02*
X186695238Y-89462619D01*
X186695238Y-89462619D02*
X186790476Y-89510238D01*
X186790476Y-89510238D02*
X186838095Y-89557857D01*
X186838095Y-89557857D02*
X186885714Y-89653095D01*
X186885714Y-89653095D02*
X186885714Y-89748333D01*
X186885714Y-89748333D02*
X186838095Y-89891190D01*
X186838095Y-89891190D02*
X186266667Y-90462619D01*
X186266667Y-90462619D02*
X186885714Y-90462619D01*
X186790476Y-93795952D02*
X186790476Y-94462619D01*
X186552381Y-93415000D02*
X186314286Y-94129285D01*
X186314286Y-94129285D02*
X186933333Y-94129285D01*
X212161904Y-107557857D02*
X212209523Y-107510238D01*
X212209523Y-107510238D02*
X212304761Y-107462619D01*
X212304761Y-107462619D02*
X212542856Y-107462619D01*
X212542856Y-107462619D02*
X212638094Y-107510238D01*
X212638094Y-107510238D02*
X212685713Y-107557857D01*
X212685713Y-107557857D02*
X212733332Y-107653095D01*
X212733332Y-107653095D02*
X212733332Y-107748333D01*
X212733332Y-107748333D02*
X212685713Y-107891190D01*
X212685713Y-107891190D02*
X212114285Y-108462619D01*
X212114285Y-108462619D02*
X212733332Y-108462619D01*
X213304761Y-107891190D02*
X213209523Y-107843571D01*
X213209523Y-107843571D02*
X213161904Y-107795952D01*
X213161904Y-107795952D02*
X213114285Y-107700714D01*
X213114285Y-107700714D02*
X213114285Y-107653095D01*
X213114285Y-107653095D02*
X213161904Y-107557857D01*
X213161904Y-107557857D02*
X213209523Y-107510238D01*
X213209523Y-107510238D02*
X213304761Y-107462619D01*
X213304761Y-107462619D02*
X213495237Y-107462619D01*
X213495237Y-107462619D02*
X213590475Y-107510238D01*
X213590475Y-107510238D02*
X213638094Y-107557857D01*
X213638094Y-107557857D02*
X213685713Y-107653095D01*
X213685713Y-107653095D02*
X213685713Y-107700714D01*
X213685713Y-107700714D02*
X213638094Y-107795952D01*
X213638094Y-107795952D02*
X213590475Y-107843571D01*
X213590475Y-107843571D02*
X213495237Y-107891190D01*
X213495237Y-107891190D02*
X213304761Y-107891190D01*
X213304761Y-107891190D02*
X213209523Y-107938809D01*
X213209523Y-107938809D02*
X213161904Y-107986428D01*
X213161904Y-107986428D02*
X213114285Y-108081666D01*
X213114285Y-108081666D02*
X213114285Y-108272142D01*
X213114285Y-108272142D02*
X213161904Y-108367380D01*
X213161904Y-108367380D02*
X213209523Y-108415000D01*
X213209523Y-108415000D02*
X213304761Y-108462619D01*
X213304761Y-108462619D02*
X213495237Y-108462619D01*
X213495237Y-108462619D02*
X213590475Y-108415000D01*
X213590475Y-108415000D02*
X213638094Y-108367380D01*
X213638094Y-108367380D02*
X213685713Y-108272142D01*
X213685713Y-108272142D02*
X213685713Y-108081666D01*
X213685713Y-108081666D02*
X213638094Y-107986428D01*
X213638094Y-107986428D02*
X213590475Y-107938809D01*
X213590475Y-107938809D02*
X213495237Y-107891190D01*
X186504762Y-101891190D02*
X186409524Y-101843571D01*
X186409524Y-101843571D02*
X186361905Y-101795952D01*
X186361905Y-101795952D02*
X186314286Y-101700714D01*
X186314286Y-101700714D02*
X186314286Y-101653095D01*
X186314286Y-101653095D02*
X186361905Y-101557857D01*
X186361905Y-101557857D02*
X186409524Y-101510238D01*
X186409524Y-101510238D02*
X186504762Y-101462619D01*
X186504762Y-101462619D02*
X186695238Y-101462619D01*
X186695238Y-101462619D02*
X186790476Y-101510238D01*
X186790476Y-101510238D02*
X186838095Y-101557857D01*
X186838095Y-101557857D02*
X186885714Y-101653095D01*
X186885714Y-101653095D02*
X186885714Y-101700714D01*
X186885714Y-101700714D02*
X186838095Y-101795952D01*
X186838095Y-101795952D02*
X186790476Y-101843571D01*
X186790476Y-101843571D02*
X186695238Y-101891190D01*
X186695238Y-101891190D02*
X186504762Y-101891190D01*
X186504762Y-101891190D02*
X186409524Y-101938809D01*
X186409524Y-101938809D02*
X186361905Y-101986428D01*
X186361905Y-101986428D02*
X186314286Y-102081666D01*
X186314286Y-102081666D02*
X186314286Y-102272142D01*
X186314286Y-102272142D02*
X186361905Y-102367380D01*
X186361905Y-102367380D02*
X186409524Y-102415000D01*
X186409524Y-102415000D02*
X186504762Y-102462619D01*
X186504762Y-102462619D02*
X186695238Y-102462619D01*
X186695238Y-102462619D02*
X186790476Y-102415000D01*
X186790476Y-102415000D02*
X186838095Y-102367380D01*
X186838095Y-102367380D02*
X186885714Y-102272142D01*
X186885714Y-102272142D02*
X186885714Y-102081666D01*
X186885714Y-102081666D02*
X186838095Y-101986428D01*
X186838095Y-101986428D02*
X186790476Y-101938809D01*
X186790476Y-101938809D02*
X186695238Y-101891190D01*
X212114285Y-91462619D02*
X212733332Y-91462619D01*
X212733332Y-91462619D02*
X212399999Y-91843571D01*
X212399999Y-91843571D02*
X212542856Y-91843571D01*
X212542856Y-91843571D02*
X212638094Y-91891190D01*
X212638094Y-91891190D02*
X212685713Y-91938809D01*
X212685713Y-91938809D02*
X212733332Y-92034047D01*
X212733332Y-92034047D02*
X212733332Y-92272142D01*
X212733332Y-92272142D02*
X212685713Y-92367380D01*
X212685713Y-92367380D02*
X212638094Y-92415000D01*
X212638094Y-92415000D02*
X212542856Y-92462619D01*
X212542856Y-92462619D02*
X212257142Y-92462619D01*
X212257142Y-92462619D02*
X212161904Y-92415000D01*
X212161904Y-92415000D02*
X212114285Y-92367380D01*
X213590475Y-91462619D02*
X213399999Y-91462619D01*
X213399999Y-91462619D02*
X213304761Y-91510238D01*
X213304761Y-91510238D02*
X213257142Y-91557857D01*
X213257142Y-91557857D02*
X213161904Y-91700714D01*
X213161904Y-91700714D02*
X213114285Y-91891190D01*
X213114285Y-91891190D02*
X213114285Y-92272142D01*
X213114285Y-92272142D02*
X213161904Y-92367380D01*
X213161904Y-92367380D02*
X213209523Y-92415000D01*
X213209523Y-92415000D02*
X213304761Y-92462619D01*
X213304761Y-92462619D02*
X213495237Y-92462619D01*
X213495237Y-92462619D02*
X213590475Y-92415000D01*
X213590475Y-92415000D02*
X213638094Y-92367380D01*
X213638094Y-92367380D02*
X213685713Y-92272142D01*
X213685713Y-92272142D02*
X213685713Y-92034047D01*
X213685713Y-92034047D02*
X213638094Y-91938809D01*
X213638094Y-91938809D02*
X213590475Y-91891190D01*
X213590475Y-91891190D02*
X213495237Y-91843571D01*
X213495237Y-91843571D02*
X213304761Y-91843571D01*
X213304761Y-91843571D02*
X213209523Y-91891190D01*
X213209523Y-91891190D02*
X213161904Y-91938809D01*
X213161904Y-91938809D02*
X213114285Y-92034047D01*
X186266667Y-99462619D02*
X186933333Y-99462619D01*
X186933333Y-99462619D02*
X186504762Y-100462619D01*
X202557857Y-116685713D02*
X202510238Y-116638094D01*
X202510238Y-116638094D02*
X202462619Y-116542856D01*
X202462619Y-116542856D02*
X202462619Y-116304761D01*
X202462619Y-116304761D02*
X202510238Y-116209523D01*
X202510238Y-116209523D02*
X202557857Y-116161904D01*
X202557857Y-116161904D02*
X202653095Y-116114285D01*
X202653095Y-116114285D02*
X202748333Y-116114285D01*
X202748333Y-116114285D02*
X202891190Y-116161904D01*
X202891190Y-116161904D02*
X203462619Y-116733332D01*
X203462619Y-116733332D02*
X203462619Y-116114285D01*
X203462619Y-115161904D02*
X203462619Y-115733332D01*
X203462619Y-115447618D02*
X202462619Y-115447618D01*
X202462619Y-115447618D02*
X202605476Y-115542856D01*
X202605476Y-115542856D02*
X202700714Y-115638094D01*
X202700714Y-115638094D02*
X202748333Y-115733332D01*
X186885714Y-108462619D02*
X186314286Y-108462619D01*
X186600000Y-108462619D02*
X186600000Y-107462619D01*
X186600000Y-107462619D02*
X186504762Y-107605476D01*
X186504762Y-107605476D02*
X186409524Y-107700714D01*
X186409524Y-107700714D02*
X186314286Y-107748333D01*
X187838095Y-108462619D02*
X187266667Y-108462619D01*
X187552381Y-108462619D02*
X187552381Y-107462619D01*
X187552381Y-107462619D02*
X187457143Y-107605476D01*
X187457143Y-107605476D02*
X187361905Y-107700714D01*
X187361905Y-107700714D02*
X187266667Y-107748333D01*
X200557857Y-116685713D02*
X200510238Y-116638094D01*
X200510238Y-116638094D02*
X200462619Y-116542856D01*
X200462619Y-116542856D02*
X200462619Y-116304761D01*
X200462619Y-116304761D02*
X200510238Y-116209523D01*
X200510238Y-116209523D02*
X200557857Y-116161904D01*
X200557857Y-116161904D02*
X200653095Y-116114285D01*
X200653095Y-116114285D02*
X200748333Y-116114285D01*
X200748333Y-116114285D02*
X200891190Y-116161904D01*
X200891190Y-116161904D02*
X201462619Y-116733332D01*
X201462619Y-116733332D02*
X201462619Y-116114285D01*
X200462619Y-115495237D02*
X200462619Y-115399999D01*
X200462619Y-115399999D02*
X200510238Y-115304761D01*
X200510238Y-115304761D02*
X200557857Y-115257142D01*
X200557857Y-115257142D02*
X200653095Y-115209523D01*
X200653095Y-115209523D02*
X200843571Y-115161904D01*
X200843571Y-115161904D02*
X201081666Y-115161904D01*
X201081666Y-115161904D02*
X201272142Y-115209523D01*
X201272142Y-115209523D02*
X201367380Y-115257142D01*
X201367380Y-115257142D02*
X201415000Y-115304761D01*
X201415000Y-115304761D02*
X201462619Y-115399999D01*
X201462619Y-115399999D02*
X201462619Y-115495237D01*
X201462619Y-115495237D02*
X201415000Y-115590475D01*
X201415000Y-115590475D02*
X201367380Y-115638094D01*
X201367380Y-115638094D02*
X201272142Y-115685713D01*
X201272142Y-115685713D02*
X201081666Y-115733332D01*
X201081666Y-115733332D02*
X200843571Y-115733332D01*
X200843571Y-115733332D02*
X200653095Y-115685713D01*
X200653095Y-115685713D02*
X200557857Y-115638094D01*
X200557857Y-115638094D02*
X200510238Y-115590475D01*
X200510238Y-115590475D02*
X200462619Y-115495237D01*
X186838095Y-95462619D02*
X186361905Y-95462619D01*
X186361905Y-95462619D02*
X186314286Y-95938809D01*
X186314286Y-95938809D02*
X186361905Y-95891190D01*
X186361905Y-95891190D02*
X186457143Y-95843571D01*
X186457143Y-95843571D02*
X186695238Y-95843571D01*
X186695238Y-95843571D02*
X186790476Y-95891190D01*
X186790476Y-95891190D02*
X186838095Y-95938809D01*
X186838095Y-95938809D02*
X186885714Y-96034047D01*
X186885714Y-96034047D02*
X186885714Y-96272142D01*
X186885714Y-96272142D02*
X186838095Y-96367380D01*
X186838095Y-96367380D02*
X186790476Y-96415000D01*
X186790476Y-96415000D02*
X186695238Y-96462619D01*
X186695238Y-96462619D02*
X186457143Y-96462619D01*
X186457143Y-96462619D02*
X186361905Y-96415000D01*
X186361905Y-96415000D02*
X186314286Y-96367380D01*
D10*
X186314285Y-86847619D02*
X185838095Y-86847619D01*
X185838095Y-86847619D02*
X185838095Y-85847619D01*
X186647619Y-86323809D02*
X186980952Y-86323809D01*
X187123809Y-86847619D02*
X186647619Y-86847619D01*
X186647619Y-86847619D02*
X186647619Y-85847619D01*
X186647619Y-85847619D02*
X187123809Y-85847619D01*
X187552381Y-86847619D02*
X187552381Y-85847619D01*
X187552381Y-85847619D02*
X187790476Y-85847619D01*
X187790476Y-85847619D02*
X187933333Y-85895238D01*
X187933333Y-85895238D02*
X188028571Y-85990476D01*
X188028571Y-85990476D02*
X188076190Y-86085714D01*
X188076190Y-86085714D02*
X188123809Y-86276190D01*
X188123809Y-86276190D02*
X188123809Y-86419047D01*
X188123809Y-86419047D02*
X188076190Y-86609523D01*
X188076190Y-86609523D02*
X188028571Y-86704761D01*
X188028571Y-86704761D02*
X187933333Y-86800000D01*
X187933333Y-86800000D02*
X187790476Y-86847619D01*
X187790476Y-86847619D02*
X187552381Y-86847619D01*
X189076190Y-86847619D02*
X188504762Y-86847619D01*
X188790476Y-86847619D02*
X188790476Y-85847619D01*
X188790476Y-85847619D02*
X188695238Y-85990476D01*
X188695238Y-85990476D02*
X188600000Y-86085714D01*
X188600000Y-86085714D02*
X188504762Y-86133333D01*
D11*
X212161904Y-105557857D02*
X212209523Y-105510238D01*
X212209523Y-105510238D02*
X212304761Y-105462619D01*
X212304761Y-105462619D02*
X212542856Y-105462619D01*
X212542856Y-105462619D02*
X212638094Y-105510238D01*
X212638094Y-105510238D02*
X212685713Y-105557857D01*
X212685713Y-105557857D02*
X212733332Y-105653095D01*
X212733332Y-105653095D02*
X212733332Y-105748333D01*
X212733332Y-105748333D02*
X212685713Y-105891190D01*
X212685713Y-105891190D02*
X212114285Y-106462619D01*
X212114285Y-106462619D02*
X212733332Y-106462619D01*
X213209523Y-106462619D02*
X213399999Y-106462619D01*
X213399999Y-106462619D02*
X213495237Y-106415000D01*
X213495237Y-106415000D02*
X213542856Y-106367380D01*
X213542856Y-106367380D02*
X213638094Y-106224523D01*
X213638094Y-106224523D02*
X213685713Y-106034047D01*
X213685713Y-106034047D02*
X213685713Y-105653095D01*
X213685713Y-105653095D02*
X213638094Y-105557857D01*
X213638094Y-105557857D02*
X213590475Y-105510238D01*
X213590475Y-105510238D02*
X213495237Y-105462619D01*
X213495237Y-105462619D02*
X213304761Y-105462619D01*
X213304761Y-105462619D02*
X213209523Y-105510238D01*
X213209523Y-105510238D02*
X213161904Y-105557857D01*
X213161904Y-105557857D02*
X213114285Y-105653095D01*
X213114285Y-105653095D02*
X213114285Y-105891190D01*
X213114285Y-105891190D02*
X213161904Y-105986428D01*
X213161904Y-105986428D02*
X213209523Y-106034047D01*
X213209523Y-106034047D02*
X213304761Y-106081666D01*
X213304761Y-106081666D02*
X213495237Y-106081666D01*
X213495237Y-106081666D02*
X213590475Y-106034047D01*
X213590475Y-106034047D02*
X213638094Y-105986428D01*
X213638094Y-105986428D02*
X213685713Y-105891190D01*
X197462619Y-116114285D02*
X197462619Y-116685713D01*
X197462619Y-116399999D02*
X196462619Y-116399999D01*
X196462619Y-116399999D02*
X196605476Y-116495237D01*
X196605476Y-116495237D02*
X196700714Y-116590475D01*
X196700714Y-116590475D02*
X196748333Y-116685713D01*
X196891190Y-115542856D02*
X196843571Y-115638094D01*
X196843571Y-115638094D02*
X196795952Y-115685713D01*
X196795952Y-115685713D02*
X196700714Y-115733332D01*
X196700714Y-115733332D02*
X196653095Y-115733332D01*
X196653095Y-115733332D02*
X196557857Y-115685713D01*
X196557857Y-115685713D02*
X196510238Y-115638094D01*
X196510238Y-115638094D02*
X196462619Y-115542856D01*
X196462619Y-115542856D02*
X196462619Y-115352380D01*
X196462619Y-115352380D02*
X196510238Y-115257142D01*
X196510238Y-115257142D02*
X196557857Y-115209523D01*
X196557857Y-115209523D02*
X196653095Y-115161904D01*
X196653095Y-115161904D02*
X196700714Y-115161904D01*
X196700714Y-115161904D02*
X196795952Y-115209523D01*
X196795952Y-115209523D02*
X196843571Y-115257142D01*
X196843571Y-115257142D02*
X196891190Y-115352380D01*
X196891190Y-115352380D02*
X196891190Y-115542856D01*
X196891190Y-115542856D02*
X196938809Y-115638094D01*
X196938809Y-115638094D02*
X196986428Y-115685713D01*
X196986428Y-115685713D02*
X197081666Y-115733332D01*
X197081666Y-115733332D02*
X197272142Y-115733332D01*
X197272142Y-115733332D02*
X197367380Y-115685713D01*
X197367380Y-115685713D02*
X197415000Y-115638094D01*
X197415000Y-115638094D02*
X197462619Y-115542856D01*
X197462619Y-115542856D02*
X197462619Y-115352380D01*
X197462619Y-115352380D02*
X197415000Y-115257142D01*
X197415000Y-115257142D02*
X197367380Y-115209523D01*
X197367380Y-115209523D02*
X197272142Y-115161904D01*
X197272142Y-115161904D02*
X197081666Y-115161904D01*
X197081666Y-115161904D02*
X196986428Y-115209523D01*
X196986428Y-115209523D02*
X196938809Y-115257142D01*
X196938809Y-115257142D02*
X196891190Y-115352380D01*
X210557857Y-116685713D02*
X210510238Y-116638094D01*
X210510238Y-116638094D02*
X210462619Y-116542856D01*
X210462619Y-116542856D02*
X210462619Y-116304761D01*
X210462619Y-116304761D02*
X210510238Y-116209523D01*
X210510238Y-116209523D02*
X210557857Y-116161904D01*
X210557857Y-116161904D02*
X210653095Y-116114285D01*
X210653095Y-116114285D02*
X210748333Y-116114285D01*
X210748333Y-116114285D02*
X210891190Y-116161904D01*
X210891190Y-116161904D02*
X211462619Y-116733332D01*
X211462619Y-116733332D02*
X211462619Y-116114285D01*
X210462619Y-115209523D02*
X210462619Y-115685713D01*
X210462619Y-115685713D02*
X210938809Y-115733332D01*
X210938809Y-115733332D02*
X210891190Y-115685713D01*
X210891190Y-115685713D02*
X210843571Y-115590475D01*
X210843571Y-115590475D02*
X210843571Y-115352380D01*
X210843571Y-115352380D02*
X210891190Y-115257142D01*
X210891190Y-115257142D02*
X210938809Y-115209523D01*
X210938809Y-115209523D02*
X211034047Y-115161904D01*
X211034047Y-115161904D02*
X211272142Y-115161904D01*
X211272142Y-115161904D02*
X211367380Y-115209523D01*
X211367380Y-115209523D02*
X211415000Y-115257142D01*
X211415000Y-115257142D02*
X211462619Y-115352380D01*
X211462619Y-115352380D02*
X211462619Y-115590475D01*
X211462619Y-115590475D02*
X211415000Y-115685713D01*
X211415000Y-115685713D02*
X211367380Y-115733332D01*
X199462619Y-116114285D02*
X199462619Y-116685713D01*
X199462619Y-116399999D02*
X198462619Y-116399999D01*
X198462619Y-116399999D02*
X198605476Y-116495237D01*
X198605476Y-116495237D02*
X198700714Y-116590475D01*
X198700714Y-116590475D02*
X198748333Y-116685713D01*
X199462619Y-115638094D02*
X199462619Y-115447618D01*
X199462619Y-115447618D02*
X199415000Y-115352380D01*
X199415000Y-115352380D02*
X199367380Y-115304761D01*
X199367380Y-115304761D02*
X199224523Y-115209523D01*
X199224523Y-115209523D02*
X199034047Y-115161904D01*
X199034047Y-115161904D02*
X198653095Y-115161904D01*
X198653095Y-115161904D02*
X198557857Y-115209523D01*
X198557857Y-115209523D02*
X198510238Y-115257142D01*
X198510238Y-115257142D02*
X198462619Y-115352380D01*
X198462619Y-115352380D02*
X198462619Y-115542856D01*
X198462619Y-115542856D02*
X198510238Y-115638094D01*
X198510238Y-115638094D02*
X198557857Y-115685713D01*
X198557857Y-115685713D02*
X198653095Y-115733332D01*
X198653095Y-115733332D02*
X198891190Y-115733332D01*
X198891190Y-115733332D02*
X198986428Y-115685713D01*
X198986428Y-115685713D02*
X199034047Y-115638094D01*
X199034047Y-115638094D02*
X199081666Y-115542856D01*
X199081666Y-115542856D02*
X199081666Y-115352380D01*
X199081666Y-115352380D02*
X199034047Y-115257142D01*
X199034047Y-115257142D02*
X198986428Y-115209523D01*
X198986428Y-115209523D02*
X198891190Y-115161904D01*
X212114285Y-103462619D02*
X212733332Y-103462619D01*
X212733332Y-103462619D02*
X212399999Y-103843571D01*
X212399999Y-103843571D02*
X212542856Y-103843571D01*
X212542856Y-103843571D02*
X212638094Y-103891190D01*
X212638094Y-103891190D02*
X212685713Y-103938809D01*
X212685713Y-103938809D02*
X212733332Y-104034047D01*
X212733332Y-104034047D02*
X212733332Y-104272142D01*
X212733332Y-104272142D02*
X212685713Y-104367380D01*
X212685713Y-104367380D02*
X212638094Y-104415000D01*
X212638094Y-104415000D02*
X212542856Y-104462619D01*
X212542856Y-104462619D02*
X212257142Y-104462619D01*
X212257142Y-104462619D02*
X212161904Y-104415000D01*
X212161904Y-104415000D02*
X212114285Y-104367380D01*
X213352380Y-103462619D02*
X213447618Y-103462619D01*
X213447618Y-103462619D02*
X213542856Y-103510238D01*
X213542856Y-103510238D02*
X213590475Y-103557857D01*
X213590475Y-103557857D02*
X213638094Y-103653095D01*
X213638094Y-103653095D02*
X213685713Y-103843571D01*
X213685713Y-103843571D02*
X213685713Y-104081666D01*
X213685713Y-104081666D02*
X213638094Y-104272142D01*
X213638094Y-104272142D02*
X213590475Y-104367380D01*
X213590475Y-104367380D02*
X213542856Y-104415000D01*
X213542856Y-104415000D02*
X213447618Y-104462619D01*
X213447618Y-104462619D02*
X213352380Y-104462619D01*
X213352380Y-104462619D02*
X213257142Y-104415000D01*
X213257142Y-104415000D02*
X213209523Y-104367380D01*
X213209523Y-104367380D02*
X213161904Y-104272142D01*
X213161904Y-104272142D02*
X213114285Y-104081666D01*
X213114285Y-104081666D02*
X213114285Y-103843571D01*
X213114285Y-103843571D02*
X213161904Y-103653095D01*
X213161904Y-103653095D02*
X213209523Y-103557857D01*
X213209523Y-103557857D02*
X213257142Y-103510238D01*
X213257142Y-103510238D02*
X213352380Y-103462619D01*
X212161904Y-109557857D02*
X212209523Y-109510238D01*
X212209523Y-109510238D02*
X212304761Y-109462619D01*
X212304761Y-109462619D02*
X212542856Y-109462619D01*
X212542856Y-109462619D02*
X212638094Y-109510238D01*
X212638094Y-109510238D02*
X212685713Y-109557857D01*
X212685713Y-109557857D02*
X212733332Y-109653095D01*
X212733332Y-109653095D02*
X212733332Y-109748333D01*
X212733332Y-109748333D02*
X212685713Y-109891190D01*
X212685713Y-109891190D02*
X212114285Y-110462619D01*
X212114285Y-110462619D02*
X212733332Y-110462619D01*
X213066666Y-109462619D02*
X213733332Y-109462619D01*
X213733332Y-109462619D02*
X213304761Y-110462619D01*
X195462619Y-116114285D02*
X195462619Y-116685713D01*
X195462619Y-116399999D02*
X194462619Y-116399999D01*
X194462619Y-116399999D02*
X194605476Y-116495237D01*
X194605476Y-116495237D02*
X194700714Y-116590475D01*
X194700714Y-116590475D02*
X194748333Y-116685713D01*
X194462619Y-115780951D02*
X194462619Y-115114285D01*
X194462619Y-115114285D02*
X195462619Y-115542856D01*
X212114285Y-101462619D02*
X212733332Y-101462619D01*
X212733332Y-101462619D02*
X212399999Y-101843571D01*
X212399999Y-101843571D02*
X212542856Y-101843571D01*
X212542856Y-101843571D02*
X212638094Y-101891190D01*
X212638094Y-101891190D02*
X212685713Y-101938809D01*
X212685713Y-101938809D02*
X212733332Y-102034047D01*
X212733332Y-102034047D02*
X212733332Y-102272142D01*
X212733332Y-102272142D02*
X212685713Y-102367380D01*
X212685713Y-102367380D02*
X212638094Y-102415000D01*
X212638094Y-102415000D02*
X212542856Y-102462619D01*
X212542856Y-102462619D02*
X212257142Y-102462619D01*
X212257142Y-102462619D02*
X212161904Y-102415000D01*
X212161904Y-102415000D02*
X212114285Y-102367380D01*
X213685713Y-102462619D02*
X213114285Y-102462619D01*
X213399999Y-102462619D02*
X213399999Y-101462619D01*
X213399999Y-101462619D02*
X213304761Y-101605476D01*
X213304761Y-101605476D02*
X213209523Y-101700714D01*
X213209523Y-101700714D02*
X213114285Y-101748333D01*
X212114285Y-93462619D02*
X212733332Y-93462619D01*
X212733332Y-93462619D02*
X212399999Y-93843571D01*
X212399999Y-93843571D02*
X212542856Y-93843571D01*
X212542856Y-93843571D02*
X212638094Y-93891190D01*
X212638094Y-93891190D02*
X212685713Y-93938809D01*
X212685713Y-93938809D02*
X212733332Y-94034047D01*
X212733332Y-94034047D02*
X212733332Y-94272142D01*
X212733332Y-94272142D02*
X212685713Y-94367380D01*
X212685713Y-94367380D02*
X212638094Y-94415000D01*
X212638094Y-94415000D02*
X212542856Y-94462619D01*
X212542856Y-94462619D02*
X212257142Y-94462619D01*
X212257142Y-94462619D02*
X212161904Y-94415000D01*
X212161904Y-94415000D02*
X212114285Y-94367380D01*
X213638094Y-93462619D02*
X213161904Y-93462619D01*
X213161904Y-93462619D02*
X213114285Y-93938809D01*
X213114285Y-93938809D02*
X213161904Y-93891190D01*
X213161904Y-93891190D02*
X213257142Y-93843571D01*
X213257142Y-93843571D02*
X213495237Y-93843571D01*
X213495237Y-93843571D02*
X213590475Y-93891190D01*
X213590475Y-93891190D02*
X213638094Y-93938809D01*
X213638094Y-93938809D02*
X213685713Y-94034047D01*
X213685713Y-94034047D02*
X213685713Y-94272142D01*
X213685713Y-94272142D02*
X213638094Y-94367380D01*
X213638094Y-94367380D02*
X213590475Y-94415000D01*
X213590475Y-94415000D02*
X213495237Y-94462619D01*
X213495237Y-94462619D02*
X213257142Y-94462619D01*
X213257142Y-94462619D02*
X213161904Y-94415000D01*
X213161904Y-94415000D02*
X213114285Y-94367380D01*
X212114285Y-97462619D02*
X212733332Y-97462619D01*
X212733332Y-97462619D02*
X212399999Y-97843571D01*
X212399999Y-97843571D02*
X212542856Y-97843571D01*
X212542856Y-97843571D02*
X212638094Y-97891190D01*
X212638094Y-97891190D02*
X212685713Y-97938809D01*
X212685713Y-97938809D02*
X212733332Y-98034047D01*
X212733332Y-98034047D02*
X212733332Y-98272142D01*
X212733332Y-98272142D02*
X212685713Y-98367380D01*
X212685713Y-98367380D02*
X212638094Y-98415000D01*
X212638094Y-98415000D02*
X212542856Y-98462619D01*
X212542856Y-98462619D02*
X212257142Y-98462619D01*
X212257142Y-98462619D02*
X212161904Y-98415000D01*
X212161904Y-98415000D02*
X212114285Y-98367380D01*
X213066666Y-97462619D02*
X213685713Y-97462619D01*
X213685713Y-97462619D02*
X213352380Y-97843571D01*
X213352380Y-97843571D02*
X213495237Y-97843571D01*
X213495237Y-97843571D02*
X213590475Y-97891190D01*
X213590475Y-97891190D02*
X213638094Y-97938809D01*
X213638094Y-97938809D02*
X213685713Y-98034047D01*
X213685713Y-98034047D02*
X213685713Y-98272142D01*
X213685713Y-98272142D02*
X213638094Y-98367380D01*
X213638094Y-98367380D02*
X213590475Y-98415000D01*
X213590475Y-98415000D02*
X213495237Y-98462619D01*
X213495237Y-98462619D02*
X213209523Y-98462619D01*
X213209523Y-98462619D02*
X213114285Y-98415000D01*
X213114285Y-98415000D02*
X213066666Y-98367380D01*
X189462619Y-116114285D02*
X189462619Y-116685713D01*
X189462619Y-116399999D02*
X188462619Y-116399999D01*
X188462619Y-116399999D02*
X188605476Y-116495237D01*
X188605476Y-116495237D02*
X188700714Y-116590475D01*
X188700714Y-116590475D02*
X188748333Y-116685713D01*
X188795952Y-115257142D02*
X189462619Y-115257142D01*
X188415000Y-115495237D02*
X189129285Y-115733332D01*
X189129285Y-115733332D02*
X189129285Y-115114285D01*
X212114285Y-87462619D02*
X212733332Y-87462619D01*
X212733332Y-87462619D02*
X212399999Y-87843571D01*
X212399999Y-87843571D02*
X212542856Y-87843571D01*
X212542856Y-87843571D02*
X212638094Y-87891190D01*
X212638094Y-87891190D02*
X212685713Y-87938809D01*
X212685713Y-87938809D02*
X212733332Y-88034047D01*
X212733332Y-88034047D02*
X212733332Y-88272142D01*
X212733332Y-88272142D02*
X212685713Y-88367380D01*
X212685713Y-88367380D02*
X212638094Y-88415000D01*
X212638094Y-88415000D02*
X212542856Y-88462619D01*
X212542856Y-88462619D02*
X212257142Y-88462619D01*
X212257142Y-88462619D02*
X212161904Y-88415000D01*
X212161904Y-88415000D02*
X212114285Y-88367380D01*
X213304761Y-87891190D02*
X213209523Y-87843571D01*
X213209523Y-87843571D02*
X213161904Y-87795952D01*
X213161904Y-87795952D02*
X213114285Y-87700714D01*
X213114285Y-87700714D02*
X213114285Y-87653095D01*
X213114285Y-87653095D02*
X213161904Y-87557857D01*
X213161904Y-87557857D02*
X213209523Y-87510238D01*
X213209523Y-87510238D02*
X213304761Y-87462619D01*
X213304761Y-87462619D02*
X213495237Y-87462619D01*
X213495237Y-87462619D02*
X213590475Y-87510238D01*
X213590475Y-87510238D02*
X213638094Y-87557857D01*
X213638094Y-87557857D02*
X213685713Y-87653095D01*
X213685713Y-87653095D02*
X213685713Y-87700714D01*
X213685713Y-87700714D02*
X213638094Y-87795952D01*
X213638094Y-87795952D02*
X213590475Y-87843571D01*
X213590475Y-87843571D02*
X213495237Y-87891190D01*
X213495237Y-87891190D02*
X213304761Y-87891190D01*
X213304761Y-87891190D02*
X213209523Y-87938809D01*
X213209523Y-87938809D02*
X213161904Y-87986428D01*
X213161904Y-87986428D02*
X213114285Y-88081666D01*
X213114285Y-88081666D02*
X213114285Y-88272142D01*
X213114285Y-88272142D02*
X213161904Y-88367380D01*
X213161904Y-88367380D02*
X213209523Y-88415000D01*
X213209523Y-88415000D02*
X213304761Y-88462619D01*
X213304761Y-88462619D02*
X213495237Y-88462619D01*
X213495237Y-88462619D02*
X213590475Y-88415000D01*
X213590475Y-88415000D02*
X213638094Y-88367380D01*
X213638094Y-88367380D02*
X213685713Y-88272142D01*
X213685713Y-88272142D02*
X213685713Y-88081666D01*
X213685713Y-88081666D02*
X213638094Y-87986428D01*
X213638094Y-87986428D02*
X213590475Y-87938809D01*
X213590475Y-87938809D02*
X213495237Y-87891190D01*
D12*
%TO.C,U1*%
X200000000Y-95373369D02*
X199328249Y-96045120D01*
X199328249Y-96045120D02*
X198380725Y-95097597D01*
X192773369Y-102600000D02*
X193445120Y-101928249D01*
X200671751Y-96045120D02*
X200000000Y-95373369D01*
X193445120Y-103271751D02*
X192773369Y-102600000D01*
X206554880Y-101928249D02*
X207226631Y-102600000D01*
X199328249Y-109154880D02*
X200000000Y-109826631D01*
X207226631Y-102600000D02*
X206554880Y-103271751D01*
X200000000Y-109826631D02*
X200671751Y-109154880D01*
%TO.C,J1*%
X211550000Y-67550000D02*
X214450000Y-67550000D01*
X211550000Y-70450000D02*
X211550000Y-67550000D01*
X214450000Y-67550000D02*
X214450000Y-70450000D01*
X214450000Y-70450000D02*
X211550000Y-70450000D01*
%TO.C,C9*%
X192397072Y-99324566D02*
X192244569Y-99172063D01*
X192906189Y-98815449D02*
X192753686Y-98662946D01*
%TO.C,SW2*%
X186350000Y-67600000D02*
X189650000Y-67600000D01*
X186350000Y-67900000D02*
X186350000Y-67600000D01*
X186350000Y-70100000D02*
X186350000Y-70400000D01*
X186350000Y-70400000D02*
X189650000Y-70400000D01*
X189650000Y-67600000D02*
X189650000Y-67900000D01*
X189650000Y-70400000D02*
X189650000Y-70100000D01*
%TO.C,R12*%
X190546359Y-81620000D02*
X190853641Y-81620000D01*
X190546359Y-82380000D02*
X190853641Y-82380000D01*
%TO.C,R11*%
X192262742Y-71977500D02*
X192737258Y-71977500D01*
X192262742Y-73022500D02*
X192737258Y-73022500D01*
%TO.C,J8*%
X204580000Y-71850000D02*
X204580000Y-69930000D01*
X195420000Y-69930000D02*
X195420000Y-71850000D01*
%TO.C,C12*%
X207159420Y-75490000D02*
X207440580Y-75490000D01*
X207159420Y-76510000D02*
X207440580Y-76510000D01*
%TO.C,C7*%
X208746500Y-105675504D02*
X208945311Y-105874315D01*
X208025251Y-106396753D02*
X208224062Y-106595564D01*
%TO.C,C8*%
X203006734Y-94491016D02*
X203159237Y-94643519D01*
X202497617Y-95000133D02*
X202650120Y-95152636D01*
%TO.C,D4*%
X191015000Y-73265000D02*
X191015000Y-74735000D01*
X191015000Y-74735000D02*
X193300000Y-74735000D01*
X193300000Y-73265000D02*
X191015000Y-73265000D01*
%TO.C,D3*%
X191015000Y-68765000D02*
X191015000Y-70235000D01*
X191015000Y-70235000D02*
X193300000Y-70235000D01*
X193300000Y-68765000D02*
X191015000Y-68765000D01*
%TO.C,R2*%
X210562742Y-78877500D02*
X211037258Y-78877500D01*
X210562742Y-79922500D02*
X211037258Y-79922500D01*
%TO.C,SW4*%
X201650000Y-89500000D02*
X198350000Y-89500000D01*
X201650000Y-89200000D02*
X201650000Y-89500000D01*
X201650000Y-87000000D02*
X201650000Y-86700000D01*
X201650000Y-86700000D02*
X198350000Y-86700000D01*
X198350000Y-89500000D02*
X198350000Y-89200000D01*
X198350000Y-86700000D02*
X198350000Y-87000000D01*
%TO.C,U3*%
X206896913Y-110503087D02*
X208169706Y-111775879D01*
X206896913Y-110503087D02*
X206331228Y-109937401D01*
X209103087Y-108296913D02*
X209668772Y-108862599D01*
X209103087Y-108296913D02*
X208537401Y-107731228D01*
%TO.C,C13*%
X214410000Y-76888748D02*
X214410000Y-78311252D01*
X212590000Y-76888748D02*
X212590000Y-78311252D01*
%TO.C,R3*%
X202677500Y-82037258D02*
X202677500Y-81562742D01*
X203722500Y-82037258D02*
X203722500Y-81562742D01*
%TO.C,SW1*%
X187340000Y-72850000D02*
X186550000Y-72850000D01*
X185540000Y-73450000D02*
X185540000Y-79150000D01*
X188390000Y-74700000D02*
X188390000Y-76400000D01*
X188390000Y-77700000D02*
X188390000Y-77900000D01*
X186550000Y-79750000D02*
X187340000Y-79750000D01*
%TO.C,SW3*%
X201650000Y-84200000D02*
X198350000Y-84200000D01*
X201650000Y-83900000D02*
X201650000Y-84200000D01*
X201650000Y-81700000D02*
X201650000Y-81400000D01*
X201650000Y-81400000D02*
X198350000Y-81400000D01*
X198350000Y-84200000D02*
X198350000Y-83900000D01*
X198350000Y-81400000D02*
X198350000Y-81700000D01*
%TO.C,R14*%
X196237258Y-85122500D02*
X195762742Y-85122500D01*
X196237258Y-84077500D02*
X195762742Y-84077500D01*
%TO.C,C15*%
X207011252Y-84710000D02*
X205588748Y-84710000D01*
X207011252Y-82890000D02*
X205588748Y-82890000D01*
%TO.C,R15*%
X191537258Y-83822500D02*
X191062742Y-83822500D01*
X191537258Y-82777500D02*
X191062742Y-82777500D01*
%TO.C,C3*%
X197547870Y-93936412D02*
X197700373Y-93783909D01*
X198056987Y-94445529D02*
X198209490Y-94293026D01*
%TO.C,C14*%
X207011252Y-87210000D02*
X205588748Y-87210000D01*
X207011252Y-85390000D02*
X205588748Y-85390000D01*
%TO.C,C5*%
X196902462Y-111509135D02*
X197101273Y-111707946D01*
X196181213Y-112230384D02*
X196380024Y-112429195D01*
%TO.C,D2*%
X208660000Y-82500000D02*
X208660000Y-80500000D01*
X208660000Y-82500000D02*
X204650000Y-82500000D01*
X208660000Y-80500000D02*
X204650000Y-80500000D01*
%TO.C,C2*%
X198056987Y-110754471D02*
X198209490Y-110906974D01*
X197547870Y-111263588D02*
X197700373Y-111416091D01*
%TO.C,R4*%
X203637258Y-80022500D02*
X203162742Y-80022500D01*
X203637258Y-78977500D02*
X203162742Y-78977500D01*
%TO.C,Q1*%
X207400000Y-67340000D02*
X205725000Y-67340000D01*
X207400000Y-67340000D02*
X208050000Y-67340000D01*
X207400000Y-70460000D02*
X206750000Y-70460000D01*
X207400000Y-70460000D02*
X208050000Y-70460000D01*
%TO.C,FB1*%
X210200378Y-75540000D02*
X210999622Y-75540000D01*
X210200378Y-76660000D02*
X210999622Y-76660000D01*
%TO.C,C1*%
X209807161Y-104614844D02*
X210005972Y-104813655D01*
X209085912Y-105336093D02*
X209284723Y-105534904D01*
%TO.C,L1*%
X214660000Y-80540000D02*
X213310000Y-80540000D01*
X214660000Y-80540000D02*
X214660000Y-86460000D01*
X208940000Y-80540000D02*
X210290000Y-80540000D01*
X208940000Y-80540000D02*
X208940000Y-86460000D01*
X214660000Y-86460000D02*
X213310000Y-86460000D01*
X208940000Y-86460000D02*
X210290000Y-86460000D01*
%TO.C,U2*%
X207000000Y-76940000D02*
X205200000Y-76940000D01*
X207000000Y-76940000D02*
X207800000Y-76940000D01*
X207000000Y-80060000D02*
X206200000Y-80060000D01*
X207000000Y-80060000D02*
X207800000Y-80060000D01*
%TO.C,C4*%
X192021693Y-105730810D02*
X191869190Y-105578307D01*
X192530810Y-105221693D02*
X192378307Y-105069190D01*
%TO.C,J2*%
X211550000Y-71150000D02*
X214450000Y-71150000D01*
X211550000Y-74050000D02*
X211550000Y-71150000D01*
X214450000Y-71150000D02*
X214450000Y-74050000D01*
X214450000Y-74050000D02*
X211550000Y-74050000D01*
%TO.C,R8*%
X200870000Y-76153641D02*
X200870000Y-75846359D01*
X201630000Y-76153641D02*
X201630000Y-75846359D01*
%TO.C,R9*%
X194885044Y-96712375D02*
X195102325Y-96495094D01*
X195422445Y-97249776D02*
X195639726Y-97032495D01*
%TO.C,F1*%
X207297936Y-73190000D02*
X208502064Y-73190000D01*
X207297936Y-75010000D02*
X208502064Y-75010000D01*
%TO.C,R1*%
X210562742Y-77277500D02*
X211037258Y-77277500D01*
X210562742Y-78322500D02*
X211037258Y-78322500D01*
%TO.C,C10*%
X191689965Y-100031672D02*
X191537462Y-99879169D01*
X192199082Y-99522555D02*
X192046579Y-99370052D01*
%TO.C,R13*%
X197870000Y-76153641D02*
X197870000Y-75846359D01*
X198630000Y-76153641D02*
X198630000Y-75846359D01*
%TO.C,D5*%
X186015000Y-84065000D02*
X186015000Y-85535000D01*
X186015000Y-85535000D02*
X188300000Y-85535000D01*
X188300000Y-84065000D02*
X186015000Y-84065000D01*
%TO.C,C16*%
X195864956Y-92864670D02*
X196017459Y-93017173D01*
X195355839Y-93373787D02*
X195508342Y-93526290D01*
%TO.C,R5*%
X203162742Y-77477500D02*
X203637258Y-77477500D01*
X203162742Y-78522500D02*
X203637258Y-78522500D01*
%TO.C,D6*%
X192785000Y-85535000D02*
X192785000Y-84065000D01*
X192785000Y-84065000D02*
X190500000Y-84065000D01*
X190500000Y-85535000D02*
X192785000Y-85535000D01*
%TO.C,C6*%
X207624141Y-102952023D02*
X207776644Y-102799520D01*
X208133258Y-103461140D02*
X208285761Y-103308637D01*
%TO.C,R10*%
X192262742Y-67477500D02*
X192737258Y-67477500D01*
X192262742Y-68522500D02*
X192737258Y-68522500D01*
%TO.C,Y1*%
X196216979Y-94998603D02*
X193883526Y-92665150D01*
X193883526Y-92665150D02*
X191055099Y-95493577D01*
%TO.C,C17*%
X191619254Y-97415377D02*
X191466751Y-97262874D01*
X192128371Y-96906260D02*
X191975868Y-96753757D01*
%TO.C,R7*%
X196237258Y-86722500D02*
X195762742Y-86722500D01*
X196237258Y-85677500D02*
X195762742Y-85677500D01*
%TO.C,R6*%
X187262742Y-82777500D02*
X187737258Y-82777500D01*
X187262742Y-83822500D02*
X187737258Y-83822500D01*
%TD*%
M02*
