%TF.GenerationSoftware,KiCad,Pcbnew,7.0.2*%
%TF.CreationDate,2023-06-14T20:26:51+10:00*%
%TF.ProjectId,STM32_Simple_Rev1.0,53544d33-325f-4536-996d-706c655f5265,rev?*%
%TF.SameCoordinates,Original*%
%TF.FileFunction,Soldermask,Bot*%
%TF.FilePolarity,Negative*%
%FSLAX46Y46*%
G04 Gerber Fmt 4.6, Leading zero omitted, Abs format (unit mm)*
G04 Created by KiCad (PCBNEW 7.0.2) date 2023-06-14 20:26:51*
%MOMM*%
%LPD*%
G01*
G04 APERTURE LIST*
G04 Aperture macros list*
%AMRoundRect*
0 Rectangle with rounded corners*
0 $1 Rounding radius*
0 $2 $3 $4 $5 $6 $7 $8 $9 X,Y pos of 4 corners*
0 Add a 4 corners polygon primitive as box body*
4,1,4,$2,$3,$4,$5,$6,$7,$8,$9,$2,$3,0*
0 Add four circle primitives for the rounded corners*
1,1,$1+$1,$2,$3*
1,1,$1+$1,$4,$5*
1,1,$1+$1,$6,$7*
1,1,$1+$1,$8,$9*
0 Add four rect primitives between the rounded corners*
20,1,$1+$1,$2,$3,$4,$5,0*
20,1,$1+$1,$4,$5,$6,$7,0*
20,1,$1+$1,$6,$7,$8,$9,0*
20,1,$1+$1,$8,$9,$2,$3,0*%
G04 Aperture macros list end*
%ADD10RoundRect,0.520000X-0.480000X-0.130000X0.480000X-0.130000X0.480000X0.130000X-0.480000X0.130000X0*%
%ADD11RoundRect,0.520000X0.130000X-0.480000X0.130000X0.480000X-0.130000X0.480000X-0.130000X-0.480000X0*%
%ADD12RoundRect,0.520000X0.480000X0.130000X-0.480000X0.130000X-0.480000X-0.130000X0.480000X-0.130000X0*%
%ADD13C,0.650000*%
%ADD14O,1.000000X2.100000*%
%ADD15O,1.000000X1.800000*%
%ADD16C,0.800000*%
%ADD17C,0.900000*%
G04 APERTURE END LIST*
D10*
%TO.C,J15*%
X185000000Y-108000000D03*
%TD*%
%TO.C,J16*%
X185000000Y-110000000D03*
%TD*%
%TO.C,J14*%
X185000000Y-106000000D03*
%TD*%
%TO.C,J9*%
X185000000Y-96000000D03*
%TD*%
D11*
%TO.C,J30*%
X209000000Y-118000000D03*
%TD*%
D10*
%TO.C,J5*%
X185000000Y-90000000D03*
%TD*%
D12*
%TO.C,J37*%
X215000000Y-106000000D03*
%TD*%
%TO.C,J46*%
X215000000Y-88000000D03*
%TD*%
D11*
%TO.C,J29*%
X207000000Y-118000000D03*
%TD*%
D10*
%TO.C,J6*%
X185000000Y-92000000D03*
%TD*%
D12*
%TO.C,J39*%
X215000000Y-102000000D03*
%TD*%
D11*
%TO.C,J22*%
X193000000Y-118000000D03*
%TD*%
%TO.C,J32*%
X213000000Y-118000000D03*
%TD*%
D13*
%TO.C,J8*%
X202890000Y-72605000D03*
X197110000Y-72605000D03*
D14*
X204320000Y-73125000D03*
D15*
X204320000Y-68925000D03*
D14*
X195680000Y-73125000D03*
D15*
X195680000Y-68925000D03*
%TD*%
D12*
%TO.C,J34*%
X215000000Y-111998624D03*
%TD*%
D10*
%TO.C,J10*%
X185000000Y-98000000D03*
%TD*%
%TO.C,J7*%
X185000000Y-94000000D03*
%TD*%
D12*
%TO.C,J38*%
X215000000Y-104000000D03*
%TD*%
D16*
%TO.C,J3*%
X196080000Y-78315500D03*
X191000000Y-79331500D03*
X191000000Y-77299500D03*
%TD*%
D10*
%TO.C,J11*%
X185000000Y-100000000D03*
%TD*%
D17*
%TO.C,SW1*%
X186940000Y-74800000D03*
X186940000Y-77800000D03*
%TD*%
D12*
%TO.C,J44*%
X215000000Y-92000000D03*
%TD*%
D10*
%TO.C,J4*%
X185000000Y-88000000D03*
%TD*%
D11*
%TO.C,J20*%
X189000000Y-118000000D03*
%TD*%
D12*
%TO.C,J40*%
X215000000Y-100000000D03*
%TD*%
D11*
%TO.C,J27*%
X203000000Y-118000000D03*
%TD*%
D10*
%TO.C,J13*%
X185000000Y-104000000D03*
%TD*%
D12*
%TO.C,J45*%
X215000000Y-90000000D03*
%TD*%
D10*
%TO.C,J17*%
X185000000Y-112000000D03*
%TD*%
D11*
%TO.C,J28*%
X205000000Y-118000000D03*
%TD*%
%TO.C,J26*%
X201000000Y-118000000D03*
%TD*%
D12*
%TO.C,J41*%
X215000000Y-98000000D03*
%TD*%
%TO.C,J35*%
X215000000Y-110000000D03*
%TD*%
D11*
%TO.C,J24*%
X197000000Y-118000000D03*
%TD*%
D12*
%TO.C,J42*%
X215000000Y-96000000D03*
%TD*%
D11*
%TO.C,J31*%
X211000000Y-118000000D03*
%TD*%
D10*
%TO.C,J12*%
X185000000Y-102000000D03*
%TD*%
D12*
%TO.C,J33*%
X215000000Y-114000000D03*
%TD*%
D11*
%TO.C,J23*%
X195000000Y-118000000D03*
%TD*%
D12*
%TO.C,J43*%
X215000000Y-94000000D03*
%TD*%
D11*
%TO.C,J25*%
X199000000Y-118000000D03*
%TD*%
%TO.C,J19*%
X187000000Y-118000000D03*
%TD*%
%TO.C,J21*%
X191000000Y-118000000D03*
%TD*%
D10*
%TO.C,J18*%
X185000000Y-114000000D03*
%TD*%
D12*
%TO.C,J36*%
X215000000Y-108000000D03*
%TD*%
M02*
